<?xml version="1.0" encoding="UTF-8"?>
<!DOCTYPE svg  PUBLIC '-//W3C//DTD SVG 1.1//EN'  'http://www.w3.org/Graphics/SVG/1.1/DTD/svg11.dtd'>
<svg version="1.1" xmlns="http://www.w3.org/2000/svg">
<defs>
<font id="Lobster-Regular" horiz-adv-x="505">
<font-face font-family="Lobster" font-weight="400" ascent="800" bbox="-385 -490 1032 1000" cap-height="749" descent="-200" panose-1="0 0 5 0 0 0 0 0 0 0" underline-position="-100" underline-thickness="50" unicode-range="U+0020-2084" units-per-em="1000" x-height="500"/>
<missing-glyph/>
<glyph glyph-name="space" horiz-adv-x="217" unicode=" "/>
<glyph d="M174 731l154 21l-145 -521h-85zM55.5 17.5q-23.5 23.5 -23.5 56.5t23.5 56t56.5 23t56 -23t23 -56t-23 -56.5t-56 -23.5t-56.5 23.5z" glyph-name="exclam" horiz-adv-x="257" unicode="!"/>
<glyph d="M155 752h105l-110 -232h-70zM312 752h105l-110 -232h-70z" glyph-name="quotedbl" horiz-adv-x="353" unicode='"'/>
<glyph d="M481 415l-25 -123h94l-15 -77h-95l-38 -187h-73l38 187h-129l-38 -187h-73l38 187h-105l15 77h105l25 123h-102l15 77h103l36 181h74l-37 -181h129l36 181h74l-37 -181h97l-15 -77h-97zM407 415h-128l-25 -123h128z" glyph-name="numbersign" horiz-adv-x="659" unicode="#"/>
<glyph d="M426 597q11 23 11 48q0 24 -10.5 40.5t-30.5 24.5l-56 -244l23 -25q39 -41 63.5 -72.5t41 -70.5t16.5 -84q0 -63 -34 -116t-92 -84.5t-128 -31.5l-29 -125h-50l29 128q-76 12 -121 59t-45 116q0 59 31 97t80 38q33 0 57 -18.5t29 -47.5q-42 0 -68 -24.5t-26 -64.5 q0 -35 21 -58t58 -28l67 296q-18 21 -19 22q-54 64 -81 109.5t-27 98.5q0 52 28.5 93.5t78.5 65.5t112 24h2l23 100h51l-24 -105q59 -11 92.5 -47t33.5 -88q0 -42 -21 -68t-55 -26q-38 0 -61 31q19 14 30 37zM301 514l45 199q-37 -6 -59.5 -33t-22.5 -66q0 -48 37 -100z M302 300l-56 -246q47 8 75 41.5t28 81.5q0 59 -47 123z" glyph-name="dollar" horiz-adv-x="548" unicode="$"/>
<glyph d="M50 489q0 75 27 138t73.5 99.5t102.5 36.5q58 0 87 -37.5t29 -111.5t-27.5 -137t-74.5 -100t-103 -37q-114 0 -114 149zM227 418q23 37 37 98t14 131q0 40 -7 57t-24 17q-25 0 -49.5 -37.5t-40 -97.5t-15.5 -122q0 -43 8.5 -63t27.5 -20q26 0 49 37zM585 752h72 l-416 -752h-72zM467 143q0 75 27 138t73.5 99.5t102.5 36.5q58 0 87 -37.5t29 -111.5t-27.5 -137t-74.5 -100t-103 -37q-114 0 -114 149zM644 72q23 37 37 98t14 131q0 40 -7 57t-24 17q-25 0 -49.5 -37.5t-40 -97.5t-15.5 -122q0 -43 8.5 -63t27.5 -20q26 0 49 37z" glyph-name="percent" horiz-adv-x="796" unicode="%"/>
<glyph d="M660 382q0 -35 -26.5 -66t-66.5 -44q-17 -5 -40 -5q-9 -85 -50.5 -149.5t-108.5 -100t-150 -35.5q-95 0 -149.5 48t-54.5 130q0 55 24.5 108.5t67 92.5t93.5 54v4q-31 26 -44 55t-13 72q0 54 29.5 101.5t80 76t109.5 28.5q68 0 112 -39t44 -99q0 -41 -21 -67t-55 -26 q-38 0 -61 31q18 11 29.5 34t11.5 49q0 28 -14 44t-38 16q-26 0 -50 -20t-38.5 -53.5t-14.5 -70.5q0 -50 27 -84.5t74 -46.5v-4q-47 -9 -88.5 -43.5t-66 -84t-24.5 -100.5q0 -52 26 -81t72 -29q43 0 85 24t72 67t40 97q-22 0 -46 -6q-55 -18 -79 -53l-3 -1q-11 14 -18 36 q-4 12 -4 26q0 34 24 61t60 38q28 8 77 12q33 2 57 7q23 7 46.5 23.5t35.5 32.5h2q15 -15 22 -37q3 -12 3 -23z" glyph-name="ampersand" horiz-adv-x="682" unicode="&amp;"/>
<glyph d="M155 752h105l-110 -232h-70z" glyph-name="quotesingle" horiz-adv-x="196" unicode="'"/>
<glyph d="M190.5 -57.5q-40.5 103.5 -40.5 221.5q0 126 45.5 243t129.5 210t194 146l13 -40q-78 -46 -139 -139t-95 -215t-34 -251q0 -95 19 -178.5t56 -147.5l-33 -29q-75 76 -115.5 179.5z" glyph-name="parenleft" horiz-adv-x="437" unicode="("/>
<glyph d="M-68 -197q78 46 139 139t95 215t34 251q0 95 -19 178.5t-56 147.5l33 29q75 -76 115 -179.5t40 -221.5q0 -126 -45.5 -243t-129 -209.5t-193.5 -146.5z" glyph-name="parenright" horiz-adv-x="413" unicode=")"/>
<glyph d="M206 376l24 145q-29 -35 -51 -50t-44 -15t-36 16t-14 41q0 9 1 13l127 41q-70 12 -95.5 29.5t-25.5 43.5q0 17 8 30t29 31l101 -89q-17 61 -17 90q0 63 54 63q14 0 43 -8l-25 -145q29 35 52.5 51t44.5 16q23 0 37 -16t14 -41q0 -5 -2 -13l-130 -42q69 -13 94.5 -30.5 t25.5 -43.5q0 -18 -7.5 -31t-28.5 -30l-100 89q16 -64 16 -90q0 -63 -53 -63q-15 0 -42 8z" glyph-name="asterisk" horiz-adv-x="515" unicode="*"/>
<glyph d="M157 301h-142l18 79h142l30 139h80l-30 -139h146l-17 -79h-147l-31 -144h-80z" glyph-name="plus" horiz-adv-x="442" unicode="+"/>
<glyph d="M32 -109q0 12 6 21t20 24t20 24t6 22q0 11 -13 20q-47 30 -47 73q0 33 23 56.5t56 23.5q32 0 50 -21t18 -55q0 -47 -35.5 -106t-94.5 -99q-9 6 -9 17z" glyph-name="comma" horiz-adv-x="216" unicode=","/>
<glyph d="M37 301h200l-17 -79h-201z" glyph-name="hyphen" horiz-adv-x="290" unicode="-"/>
<glyph d="M54 19q-23 23 -23 56t23 56.5t56 23.5t56.5 -23.5t23.5 -56.5t-23.5 -56t-56.5 -23t-56 23z" glyph-name="period" horiz-adv-x="263" unicode="."/>
<glyph d="M223 750h72l-212 -1000h-72z" glyph-name="slash" horiz-adv-x="311" unicode="/"/>
<glyph d="M67 57q-46 67 -46 183q0 138 43 256t120.5 188.5t176.5 70.5q96 0 144.5 -64t48.5 -176q0 -111 -34 -232.5t-108.5 -207t-188.5 -85.5q-110 0 -156 67zM325 137q42 72 67.5 185t25.5 228q0 63 -15 104.5t-43 41.5q-46 0 -90 -73t-72 -186t-28 -222q0 -150 66 -150 q47 0 89 72z" glyph-name="zero" horiz-adv-x="546" unicode="0"/>
<glyph d="M153 624h-95l12 46q55 0 114 15t140 63l-159 -748h-144z" glyph-name="one" horiz-adv-x="317" unicode="1"/>
<glyph d="M271.5 -7q-21.5 5 -52.5 14q-37 11 -61 16t-50 5q-56 0 -110 -29h-4q-6 24 -6 47q0 42 21.5 82.5t52.5 74.5t85 87q57 55 92 94.5t59 87t24 99.5q0 57 -18.5 90t-56.5 33q-35 0 -57 -23.5t-22 -57.5t13.5 -60.5t34.5 -38.5v-4q-17 -16 -37 -25t-39 -9q-31 0 -51.5 28 t-20.5 76q0 42 24.5 81t72.5 64t113 25q87 0 140.5 -48.5t53.5 -133.5q0 -54 -27.5 -100t-67.5 -82t-107 -87q-66 -50 -105 -86t-60 -76q29 8 62 8q24 0 50 -4t49 -9q4 -1 26.5 -5.5t40.5 -4.5q27 0 50 11.5t48 39.5l3 -2q13 -37 13 -62q0 -35 -18.5 -62.5t-49.5 -43 t-66 -15.5q-20 0 -41.5 5z" glyph-name="two" horiz-adv-x="492" unicode="2"/>
<glyph d="M70 30q-64 35 -64 135q0 65 31.5 104t89.5 39q68 0 78 -51q-51 -3 -69.5 -35t-18.5 -73q0 -43 25 -67t61 -24q32 0 61.5 19t48.5 58t19 94q0 61 -33.5 113.5t-99.5 75.5q53 15 92 47.5t59 72t20 75.5q0 37 -19.5 59.5t-56.5 22.5q-36 0 -57.5 -21.5t-21.5 -56.5 q0 -24 9.5 -45t28.5 -26q-37 -34 -76 -34q-31 0 -51.5 22.5t-20.5 62.5q0 45 27.5 79.5t74.5 53.5t105 19q59 0 101 -20t63.5 -53t21.5 -73q0 -52 -35 -102t-102 -84q63 -21 94.5 -64.5t31.5 -100.5q0 -62 -35.5 -121.5t-100 -97.5t-146.5 -38q-71 0 -135 35z" glyph-name="three" horiz-adv-x="514" unicode="3"/>
<glyph d="M447 245q-30 -30 -77 -39l-44 -206h-139l75 215l-19 6q-40 11 -63 16t-49 5q-66 0 -108 -21h-4l-21 39v5q103 123 161 221t58 187q0 30 -8 62q21 7 50 7q45 0 70 -24.5t25 -62.5q0 -45 -39.5 -106.5t-97 -122t-112.5 -104.5l1 -3q18 7 42.5 12.5t46.5 5.5q25 0 60 -6 t44 -8l81 233h64l-49 -232q35 13 63 47l3 -2q16 -28 16 -55q0 -39 -30 -69z" glyph-name="four" horiz-adv-x="476" unicode="4"/>
<glyph d="M62 33q-47 38 -47 108q0 63 36 101.5t94 38.5q61 0 71 -51q-41 -5 -65.5 -29.5t-24.5 -63.5q0 -35 21 -55t56 -20q58 0 95 52t37 133q0 69 -29 106.5t-81 37.5q-53 0 -131 -45l-13 9l77 379q113 -13 168 -13q91 0 174 28q2 -22 2 -33q0 -52 -27.5 -84t-87.5 -32 q-23 0 -55 5t-61 11q-25 5 -51 9l-40 -181q65 31 124 31q82 0 129.5 -55.5t47.5 -150.5q0 -81 -35.5 -143t-100 -96.5t-148.5 -34.5q-88 0 -135 38z" glyph-name="five" horiz-adv-x="517" unicode="5"/>
<glyph d="M65.5 57.5q-49.5 62.5 -49.5 201.5q0 134 46.5 246.5t126.5 178t176 65.5q66 0 105.5 -31t39.5 -82q0 -39 -21 -65.5t-52 -26.5q-17 0 -31 9t-20 23q16 8 24.5 24t8.5 34q0 23 -13.5 39.5t-38.5 16.5q-41 0 -80.5 -43t-70.5 -118.5t-45 -168.5l3 1q18 46 59 70t97 24 q69 0 111 -46.5t42 -126.5q0 -74 -36 -140t-96.5 -106.5t-130.5 -40.5q-105 0 -154.5 62.5zM295.5 100.5q26.5 27.5 43.5 75t17 103.5q0 54 -21.5 79.5t-58.5 25.5q-114 0 -114 -165q0 -146 79 -146q28 0 54.5 27.5z" glyph-name="six" horiz-adv-x="500" unicode="6"/>
<glyph d="M102 28.5q-27 32.5 -27 88.5q0 60 30 123t69.5 116.5t101.5 126.5q50 60 71.5 89.5t21.5 48.5q-18 -5 -35 -9t-32 -4q-26 0 -63 11q-4 1 -25.5 6t-42.5 5q-29 0 -52 -12t-46 -40l-3 1q-13 29 -13 61q0 53 38 84.5t99 31.5q22 0 42 -3.5t47 -11.5q32 -9 54 -13t48 -4 q56 0 135 21l1 -4q0 -23 -23.5 -64.5t-74.5 -120.5q-60 -93 -99 -159.5t-68 -141t-29 -137.5q0 -52 18 -103q-35 -19 -70 -19q-46 0 -73 32.5z" glyph-name="seven" horiz-adv-x="464" unicode="7"/>
<glyph d="M422.5 370q25.5 -29 43.5 -66.5t18 -80.5q0 -62 -35.5 -114.5t-96 -83.5t-132.5 -31q-64 0 -114.5 24.5t-79 68t-28.5 100.5q0 70 46 122.5t144 96.5q-43 45 -66.5 84.5t-23.5 85.5q0 50 29 91.5t79.5 65.5t111.5 24q53 0 95 -18t65.5 -50.5t23.5 -72.5q0 -98 -147 -178 q42 -39 67.5 -68zM265.5 681.5q-25.5 -27.5 -25.5 -70.5q0 -36 19 -67.5t55 -66.5q37 33 59 75t22 81q0 35 -17.5 55.5t-48.5 20.5q-38 0 -63.5 -27.5zM302.5 99q32.5 36 32.5 85q0 47 -27 88t-79 93q-48 -32 -73.5 -78.5t-25.5 -100.5q0 -56 26 -89.5t69 -33.5 q45 0 77.5 36z" glyph-name="eight" horiz-adv-x="499" unicode="8"/>
<glyph d="M52.5 28q-39.5 31 -39.5 82q0 39 21 66t51 27q18 0 32.5 -9t18.5 -23q-15 -9 -23.5 -24.5t-8.5 -32.5q0 -21 12.5 -35t37.5 -14q41 0 79 43t66 119t40 169l-3 -1q-18 -46 -58.5 -70t-96.5 -24q-70 0 -112 46.5t-42 126.5q0 73 38.5 136.5t102.5 101.5t138 38 q92 0 139 -66.5t47 -196.5q0 -135 -44 -247t-121 -177.5t-169 -65.5q-66 0 -105.5 31zM319 423q30 49 30 135q0 127 -73 127q-33 0 -61 -30.5t-44.5 -78.5t-16.5 -99q0 -53 19 -78t51 -25q65 0 95 49z" glyph-name="nine" horiz-adv-x="489" unicode="9"/>
<glyph d="M114 319q-23 23 -23 56t23 56.5t56 23.5t56.5 -23.5t23.5 -56.5t-23.5 -56t-56.5 -23t-56 23zM64 79q-23 23 -23 56t23 56.5t56 23.5t56.5 -23.5t23.5 -56.5t-23.5 -56t-56.5 -23t-56 23z" glyph-name="colon" horiz-adv-x="267" unicode=":"/>
<glyph d="M117 275q-23 23 -23 56t23 56.5t56 23.5t56.5 -23.5t23.5 -56.5t-23.5 -56t-56.5 -23t-56 23zM54 -93q0 12 6 21t20 24t20 24t6 22q0 11 -13 20q-47 30 -47 73q0 33 23 56.5t56 23.5q32 0 50 -21t18 -55q0 -47 -35.5 -106t-94.5 -99q-9 6 -9 17z" glyph-name="semicolon" horiz-adv-x="276" unicode=";"/>
<glyph d="M7 238l9 41l337 170l-7 -80l-222 -116l182 -95l-22 -77z" glyph-name="less" horiz-adv-x="358" unicode="&lt;"/>
<glyph d="M100 428h368l-23 -112h-369zM56 213h368l-23 -112h-369z" glyph-name="equal" horiz-adv-x="515" unicode="="/>
<glyph d="M14 161l222 116l-182 95l22 77l277 -157l-9 -41l-337 -170z" glyph-name="greater" horiz-adv-x="362" unicode="&gt;"/>
<glyph d="M119.5 318.5q14.5 38.5 35 66.5t53.5 65q43 48 64.5 84.5t21.5 85.5q0 43 -17 67t-49 24q-33 0 -55.5 -23.5t-22.5 -58.5q0 -26 13 -47.5t35 -31.5v-4q-18 -16 -37.5 -25t-37.5 -9q-32 0 -52.5 23.5t-20.5 60.5q0 47 27.5 85t74.5 60t105 22q81 0 128 -37t47 -101 q0 -39 -17 -71.5t-42.5 -57.5t-67.5 -59q-45 -38 -71 -64t-44.5 -61.5t-18.5 -79.5h-66q0 48 14.5 86.5zM70 23.5q-24 23.5 -24 56.5t23.5 56t56.5 23t56.5 -23t23.5 -56t-23.5 -56.5t-56.5 -23.5q-32 0 -56 23.5z" glyph-name="question" horiz-adv-x="441" unicode="?"/>
<glyph d="M58.5 -43q-67.5 59 -67.5 195q0 123 55.5 228.5t150.5 168.5t209 63q109 0 176.5 -59.5t67.5 -169.5q0 -74 -30.5 -141t-80 -107.5t-104.5 -40.5q-33 0 -53.5 16.5t-22.5 46.5q-54 -73 -115 -73q-38 0 -59 26.5t-21 76.5q0 58 27 116.5t69 96.5t86 38q15 0 27 -6t25 -21 l17 25l75 -8l-46 -176q-1 -5 -7.5 -29t-6.5 -40q0 -13 4.5 -22t15.5 -9q20 0 47 33t46 85.5t19 109.5q0 78 -38.5 119t-109.5 41q-85 0 -162 -54.5t-123.5 -143t-46.5 -184.5q0 -93 40 -136t122 -43q61 0 114 24t85 65q12 -6 19.5 -19t7.5 -33q0 -39 -37.5 -65.5 t-91.5 -39.5t-103 -13q-112 0 -179.5 59zM317.5 162q15.5 9 22.5 22l50 189q-11 10 -21 10q-24 0 -49.5 -30.5t-42.5 -74.5t-17 -83q0 -42 27 -42q15 0 30.5 9z" glyph-name="at" horiz-adv-x="688" unicode="@"/>
<glyph d="M153 -108q-28 6 -48.5 29t-20.5 71q0 67 40.5 180t106.5 227q-50 -3 -79 -15t-38 -37q4 0 8.5 -10t4.5 -21q0 -18 -16 -28.5t-40 -10.5q-28 0 -45 15t-17 43q0 34 26.5 62t73.5 44.5t104 16.5q21 0 52 -3q82 130 173.5 212.5t174.5 82.5q48 0 79 -14l-157 -736h-144 l77 363q-37 17 -68 25t-66 11q-57 -123 -93.5 -251.5t-36.5 -205.5q0 -38 14 -56q-37 0 -65 6zM535 679q-43 -23 -89.5 -85.5t-90.5 -151.5q72 -14 122 -35z" glyph-name="A" horiz-adv-x="668" unicode="A"/>
<glyph d="M317.5 -0.5q-29.5 16.5 -29.5 57.5q0 26 13 58q18 -20 33.5 -28t33.5 -8q50 0 74.5 56t24.5 124q0 127 -95 127q-27 0 -46 -3l-82 -383h-144l136 636l148 20l-47 -222h6q38 0 71 24.5t53 62t20 75.5q0 46 -32.5 77t-99.5 31q-61 0 -119 -27.5t-94.5 -82.5t-36.5 -133 q0 -37 7 -51.5t7 -16.5q-53 0 -80 21.5t-27 70.5q0 68 51 129t135 98.5t177 37.5q70 0 118 -22t71.5 -58t23.5 -79q0 -46 -26 -89t-74 -70q60 -11 89 -55.5t29 -105.5q0 -57 -21.5 -124t-71 -115.5t-126.5 -48.5q-40 0 -69.5 16.5z" glyph-name="B" horiz-adv-x="641" unicode="B"/>
<glyph d="M72 41q-53 57 -53 189q0 105 35.5 226t114 207.5t199.5 86.5q75 0 121 -33t46 -101q0 -43 -17 -67.5t-53 -24.5t-57 26q18 9 32 36t14 56q0 27 -14.5 44t-46.5 17q-53 0 -101 -72.5t-77.5 -182.5t-29.5 -212q0 -76 26 -116t94 -40q59 0 109 26t86 74l23 -10 q-25 -63 -74 -105t-105 -61.5t-106 -19.5q-113 0 -166 57z" glyph-name="C" horiz-adv-x="497" unicode="C"/>
<glyph d="M246 40l-8 -40h-144l136 636l148 20l-120 -561q28 -20 57 -20q57 0 100.5 66t67.5 168t24 206q0 98 -38.5 143.5t-107.5 45.5q-75 0 -134.5 -29.5t-93.5 -84.5t-34 -129q0 -37 7 -51.5t7 -16.5q-52 0 -79.5 22t-27.5 71q0 68 51 129t136.5 98t184.5 37q137 0 202 -81 t65 -207q0 -114 -38.5 -224.5t-102.5 -180.5t-136 -70q-60 0 -122 53z" glyph-name="D" horiz-adv-x="663" unicode="D"/>
<glyph d="M53.5 32q-46.5 50 -46.5 126q0 54 22.5 108.5t64.5 95.5t98 55q-31 22 -46 53.5t-15 66.5q0 52 28.5 102t79 81.5t111.5 31.5q63 0 103 -33t40 -92q0 -44 -22 -74t-52 -30q-27 0 -47 27q18 6 31 33t13 54q0 29 -16 42.5t-39 13.5q-29 0 -52.5 -20.5t-36.5 -53t-13 -67.5 q0 -48 25 -84.5t76 -49.5q-51 -11 -92 -50t-64 -90.5t-23 -98.5q0 -45 23.5 -73t71.5 -28q50 0 104.5 27.5t80.5 74.5l23 -10q-39 -86 -120 -137t-173 -51q-91 0 -137.5 50z" glyph-name="E" horiz-adv-x="459" unicode="E"/>
<glyph d="M232 668q-63 -2 -96.5 -48t-33.5 -159q0 -37 7 -51.5t7 -16.5q-54 0 -80.5 22.5t-26.5 74.5q0 71 35 129.5t111.5 94.5t194.5 36q24 0 64 -5q72 -7 102 -7q53 0 90 12q-3 -9 -11 -39.5t-28.5 -52t-55.5 -28.5q-59 0 -140 19l-42 -199h146l-16 -74h-146l-81 -376h-144z " glyph-name="F" horiz-adv-x="459" unicode="F"/>
<glyph d="M113.5 -169.5q-44.5 37.5 -44.5 98.5q0 38 18 70t49 50.5t68 18.5q38 0 61.5 -19t23.5 -50q0 -24 -11 -38q-9 12 -24.5 19t-32.5 7q-30 0 -49 -20t-19 -52t18.5 -52t46.5 -20q35 0 60 31t38 92l50 221h-4q-27 -38 -65.5 -58t-84.5 -20q-58 0 -102 31t-67.5 88.5 t-23.5 133.5q0 110 48 200.5t132 142.5t185 52q85 0 134.5 -37t49.5 -101q0 -43 -21 -69t-55 -26q-19 0 -35.5 8t-27.5 23q18 12 30.5 38.5t12.5 53.5q0 30 -17.5 46.5t-49.5 16.5q-58 0 -112 -51.5t-87 -134.5t-33 -174q0 -75 24 -114.5t69 -39.5q54 0 95.5 57t66.5 166 l118 -1l-73 -336q-32 -149 -90.5 -219t-151.5 -70q-73 0 -117.5 37.5z" glyph-name="G" horiz-adv-x="578" unicode="G"/>
<glyph d="M245 680q-67 -28 -103.5 -84t-36.5 -135q0 -37 7 -51.5t7 -16.5q-54 0 -80.5 22.5t-26.5 74.5q0 64 52.5 124.5t134.5 98t164 37.5q14 0 40 -2l-64 -298h147l64 298h144l-159 -748h-144l80 376h-147l-80 -376h-144z" glyph-name="H" horiz-adv-x="665" unicode="H"/>
<glyph d="M239 679q-67 -27 -103.5 -82.5t-36.5 -135.5q0 -37 7 -51.5t7 -16.5q-54 0 -80.5 22.5t-26.5 74.5q0 64 52.5 124.5t134.5 98t164 37.5q14 0 40 -2l-159 -748h-144z" glyph-name="I" horiz-adv-x="375" unicode="I"/>
<glyph d="M55.5 -168.5q-38.5 38.5 -38.5 102.5q0 54 33 94t89 40q43 0 70.5 -12.5t27.5 -54.5q0 -18 -6 -40q-18 15 -31 20.5t-29 5.5q-33 0 -51.5 -22t-18.5 -52q0 -35 21 -52.5t47 -17.5q24 0 40.5 9.5t29.5 36t25 77.5l157 714q-67 -27 -104 -83t-37 -136q0 -37 7 -51.5 t7 -16.5q-54 0 -80.5 22.5t-26.5 74.5q0 64 52.5 124.5t134.5 98t164 37.5h40l-150 -710q-26 -123 -86 -185t-177 -62q-71 0 -109.5 38.5z" glyph-name="J" horiz-adv-x="536" unicode="J"/>
<glyph d="M358 50q0 22 6.5 50.5t18.5 73.5q14 47 21 80t7 59q0 68 -60 68q-17 0 -33 -4l-80 -377h-144l145 680q-67 -28 -103.5 -84t-36.5 -135q0 -37 7 -51.5t7 -16.5q-54 0 -80.5 22.5t-26.5 74.5q0 64 52.5 124.5t134.5 98t164 37.5q14 0 40 -2l-65 -306l103 138 q123 166 124 165h105l-278 -320l35 1q68 0 96 -28.5t28 -78.5q0 -29 -7 -61.5t-20 -80.5q-8 -31 -15 -61t-7 -50q0 -23 10.5 -41t28.5 -25q-61 -17 -99 -17q-78 0 -78 67z" glyph-name="K" horiz-adv-x="601" unicode="K"/>
<glyph d="M470.5 -224.5q-43.5 25.5 -110.5 78.5q-50 40 -85.5 64.5t-77 41.5t-84.5 17q-15 0 -23 -1l149 693q-67 -27 -103.5 -82.5t-36.5 -135.5q0 -37 7 -51.5t7 -16.5q-54 0 -80.5 22.5t-26.5 74.5q0 64 52.5 124.5t134.5 98t164 37.5q14 0 40 -2l-154 -718q28 -7 57.5 -20.5 t71.5 -36.5q65 -35 111 -53.5t96 -18.5q45 0 84 16q-8 -73 -35.5 -115t-68.5 -42q-45 0 -88.5 25.5z" glyph-name="L" horiz-adv-x="379" unicode="L"/>
<glyph d="M321 687q-76 -25 -117.5 -82.5t-41.5 -142.5q0 -38 7 -52t7 -17q-107 0 -107 91q0 62 47.5 124.5t122 102t148.5 39.5q37 0 76 -14l-23 -527l220 527h144l-105 -736h-144l64 449l-188 -449h-137l20 451l-167 -451h-80z" glyph-name="M" horiz-adv-x="787" unicode="M"/>
<glyph d="M243 685q-68 -24 -103.5 -75.5t-35.5 -124.5q0 -32 7 -58.5t20 -43.5q-64 0 -94.5 26.5t-30.5 81.5q0 70 41 130.5t111 96.5t152 36q23 0 40 -3t39 -11l120 -535l112 543h97l-163 -748h-138l-116 496l-114 -496h-95z" glyph-name="N" horiz-adv-x="668" unicode="N"/>
<glyph d="M155.5 42q-47.5 48 -47.5 153q0 89 32 200t93.5 190t145.5 79q30 0 52 -8q-44 -26 -84.5 -107t-65.5 -181t-25 -177q0 -54 14 -85t44 -31q49 0 97.5 70.5t80 177.5t31.5 206q0 62 -10.5 99.5t-38.5 56.5t-79 19q-77 0 -143 -31.5t-105.5 -90t-39.5 -135.5q0 -27 5 -39.5 t5 -14.5q-50 0 -75.5 20t-25.5 64q0 69 56.5 132t150 102t196.5 39q125 0 181 -68t56 -188q0 -107 -40 -223t-123.5 -196.5t-205.5 -80.5q-84 0 -131.5 48z" glyph-name="O" horiz-adv-x="665" unicode="O"/>
<glyph d="M230 636l148 20l-71 -334q48 4 88.5 42t63.5 94t23 110q0 60 -31 98t-93 38q-122 0 -190.5 -64t-68.5 -179q0 -37 7 -51.5t7 -16.5q-54 0 -80.5 22.5t-26.5 74.5q0 64 52.5 124.5t134.5 98t164 37.5q79 0 132 -27t78.5 -71.5t25.5 -98.5q0 -65 -35.5 -127t-101.5 -101.5 t-152 -39.5h-5l-61 -285h-144z" glyph-name="P" horiz-adv-x="573" unicode="P"/>
<glyph d="M443 -96.5q-25 16.5 -37.5 41t-25.5 63.5q-45 -14 -93 -14q-84 0 -131.5 48t-47.5 153q0 89 32 200t93.5 190t145.5 79q30 0 52 -8q-44 -26 -84.5 -107t-65.5 -181t-25 -177v-18q0 -17 2 -25q36 9 62 9q45 0 80 -27q51 66 87 179.5t36 219.5q0 62 -10.5 99.5t-38.5 56.5 t-79 19q-77 0 -143 -31.5t-105.5 -90t-39.5 -135.5q0 -27 5 -39.5t5 -14.5q-50 0 -75.5 20t-25.5 64q0 69 56.5 132t150 102t196.5 39q125 0 181 -68t56 -188q0 -74 -21 -158.5t-64 -160.5t-106 -123q26 -39 54 -60t71 -21q6 0 22 2q-19 -49 -43.5 -67.5t-59.5 -18.5 q-41 0 -66 16.5zM352 86q-20 34 -57 34q-16 0 -29 -4q14 -41 48 -41q22 0 38 11z" glyph-name="Q" horiz-adv-x="665" unicode="Q"/>
<glyph d="M358 50q0 22 6.5 50.5t18.5 73.5q14 47 21 80t7 59q0 68 -60 68q-16 0 -33 -4l-80 -377h-144l136 636l148 20l-49 -231h8q39 0 72 27t51.5 67.5t18.5 79.5q0 46 -27.5 75.5t-82.5 29.5q-81 0 -142 -29t-94.5 -84t-33.5 -130q0 -37 7 -51.5t7 -16.5q-54 0 -80.5 22.5 t-26.5 74.5q0 64 52.5 124.5t134.5 98t164 37.5q75 0 126 -22t76 -58.5t25 -79.5q0 -47 -29 -94t-79 -77q38 -11 53.5 -36.5t15.5 -63.5q0 -29 -7 -61.5t-20 -80.5q-8 -31 -15 -61t-7 -50q0 -23 10.5 -41t28.5 -25q-61 -17 -99 -17q-78 0 -78 67z" glyph-name="R" horiz-adv-x="601" unicode="R"/>
<glyph d="M134 4q-48 22 -74 61.5t-26 91.5q0 44 18.5 80t50 57t69.5 21q35 0 59 -17.5t30 -48.5q-52 0 -83 -27.5t-31 -74.5q0 -43 26 -69t69 -26q53 0 87.5 35.5t34.5 89.5q0 47 -26 89t-78 102q-54 62 -81.5 106.5t-27.5 97.5q0 52 29 93.5t80 65.5t115 24q81 0 129.5 -38 t48.5 -102q0 -42 -21 -68t-55 -26q-38 0 -61 31q19 14 30 37t11 48q0 32 -19 51t-52 19q-40 0 -65.5 -28.5t-25.5 -72.5q0 -40 23 -74.5t72 -88.5q40 -43 64.5 -74t42 -71.5t17.5 -87.5q0 -64 -35.5 -116t-97 -82t-136.5 -30q-63 0 -111 22z" glyph-name="S" horiz-adv-x="570" unicode="S"/>
<glyph d="M299 662h-12q-89 0 -138.5 -44.5t-49.5 -157.5q0 -37 7 -51.5t7 -16.5q-54 0 -80.5 22.5t-26.5 74.5q0 71 35 129.5t111.5 94.5t194.5 36q66 0 142 -12q64 -11 114 -11q64 0 116 21q-2 -65 -33 -96t-92 -31q-32 0 -64 5t-91 17l-138 -642h-144z" glyph-name="T" horiz-adv-x="481" unicode="T"/>
<glyph d="M205.5 41.5q-50.5 48.5 -50.5 143.5q0 47 14 105l102 406q-86 -23 -134 -81.5t-48 -128.5q0 -49 26 -95q-57 0 -88.5 28t-31.5 79q0 65 52.5 124.5t139.5 95.5t184 36q34 0 56 -5l-122 -462q-17 -63 -17 -108q0 -95 78 -95q112 0 155 206l100 462h141l-97 -462 q-32 -147 -110.5 -222t-199.5 -75q-99 0 -149.5 48.5z" glyph-name="U" horiz-adv-x="716" unicode="U"/>
<glyph d="M248 683q-71 -27 -110 -83.5t-39 -138.5q0 -37 7 -51.5t7 -16.5q-54 0 -80.5 22.5t-26.5 74.5q0 64 52.5 124.5t134.5 98t164 37.5q14 0 40 -2l9 -615l210 612h70l-278 -745h-144z" glyph-name="V" horiz-adv-x="615" unicode="V"/>
<glyph d="M248 683q-71 -27 -110 -83.5t-39 -138.5q0 -37 7 -51.5t7 -16.5q-54 0 -80.5 22.5t-26.5 74.5q0 64 52.5 124.5t134.5 98t164 37.5q14 0 40 -2l9 -615l210 612h127l9 -612l210 612h70l-278 -745h-144l-12 509l-190 -509h-144z" glyph-name="W" horiz-adv-x="962" unicode="W"/>
<glyph d="M322 332l-74 351q-71 -27 -110 -83.5t-39 -138.5q0 -37 7 -51.5t7 -16.5q-54 0 -80.5 22.5t-26.5 74.5q0 64 52.5 124.5t134.5 98t164 37.5q14 0 40 -2l43 -208l116 205h70l-168 -291l94 -454h-159l-53 250l-145 -250h-61z" glyph-name="X" horiz-adv-x="620" unicode="X"/>
<glyph d="M344 308l-96 375q-71 -27 -110 -83.5t-39 -138.5q0 -37 7 -51.5t7 -16.5q-54 0 -80.5 22.5t-26.5 74.5q0 64 52.5 124.5t134.5 98t164 37.5q14 0 40 -2l87 -358l148 355h66l-194 -437l-66 -308h-160z" glyph-name="Y" horiz-adv-x="620" unicode="Y"/>
<glyph d="M361 696q-21 0 -34 1l-56 1q-92 0 -92 -22q6 0 11.5 -8t5.5 -24q0 -30 -18.5 -43.5t-40.5 -13.5q-27 0 -39 17.5t-12 41.5q0 41 33 72.5t90 31.5h343l-345 -685q28 0 43 -1l53 -1q42 0 68.5 4.5t35.5 17.5q-7 0 -12.5 7.5t-5.5 23.5q0 30 18 44t42 14q26 0 38.5 -17 t12.5 -41q0 -26 -16 -53t-45.5 -45t-66.5 -18h-361z" glyph-name="Z" horiz-adv-x="542" unicode="Z"/>
<glyph d="M203 752h213l-11 -57h-111l-187 -878h111l-12 -57h-213z" glyph-name="bracketleft" horiz-adv-x="400" unicode="["/>
<glyph d="M42 750h72l212 -1000h-72z" glyph-name="backslash" horiz-adv-x="362" unicode="\"/>
<glyph d="M-48 -183h111l187 878h-111l11 57h214l-210 -992h-214z" glyph-name="bracketright" horiz-adv-x="400" unicode="]"/>
<glyph d="M262 750h21l60 -189h-32l-60 80l-157 -80h-44z" glyph-name="asciicircum" horiz-adv-x="421" unicode="^"/>
<glyph d="M54 79h350l-17 -79h-351z" glyph-name="underscore" horiz-adv-x="444" unicode="_"/>
<glyph d="M24 750h105l29 -189h-55z" glyph-name="grave" horiz-adv-x="201" unicode="`"/>
<glyph d="M25 33q-38 39 -38 122q0 74 29.5 155.5t88 138t139.5 56.5q41 0 61 -14t20 -37v-7l11 53h144l-72 -340q-4 -15 -4 -32q0 -43 41 -43q28 0 48.5 26t32.5 68h42q-37 -108 -91.5 -146.5t-109.5 -38.5q-42 0 -67.5 23.5t-30.5 68.5q-29 -41 -64.5 -66.5t-84.5 -25.5 q-57 0 -95 39zM234.5 114.5q24.5 23.5 33.5 64.5l48 226q0 13 -10 25.5t-31 12.5q-40 0 -72 -46.5t-50 -112t-18 -115.5t14.5 -64t35.5 -14q25 0 49.5 23.5z" glyph-name="a" horiz-adv-x="526" unicode="a"/>
<glyph d="M29 27.5q-36 33.5 -36 94.5q0 30 7 57l107 501l148 20l-48 -225q28 17 46 22.5t36 5.5q118 0 118 -171q0 -69 -26.5 -147.5t-88 -134.5t-159.5 -56q-68 0 -104 33.5zM247 129.5q27 38.5 43 96t16 110.5q0 40 -14 68t-39 28q-15 0 -33.5 -4.5t-25.5 -13.5l-55 -254 q-3 -12 -3 -23q0 -46 53 -46q31 0 58 38.5z" glyph-name="b" horiz-adv-x="444" unicode="b"/>
<glyph d="M28 32.5q-41 38.5 -41 120.5q0 69 27.5 152t88 143.5t153.5 60.5q60 0 85.5 -26t25.5 -66q0 -35 -15 -54t-38 -19q-17 0 -35 12q12 33 12 59q0 19 -7 30t-21 11q-30 0 -60 -49t-49 -119t-19 -126q0 -49 17 -66.5t55 -17.5q54 0 92.5 25t84.5 76h34q-111 -185 -275 -185 q-74 0 -115 38.5z" glyph-name="c" horiz-adv-x="384" unicode="c"/>
<glyph d="M25 33q-38 39 -38 122q0 74 29.5 155.5t88 138t139.5 56.5q41 0 61 -14t20 -37v-4l49 230l148 20l-115 -540q-4 -15 -4 -32q0 -20 9.5 -28.5t31.5 -8.5q28 0 48.5 24t32.5 64h42q-61 -179 -201 -179q-41 0 -66.5 22t-31.5 64q-26 -40 -62.5 -66t-85.5 -26q-57 0 -95 39z M233.5 113q24.5 22 33.5 61v5l49 229q-9 35 -41 35q-40 0 -72 -46.5t-50 -112t-18 -115.5t14.5 -64t35.5 -14q24 0 48.5 22z" glyph-name="d" horiz-adv-x="525" unicode="d"/>
<glyph d="M28 32.5q-41 38.5 -41 120.5q0 69 27 152t88 143.5t155 60.5q110 0 110 -96q0 -56 -32 -103t-85 -75.5t-113 -32.5q-2 -30 -2 -40q0 -49 17 -66.5t55 -17.5q54 0 92.5 25t84.5 76h34q-111 -185 -275 -185q-74 0 -115 38.5zM215.5 276q33.5 24 54 61t20.5 78t-25 41 q-36 0 -70.5 -63t-49.5 -143q37 2 70.5 26z" glyph-name="e" horiz-adv-x="384" unicode="e"/>
<glyph d="M-172.5 -219.5q-35.5 30.5 -35.5 77.5q0 43 22 71t57 44.5t93 34.5l121 571q20 96 70.5 133t111.5 37q47 0 82.5 -30.5t35.5 -77.5q0 -23 -3 -41h-47q2 22 2 27q0 16 -11 25t-27 9q-21 0 -41 -18.5t-29 -63.5l-17 -79h73l-7 -40h-74l-115 -540q-20 -97 -69 -133.5 t-110 -36.5q-47 0 -82.5 30.5zM-56 -83l13 58q-53 -18 -81.5 -41.5t-28.5 -61.5q0 -12 12 -22.5t28 -10.5q40 0 57 78z" glyph-name="f" horiz-adv-x="267" unicode="f"/>
<glyph d="M97 -225q-32 25 -32 72q0 57 46 91.5t117 57.5l12 53q-51 -55 -120 -55q-57 0 -95 39t-38 122q0 74 29.5 155.5t88 138t139.5 56.5q41 0 61 -14t20 -37v-6l11 52h144l-99 -464q48 16 77 48t49 95h42q-27 -89 -73 -130.5t-104 -56.5l-15 -72q-20 -97 -69 -133.5 t-111 -36.5q-48 0 -80 25zM232 112q24 21 33 57l51 237q0 12 -10 24.5t-31 12.5q-40 0 -72 -46.5t-50 -112t-18 -115.5t14.5 -64t35.5 -14q23 0 47 21zM187 -149q16 23 25 66l6 29q-98 -36 -98 -85q0 -13 9 -23t25 -10q17 0 33 23z" glyph-name="g" horiz-adv-x="507" unicode="g"/>
<glyph d="M271.5 26.5q-28.5 32.5 -28.5 80.5q0 21 5 47.5t10.5 51.5t7.5 32q8 35 15 69t7 55q0 51 -36 51q-26 0 -46 -25.5t-32 -66.5l-68 -321h-144l145 680l148 20l-54 -252q50 56 117 56q51 0 81 -28t30 -85q0 -29 -7 -64.5t-20 -86.5q-8 -31 -14.5 -60.5t-6.5 -46.5 q0 -20 9 -31t31 -11q30 0 48 21.5t36 66.5h42q-37 -110 -85.5 -147.5t-100.5 -37.5q-61 0 -89.5 32.5z" glyph-name="h" unicode="h"/>
<glyph d="M111 577q-23 23 -23 56t23 56.5t56 23.5t56.5 -23.5t23.5 -56.5t-23.5 -56t-56.5 -23t-56 23zM21.5 24q-29.5 30 -29.5 90q0 25 8 65l68 321h144l-72 -340q-4 -15 -4 -32q0 -20 9.5 -28.5t31.5 -8.5q29 0 54 24.5t36 63.5h42q-37 -108 -95 -146.5t-115 -38.5 q-48 0 -77.5 30z" glyph-name="i" horiz-adv-x="267" unicode="i"/>
<glyph d="M103 578q-23 23 -23 56t23 56.5t56 23.5t56.5 -23.5t23.5 -56.5t-23.5 -56t-56.5 -23t-56 23zM-170 -225q-32 25 -32 72q0 97 164 149l107 504h144l-99 -464q48 16 77 48t49 95h42q-27 -89 -73 -130.5t-104 -56.5l-15 -72q-20 -97 -69 -133.5t-111 -36.5q-48 0 -80 25z M-80 -149q16 23 25 66l6 29q-98 -36 -98 -85q0 -13 9 -23t25 -10q17 0 33 23z" glyph-name="j" horiz-adv-x="240" unicode="j"/>
<glyph d="M282 23.5q-32 29.5 -32 84.5q0 24 6 52l8 39q4 17 4 37q0 48 -36 48q-16 0 -33.5 -9t-40.5 -28l-52 -247h-144l145 680l148 20l-75 -352l193 152h99l-200 -139q15 4 33 4q54 0 82 -33t28 -84q0 -21 -4 -38l-11 -50q-5 -18 -5 -32q0 -37 39 -37q30 0 48 21.5t36 66.5h42 q-62 -185 -184 -185q-62 0 -94 29.5z" glyph-name="k" horiz-adv-x="518" unicode="k"/>
<glyph d="M21.5 24q-29.5 30 -29.5 90q0 25 8 65l107 501l148 20l-115 -540q-4 -15 -4 -32q0 -20 9.5 -28.5t31.5 -8.5q29 0 54 24.5t36 63.5h42q-37 -108 -95 -146.5t-115 -38.5q-48 0 -77.5 30z" glyph-name="l" horiz-adv-x="267" unicode="l"/>
<glyph d="M518.5 26.5q-28.5 32.5 -28.5 80.5q0 21 5 47.5t10.5 51.5t7.5 32q8 35 15 69t7 55q0 51 -36 51q-26 0 -46 -25.5t-32 -66.5l-68 -321h-144l73 345q3 12 3 25q0 44 -30 44q-28 0 -48.5 -25.5t-32.5 -67.5l-68 -321h-144l106 500h144l-11 -52q51 57 122 57q88 0 103 -86 q55 85 139 85q51 0 81 -28t30 -85q0 -29 -7 -64.5t-20 -86.5q-8 -31 -14.5 -60.5t-6.5 -46.5q0 -20 9 -31t31 -11q30 0 48 21.5t36 66.5h42q-37 -110 -85.5 -147.5t-100.5 -37.5q-61 0 -89.5 32.5z" glyph-name="m" horiz-adv-x="752" unicode="m"/>
<glyph d="M271.5 26.5q-28.5 32.5 -28.5 80.5q0 21 5 47.5t10.5 51.5t7.5 32q8 35 15 69t7 55q0 51 -36 51q-26 0 -46 -25.5t-32 -66.5l-68 -321h-144l106 500h144l-11 -52q50 56 117 56q51 0 81 -28t30 -85q0 -29 -7 -64.5t-20 -86.5q-8 -31 -14.5 -60.5t-6.5 -46.5q0 -20 9 -31 t31 -11q30 0 48 21.5t36 66.5h42q-37 -110 -85.5 -147.5t-100.5 -37.5q-61 0 -89.5 32.5z" glyph-name="n" unicode="n"/>
<glyph d="M29 34q-43 38 -43 120q0 68 28 151t90 143.5t156 60.5q128 0 128 -160v-1q3 -1 11 -1q33 0 76 17.5t78 42.5l9 -27q-29 -31 -75.5 -52.5t-101.5 -30.5q-8 -91 -41 -159t-85 -105t-113 -37q-74 0 -117 38zM234 113.5q24 27.5 42 75t26 105.5q-27 6 -27 42q0 41 31 54 q-2 33 -10 45.5t-28 12.5q-33 0 -64 -48t-50 -115t-19 -118q0 -48 11 -64.5t40 -16.5q24 0 48 27.5z" glyph-name="o" horiz-adv-x="439" unicode="o"/>
<glyph d="M76 537h144l-16 -75q50 43 117 43q56 0 89 -37t33 -121q0 -79 -23 -159.5t-78 -137t-145 -56.5q-64 0 -85 36l-52 -244l-151 -36zM245.5 126q31.5 45 46 107.5t14.5 116.5q0 83 -50 83q-18 0 -36.5 -13t-32.5 -36l-59 -280q8 -23 38 -23q48 0 79.5 45z" glyph-name="p" horiz-adv-x="468" unicode="p"/>
<glyph d="M239 49q-51 -55 -119 -55q-57 0 -95 39t-38 122q0 74 29.5 155.5t88 138t139.5 56.5q41 0 61 -14t20 -37v-2l10 48h144l-152 -714l-151 -36zM229.5 110q22.5 19 33.5 52l53 247q-8 34 -41 34q-40 0 -72 -46.5t-50 -112t-18 -115.5t14.5 -64t35.5 -14q22 0 44.5 19z" glyph-name="q" horiz-adv-x="486" unicode="q"/>
<glyph d="M68 500h144l-13 -62q34 30 61.5 46t59.5 16t50.5 -22t18.5 -53q0 -29 -19 -51t-53 -22q-22 0 -29.5 10.5t-11.5 30.5q-3 13 -6 19t-11 6q-21 0 -35.5 -8.5t-37.5 -29.5l-80 -380h-144z" glyph-name="r" horiz-adv-x="376" unicode="r"/>
<glyph d="M33 12.5q-33 18.5 -49 48t-16 61.5q0 33 15.5 57.5t37.5 35.5q39 70 68 141.5t55 154.5l148 20q5 -128 17 -277q5 -60 5 -87q0 -23 -4 -38q47 27 72 50h42q-64 -74 -153 -125q-29 -31 -71.5 -45.5t-85.5 -14.5q-48 0 -81 18.5zM144 95q25 22 25 71q0 30 -6 84 q-10 114 -13 153q-24 -79 -81 -189q23 -12 23 -35q0 -19 -12.5 -34t-31.5 -15q-21 0 -27 13q0 -36 14.5 -53t46.5 -17q37 0 62 22z" glyph-name="s" horiz-adv-x="382" unicode="s"/>
<glyph d="M21.5 24q-29.5 30 -29.5 90q0 25 8 65l60 281h-33l8 40h33l30 138l148 20l-34 -158h60l-8 -40h-60l-64 -300q-4 -15 -4 -32q0 -20 9.5 -28.5t31.5 -8.5q29 0 54 24.5t36 63.5h42q-37 -108 -95 -146.5t-115 -38.5q-48 0 -77.5 30z" glyph-name="t" horiz-adv-x="267" unicode="t"/>
<glyph d="M21.5 24q-29.5 30 -29.5 90q0 25 8 65l68 321h144l-72 -340q-3 -15 -3 -28q0 -41 30 -41q28 0 48 23.5t32 64.5l68 321h144l-72 -340q-4 -15 -4 -32q0 -20 9.5 -28.5t31.5 -8.5q28 0 48.5 24t32.5 64h42q-37 -108 -91.5 -146.5t-109.5 -38.5q-43 0 -68.5 24t-30.5 71 q-34 -55 -71.5 -75t-76.5 -20q-48 0 -77.5 30z" glyph-name="u" unicode="u"/>
<glyph d="M23.5 23.5q-32.5 29.5 -32.5 88.5q0 24 5 48l72 340h144l-72 -340q-5 -25 -5 -36q0 -33 34 -33q46 0 85.5 58t63.5 138t24 138q-2 -5 -13 -7.5t-19 -2.5q-17 0 -26.5 16t-9.5 35q0 24 15.5 39t46.5 15q33 0 48 -24.5t15 -62.5q0 -90 -31 -192.5t-95 -174.5t-159 -72 q-58 0 -90.5 29.5z" glyph-name="v" horiz-adv-x="414" unicode="v"/>
<glyph d="M21.5 24q-29.5 30 -29.5 90q0 25 8 65l68 321h144l-72 -340q-3 -12 -3 -25q0 -44 30 -44q28 0 48 23.5t32 64.5l68 321h144l-72 -340q-5 -25 -5 -36q0 -33 34 -33q46 0 85.5 58t63.5 138t24 138q-2 -5 -13 -7.5t-19 -2.5q-17 0 -26.5 16t-9.5 35q0 24 15.5 39t46.5 15 q33 0 48 -24.5t15 -62.5q0 -90 -31 -192.5t-95 -174.5t-159 -72q-49 0 -80 21t-40 63q-56 -84 -142 -84q-48 0 -77.5 30z" glyph-name="w" horiz-adv-x="661" unicode="w"/>
<glyph d="M283.5 36q-30.5 42 -45.5 132l-138 -168h-72l202 228l-16 112q-8 49 -16.5 66t-21.5 17q-20 0 -45 -27.5t-48.5 -83t-40.5 -133.5h-42q29 136 86.5 231t149.5 95q54 0 78.5 -35.5t29.5 -83.5l9 -76q43 48 64 82.5t23 61.5q-14 -2 -17 -2q-25 0 -36 15.5t-11 40.5t19.5 37 t48.5 12q26 0 41 -27.5t15 -63.5q0 -44 -30 -88.5t-109 -129.5l9 -70q6 -48 20.5 -67.5t41.5 -19.5q29 0 54 24.5t36 63.5h42q-36 -104 -92 -144.5t-112 -40.5q-46 0 -76.5 42z" glyph-name="x" horiz-adv-x="522" unicode="x"/>
<glyph d="M76 -225q-32 25 -32 72q0 57 46 91.5t117 57.5l12 54q-29 -32 -59 -44t-61 -12q-48 0 -77.5 30t-29.5 90q0 25 8 65l68 321h144l-72 -340q-3 -12 -3 -25q0 -44 30 -44q26 0 46 22.5t32 59.5l70 327h144l-99 -464q48 16 77 48t49 95h42q-27 -89 -73 -130.5t-104 -56.5 l-15 -72q-20 -97 -69 -133.5t-111 -36.5q-48 0 -80 25zM166 -149q16 23 25 66l6 29q-98 -36 -98 -85q0 -13 9 -23t25 -10q17 0 33 23z" glyph-name="y" horiz-adv-x="486" unicode="y"/>
<glyph d="M255 446h-56q-28 0 -41.5 -3t-13.5 -13q0 -2 5.5 -4.5t5.5 -17.5q0 -26 -16 -39.5t-38 -13.5q-19 0 -32.5 11.5t-13.5 32.5t14.5 45t41 40t60.5 16h257l-245 -423q6 0 22 -2q34 -4 54 -4q43 0 47 20q-9 1 -14 6.5t-5 14.5q0 16 15 29.5t41 13.5q22 0 33 -13t11 -35 q0 -24 -15 -49t-43 -41.5t-64 -16.5h-265z" glyph-name="z" horiz-adv-x="428" unicode="z"/>
<glyph d="M85 -218q-39 32 -39 87q0 29 9 67t27 97q18 61 27 97t9 64q0 20 -9 28t-32 8h-32l11 51h31q35 0 51 27.5t18 93.5q6 137 25.5 211.5t60.5 106.5t115 32h43l-8 -50q-51 0 -73.5 -20.5t-34 -83.5t-24.5 -217q-4 -51 -25 -76.5t-74 -48.5q31 -14 43 -31.5t12 -46.5 q0 -22 -5.5 -50t-18.5 -78q-14 -52 -21 -89t-7 -68q0 -43 16.5 -68.5t47.5 -29.5l-10 -45h-29q-65 0 -104 32z" glyph-name="braceleft" horiz-adv-x="352" unicode="{"/>
<glyph d="M219 751h93v-1001h-93v1001z" glyph-name="bar" horiz-adv-x="532" unicode="|"/>
<glyph d="M-56 -200q50 0 72.5 20.5t34.5 84t24 216.5q4 51 25 76.5t75 48.5q-31 14 -43.5 31.5t-12.5 46.5q0 23 5.5 50.5t18.5 77.5q15 57 22 91.5t7 65.5q0 43 -17 68.5t-48 29.5l10 45h29q66 0 104.5 -32t38.5 -87q0 -29 -9 -67t-27 -97q-19 -67 -27 -100t-8 -61q0 -20 9 -28 t32 -8h31l-10 -51h-32q-35 0 -51 -27.5t-18 -93.5q-6 -138 -25.5 -212t-60.5 -106t-115 -32h-43z" glyph-name="braceright" horiz-adv-x="352" unicode="}"/>
<glyph d="M245 574q-21 5 -48 15q-23 8 -40.5 12.5t-35.5 4.5q-37 0 -66 -26l-6 2q24 48 67 73t100 25q25 0 46 -4.5t46 -13.5q43 -15 73 -15q40 0 63 23l6 -1q-5 -23 -29.5 -46.5t-59.5 -38.5t-72 -15q-23 0 -44 5z" glyph-name="asciitilde" horiz-adv-x="431" unicode="~"/>
<glyph glyph-name="uni00A0" horiz-adv-x="217" unicode=" "/>
<glyph d="M97 377q-23 23 -23 56t23 56.5t56 23.5t56.5 -23.5t23.5 -56.5t-23.5 -56t-56.5 -23t-56 23zM82 276h85l-76 -500l-154 -21z" glyph-name="exclamdown" horiz-adv-x="219" unicode="¡"/>
<glyph d="M388.5 581.5q30.5 -25.5 30.5 -68.5q0 -35 -18 -58.5t-45 -23.5q-13 0 -25 6t-20 16q7 12 12 30.5t5 34.5q0 19 -9 28t-28 9l-86 -372q16 -2 24 -2q31 0 56 11.5t48 37.5q8 -20 8 -39q0 -44 -38.5 -70.5t-103.5 -26.5h-14l-28 -121h-50l29 129q-61 17 -94.5 66.5 t-33.5 124.5t32.5 142t88 112t122.5 57l26 114h51l-25 -110q55 -1 85.5 -26.5zM159 203l77 337q-47 -27 -78 -92.5t-31 -142.5q0 -74 32 -102z" glyph-name="cent" horiz-adv-x="384" unicode="¢"/>
<glyph d="M479 164q13 -29 13 -62q0 -49 -38 -78.5t-103 -29.5q-34 0 -92 15q-38 9 -60.5 13t-49.5 4q-53 0 -127 -21l-9 41q24 14 45.5 51t31.5 85l40 187h-96l14 50h93l34 157q19 87 78.5 137t139.5 50q55 0 88.5 -26.5t33.5 -74.5q0 -37 -19.5 -62t-52.5 -25q-16 0 -28 8t-18 19 q8 12 14 31t6 35q0 21 -7.5 31.5t-20.5 10.5q-51 0 -80 -134l-34 -157h142l-14 -50h-139l-31 -145q-7 -33 -23 -55t-45 -38l3 -4q14 5 26 6.5t32 1.5q32 0 76 -11q5 -1 28.5 -6t46.5 -5q30 0 53 12t46 40z" glyph-name="sterling" horiz-adv-x="455" unicode="£"/>
<glyph d="M69 200l56 56q-29 38 -29 89q0 52 29 90l-57 57l38 36l56 -56q41 30 91 30q51 0 89 -29l56 56l36 -36l-55 -55q30 -40 30 -92q0 -50 -30 -91l55 -55l-36 -36l-55 55q-38 -29 -90 -29t-92 30l-56 -56zM324 275q29 29 29 71t-29 71t-71 29t-71 -29t-29 -71t29 -71t71 -29 t71 29z" glyph-name="currency" horiz-adv-x="500" unicode="¤"/>
<glyph d="M183 142h-99l14 50h96l14 65h-99l14 50h96l-112 443h164l88 -361l150 361h66l-196 -443h131l-14 -50h-128l-14 -65h131l-14 -50h-128l-30 -142h-160z" glyph-name="yen" horiz-adv-x="558" unicode="¥"/>
<glyph d="M219 751h93v-450h-93v450zM219 222h93v-472h-93v472z" glyph-name="brokenbar" horiz-adv-x="532" unicode="¦"/>
<glyph d="M58.5 -27q-50.5 27 -50.5 104q0 54 27 88.5t69 34.5q27 0 44.5 -13.5t34.5 -36.5q-45 -4 -63 -21t-18 -55q0 -40 19 -59t63 -19q38 0 59 24t21 73q0 57 -25 94t-73 78q-42 37 -62 64.5t-20 68.5q0 47 28.5 83t75.5 54q-5 25 -5 42q0 56 31 95.5t79.5 58.5t101.5 19 q47 0 88.5 -19t41.5 -76q0 -36 -18 -58.5t-48 -22.5q-22 0 -37 16q17 9 26.5 28.5t9.5 40.5q0 23 -14 38.5t-42 15.5q-40 0 -67 -32t-27 -75q0 -27 11.5 -48.5t28 -37.5t48.5 -42q36 -28 57.5 -50t37 -53t15.5 -72q0 -61 -31 -108t-85 -59v-3q0 -87 -57.5 -137t-159.5 -50 q-64 0 -114.5 27zM403 246q0 33 -14 59.5t-34.5 46t-55.5 47.5q-33 25 -54 44t-36 43q-19 -12 -19 -35q0 -26 18.5 -48t56.5 -56q49 -43 78.5 -78.5t40.5 -85.5q19 23 19 63z" glyph-name="section" horiz-adv-x="542" unicode="§"/>
<glyph d="M73.5 590.5q-17.5 17.5 -17.5 43.5q0 25 17.5 43t43.5 18q25 0 43 -18t18 -43q0 -26 -18 -43.5t-43 -17.5q-26 0 -43.5 17.5zM253.5 590.5q-17.5 17.5 -17.5 43.5q0 25 17.5 43t43.5 18q25 0 43 -18t18 -43q0 -26 -18 -43.5t-43 -17.5q-26 0 -43.5 17.5z" glyph-name="dieresis" horiz-adv-x="392" unicode="¨"/>
<glyph d="M172 110.5q-56 34.5 -88.5 93t-32.5 127.5q0 70 32.5 129t88 93t121.5 34q65 0 120.5 -34t88.5 -92.5t33 -128.5t-33 -129t-88.5 -93t-120.5 -34t-121 34.5zM393.5 146q45.5 28 72 77t26.5 108t-26.5 108t-72 77t-98.5 28q-54 0 -99.5 -28t-72 -77t-26.5 -108t26.5 -108 t72 -77t99.5 -28q53 0 98.5 28zM224.5 203q-33.5 21 -53 56.5t-19.5 76.5q0 42 20 75.5t54 53t74 19.5q47 -2 80.5 -28.5t43.5 -66.5l-47 -18q-6 19 -12.5 30.5t-21.5 21t-41 9.5q-41 0 -68 -23.5t-27 -67.5q0 -45 27.5 -76t67.5 -31q23 0 43.5 12t31.5 33l44 -29 q-21 -32 -53.5 -50t-69.5 -18q-40 0 -73.5 21z" glyph-name="copyright" horiz-adv-x="587" unicode="©"/>
<glyph d="M59.5 487q-16.5 20 -16.5 48q0 82 36.5 143t115.5 61q20 0 39 -14l3 15h83l-42 -184q-1 -4 -2 -9t-1 -9q0 -20 21 -20h6q6 0 9 2q-11 -31 -25.5 -40.5t-34.5 -9.5q-46 0 -58 40q-36 -43 -79 -43q-38 0 -54.5 20zM191 538l4 18l33 143q-11 10 -29 10q-21 0 -39 -24 t-28.5 -61t-10.5 -74q0 -38 34 -38q17 0 36 26z" glyph-name="ordfeminine" horiz-adv-x="345" unicode="ª"/>
<glyph d="M20 238l9 41l307 150l-10 -55l-241 -120l194 -96l-12 -57zM230 238l9 41l307 150l-10 -55l-241 -120l194 -96l-12 -57z" glyph-name="guillemotleft" horiz-adv-x="589" unicode="«"/>
<glyph d="M270 222h-251l18 79h362l-51 -250h-113z" glyph-name="logicalnot" horiz-adv-x="444" unicode="¬"/>
<glyph d="M37 301h200l-17 -79h-201z" glyph-name="uni00AD" horiz-adv-x="290" unicode="­"/>
<glyph d="M155 113.5q-56 34.5 -88.5 93t-32.5 127.5q0 70 32.5 129t88 93t121.5 34q65 0 120.5 -34t88.5 -92.5t33 -128.5t-33 -129t-88.5 -93t-120.5 -34t-121 34.5zM376.5 149q45.5 28 72 77t26.5 108t-26.5 108t-72 77t-98.5 28q-54 0 -99.5 -28t-72 -77t-26.5 -108t26.5 -108 t72 -77t99.5 -28q53 0 98.5 28zM288 315h-66v-123h-46l1 291h94q55 0 87.5 -22t32.5 -62q0 -27 -16 -48t-43 -29l65 -125l-47 -7zM274 353q28 0 49.5 9.5t21.5 34.5q0 24 -22 34.5t-51 10.5h-50v-89h52z" glyph-name="registered" horiz-adv-x="553" unicode="®"/>
<glyph d="M86 665h320l-15 -74h-321z" glyph-name="macron" horiz-adv-x="446" unicode="¯"/>
<glyph d="M57.5 402q-20.5 28 -20.5 86q0 59 19.5 108t56.5 77.5t86 28.5q43 0 62.5 -28.5t19.5 -84.5q0 -45 -18 -95.5t-51.5 -85t-78.5 -34.5q-55 0 -75.5 28zM197.5 468q23.5 57 23.5 136q0 30 -5 46.5t-20 16.5t-33.5 -17.5t-33 -51.5t-18.5 -79q-2 -24 -2 -43q0 -65 27 -65 q38 0 61.5 57z" glyph-name="degree" horiz-adv-x="314" unicode="°"/>
<glyph d="M201 386h-142l18 79h142l30 139h80l-30 -139h146l-17 -79h-147l-31 -144h-80zM40 191h350l-17 -79h-351z" glyph-name="plusminus" horiz-adv-x="479" unicode="±"/>
<glyph d="M177 347q-42 11 -61 11q-28 0 -59 -16h-4q-3 14 -3 26q0 34 20 63.5t61 72.5q47 50 71 87t24 84q0 27 -9 43t-28 16t-31 -13t-12 -32q0 -15 7 -26.5t18 -16.5l1 -3q-9 -8 -20 -13t-21 -5q-19 0 -32 12t-13 33q0 23 14 44.5t41.5 35t64.5 13.5q50 0 81 -24t31 -66 q0 -41 -27.5 -74t-82.5 -79q-37 -30 -58.5 -51.5t-33.5 -44.5q13 4 34 4q16 0 56 -7q23 -5 38 -5q26 0 47 24l3 -1q7 -18 7 -35q0 -29 -21.5 -48t-51.5 -19q-15 0 -51 10z" glyph-name="uni00B2" horiz-adv-x="328" unicode="²"/>
<glyph d="M82 369.5q-32 29.5 -32 75.5q0 35 19 57t49 22q14 0 24 -8t17 -26q-20 -5 -31.5 -20.5t-11.5 -38.5t12 -38t31 -15q29 0 47 26.5t18 68.5t-18 67.5t-50 30.5v4q41 13 65 41t24 64q0 25 -10.5 39.5t-28.5 14.5q-17 0 -28 -13t-11 -33q0 -32 23 -43l1 -3q-24 -19 -43 -19 q-22 0 -35.5 14t-13.5 36q0 37 35 63.5t84 26.5q47 0 77.5 -25.5t30.5 -63.5q0 -34 -25 -60t-67 -38v-4q39 -8 62 -34t23 -63q0 -35 -21.5 -66.5t-57 -50t-76.5 -18.5q-50 0 -82 29.5z" glyph-name="uni00B3" horiz-adv-x="336" unicode="³"/>
<glyph d="M211 750h105l-141 -189h-55z" glyph-name="acute" horiz-adv-x="316" unicode="´"/>
<glyph d="M-3 164l3 15l68 321h144l-72 -340q-3 -12 -3 -25q0 -44 30 -44q28 0 48 23.5t32 64.5l68 321h144l-72 -340q-4 -15 -4 -32q0 -20 9.5 -28.5t31.5 -8.5q28 0 48.5 24t32.5 64h42q-61 -179 -201 -179q-42 0 -67.5 22.5t-30.5 67.5q-56 -90 -143 -90l-27 -130l-151 -36z" glyph-name="uni00B5" unicode="µ"/>
<glyph d="M222 288q-72 14 -111 71.5t-39 131.5q0 64 29 123.5t86 97t135 37.5q82 0 133.5 -40t51.5 -125q0 -29 -8 -72l-127 -593h-94l81 380q-18 -6 -43 -11l-77 -369h-94zM333 339q22 0 35 4l48 227q6 29 6 49q0 43 -23 63l-72 -343h6z" glyph-name="paragraph" horiz-adv-x="542" unicode="¶"/>
<glyph d="M148 199q-28 28 -28 68t28 68.5t68 28.5t68.5 -28.5t28.5 -68.5t-28.5 -68t-68.5 -28t-68 28z" glyph-name="periodcentered" horiz-adv-x="434" unicode="·"/>
<glyph d="M48.5 -214q-26.5 12 -43.5 34l17 27q14 -14 33.5 -22t38.5 -8q22 0 36 11.5t14 29.5q0 16 -11.5 25.5t-30.5 9.5q-25 0 -49 -12l-4 4l57 144l43 -3l-37 -92q34 10 53 10q33 0 52.5 -18t19.5 -48q0 -28 -18 -52t-48.5 -38t-65.5 -14q-30 0 -56.5 12z" glyph-name="cedilla" horiz-adv-x="227" unicode="¸"/>
<glyph d="M115 678q-18 -5 -30 -5q-18 0 -27 8t-9 23q0 7 3 16q78 0 164 43l3 -2l-89 -417h-85z" glyph-name="uni00B9" horiz-adv-x="229" unicode="¹"/>
<glyph d="M63.5 486.5q-21.5 20.5 -21.5 68.5q0 94 43.5 142t108.5 48q22 0 38.5 -6.5t16.5 -17.5t-7 -16.5t-19 -9.5q-7 19 -26 19q-26 0 -43.5 -27.5t-26 -64t-8.5 -62.5q0 -23 10.5 -32t30.5 -9q25 0 40 32.5t19 75.5q-15 5 -15 22q0 14 12.5 27.5t26.5 13.5q11 0 15 -4t4 -15 q12 7 21 17.5t12 14.5l6 -11q-8 -21 -16 -34.5t-23 -22.5q-2 -53 -22.5 -91.5t-49.5 -58t-57 -19.5q-48 0 -69.5 20.5z" glyph-name="ordmasculine" horiz-adv-x="329" unicode="º"/>
<glyph d="M29 158l240 96l-194 120l9 55l246 -150l-11 -54l-304 -124zM251 158l240 96l-194 120l9 55l246 -150l-11 -54l-304 -124z" glyph-name="guillemotright" horiz-adv-x="586" unicode="»"/>
<glyph d="M115 678q-18 -5 -30 -5q-18 0 -27 8t-9 23q0 7 3 16q78 0 164 43l3 -2l-89 -417h-85zM525 752h72l-416 -752h-72zM596 148h-148l-1 4q40 66 58.5 116.5t18.5 95.5q0 20 -8 52q16 3 35 3q25 0 38.5 -16t13.5 -44q0 -35 -23.5 -80t-62.5 -84l1 -3h87l45 210l89 11l-48 -221 h38l-11 -44h-36l-31 -148h-87z" glyph-name="onequarter" horiz-adv-x="749" unicode="¼"/>
<glyph d="M115 678q-18 -5 -30 -5q-18 0 -27 8t-9 23q0 7 3 16q78 0 164 43l3 -2l-89 -417h-85zM525 752h72l-416 -752h-72zM594 4q-42 11 -61 11q-28 0 -59 -16h-4q-3 14 -3 26q0 34 20 63.5t61 72.5q47 50 71 87t24 84q0 27 -9 43t-28 16t-31 -13t-12 -32q0 -15 7 -26.5t18 -16.5 l1 -3q-9 -8 -20 -13t-21 -5q-19 0 -32 12t-13 33q0 23 14 44.5t41.5 35t64.5 13.5q50 0 81 -24t31 -66q0 -41 -27.5 -74t-82.5 -79q-37 -30 -58.5 -51.5t-33.5 -44.5q13 4 34 4q16 0 56 -7q23 -5 38 -5q26 0 47 24l3 -1q7 -18 7 -35q0 -29 -21.5 -48t-51.5 -19q-15 0 -51 10 z" glyph-name="onehalf" horiz-adv-x="745" unicode="½"/>
<glyph d="M82 369.5q-32 29.5 -32 75.5q0 35 19 57t49 22q14 0 24 -8t17 -26q-20 -5 -31.5 -20.5t-11.5 -38.5t12 -38t31 -15q29 0 47 26.5t18 68.5t-18 67.5t-50 30.5v4q41 13 65 41t24 64q0 25 -10.5 39.5t-28.5 14.5q-17 0 -28 -13t-11 -33q0 -32 23 -43l1 -3q-24 -19 -43 -19 q-22 0 -35.5 14t-13.5 36q0 37 35 63.5t84 26.5q47 0 77.5 -25.5t30.5 -63.5q0 -34 -25 -60t-67 -38v-4q39 -8 62 -34t23 -63q0 -35 -21.5 -66.5t-57 -50t-76.5 -18.5q-50 0 -82 29.5zM612 752h72l-416 -752h-72zM683 148h-148l-1 4q40 66 58.5 116.5t18.5 95.5q0 20 -8 52 q16 3 35 3q25 0 38.5 -16t13.5 -44q0 -35 -23.5 -80t-62.5 -84l1 -3h87l45 210l89 11l-48 -221h38l-11 -44h-36l-31 -148h-87z" glyph-name="threequarters" horiz-adv-x="836" unicode="¾"/>
<glyph d="M236 372q-23 23 -23 56t23 56.5t56 23.5t56.5 -23.5t23.5 -56.5t-23.5 -56t-56.5 -23t-56 23zM32.5 -212.5q-45.5 37.5 -45.5 102.5q0 40 17.5 72.5t43.5 56.5t69 58q45 35 71.5 60.5t45 60t18.5 78.5h61q0 -47 -14 -84.5t-34 -64t-53 -63.5q-44 -48 -66 -84.5t-22 -86.5 q0 -43 17.5 -67t49.5 -24q33 0 55 23t22 58q0 26 -13 48t-35 32v4q18 16 38 25t39 9q32 0 51.5 -23.5t19.5 -62.5q0 -46 -27.5 -84t-76 -59.5t-107.5 -21.5q-79 0 -124.5 37.5z" glyph-name="questiondown" horiz-adv-x="439" unicode="¿"/>
<glyph d="M486 1000h105l29 -189h-75zM153 -108q-28 6 -48.5 29t-20.5 71q0 67 40.5 180t106.5 227q-50 -3 -79 -15t-38 -37q4 0 8.5 -10t4.5 -21q0 -18 -16 -28.5t-40 -10.5q-28 0 -45 15t-17 43q0 34 26.5 62t73.5 44.5t104 16.5q21 0 52 -3q82 130 173.5 212.5t174.5 82.5 q48 0 79 -14l-157 -736h-144l77 363q-37 17 -68 25t-66 11q-57 -123 -93.5 -251.5t-36.5 -205.5q0 -38 14 -56q-37 0 -65 6zM535 679q-43 -23 -89.5 -85.5t-90.5 -151.5q72 -14 122 -35z" glyph-name="Agrave" horiz-adv-x="668" unicode="À"/>
<glyph d="M665 1000h105l-121 -189h-75zM153 -108q-28 6 -48.5 29t-20.5 71q0 67 40.5 180t106.5 227q-50 -3 -79 -15t-38 -37q4 0 8.5 -10t4.5 -21q0 -18 -16 -28.5t-40 -10.5q-28 0 -45 15t-17 43q0 34 26.5 62t73.5 44.5t104 16.5q21 0 52 -3q82 130 173.5 212.5t174.5 82.5 q48 0 79 -14l-157 -736h-144l77 363q-37 17 -68 25t-66 11q-57 -123 -93.5 -251.5t-36.5 -205.5q0 -38 14 -56q-37 0 -65 6zM535 679q-43 -23 -89.5 -85.5t-90.5 -151.5q72 -14 122 -35z" glyph-name="Aacute" horiz-adv-x="668" unicode="Á"/>
<glyph d="M683 1000h21l60 -189h-33l-60 80l-156 -80h-44zM153 -108q-28 6 -48.5 29t-20.5 71q0 67 40.5 180t106.5 227q-50 -3 -79 -15t-38 -37q4 0 8.5 -10t4.5 -21q0 -18 -16 -28.5t-40 -10.5q-28 0 -45 15t-17 43q0 34 26.5 62t73.5 44.5t104 16.5q21 0 52 -3 q82 130 173.5 212.5t174.5 82.5q48 0 79 -14l-157 -736h-144l77 363q-37 17 -68 25t-66 11q-57 -123 -93.5 -251.5t-36.5 -205.5q0 -38 14 -56q-37 0 -65 6zM535 679q-43 -23 -89.5 -85.5t-90.5 -151.5q72 -14 122 -35z" glyph-name="Acircumflex" horiz-adv-x="668" unicode="Â"/>
<glyph d="M605 824q-21 5 -48 15q-23 8 -40.5 12.5t-35.5 4.5q-37 0 -66 -26l-6 2q24 48 67 73t100 25q26 0 46.5 -4.5t45.5 -13.5q43 -15 73 -15q40 0 63 23l6 -1q-5 -23 -29.5 -46.5t-59.5 -38.5t-72 -15q-23 0 -44 5zM153 -108q-28 6 -48.5 29t-20.5 71q0 67 40.5 180t106.5 227 q-50 -3 -79 -15t-38 -37q4 0 8.5 -10t4.5 -21q0 -18 -16 -28.5t-40 -10.5q-28 0 -45 15t-17 43q0 34 26.5 62t73.5 44.5t104 16.5q21 0 52 -3q82 130 173.5 212.5t174.5 82.5q48 0 79 -14l-157 -736h-144l77 363q-37 17 -68 25t-66 11q-57 -123 -93.5 -251.5t-36.5 -205.5 q0 -38 14 -56q-37 0 -65 6zM535 679q-43 -23 -89.5 -85.5t-90.5 -151.5q72 -14 122 -35z" glyph-name="Atilde" horiz-adv-x="668" unicode="Ã"/>
<glyph d="M472 840.5q-17 17.5 -17 43.5q0 25 17.5 43t43.5 18q24 0 42 -18t18 -43q0 -26 -18 -43.5t-42 -17.5q-27 0 -44 17.5zM651.5 840.5q-17.5 17.5 -17.5 43.5q0 25 18 43t43 18t43 -18t18 -43q0 -26 -17.5 -43.5t-43.5 -17.5t-43.5 17.5zM153 -108q-28 6 -48.5 29t-20.5 71 q0 67 40.5 180t106.5 227q-50 -3 -79 -15t-38 -37q4 0 8.5 -10t4.5 -21q0 -18 -16 -28.5t-40 -10.5q-28 0 -45 15t-17 43q0 34 26.5 62t73.5 44.5t104 16.5q21 0 52 -3q82 130 173.5 212.5t174.5 82.5q48 0 79 -14l-157 -736h-144l77 363q-37 17 -68 25t-66 11 q-57 -123 -93.5 -251.5t-36.5 -205.5q0 -38 14 -56q-37 0 -65 6zM535 679q-43 -23 -89.5 -85.5t-90.5 -151.5q72 -14 122 -35z" glyph-name="Adieresis" horiz-adv-x="668" unicode="Ä"/>
<glyph d="M548 822q-19 20 -19 50q0 32 22 61.5t63 29.5q35 0 53.5 -21.5t18.5 -55.5q0 -36 -21.5 -60t-65.5 -24q-32 0 -51 20zM637.5 849q11.5 12 11.5 34q0 21 -6 34t-27 13q-24 0 -35.5 -17t-11.5 -39q0 -37 34 -37q23 0 34.5 12zM153 -108q-28 6 -48.5 29t-20.5 71 q0 67 40.5 180t106.5 227q-50 -3 -79 -15t-38 -37q4 0 8.5 -10t4.5 -21q0 -18 -16 -28.5t-40 -10.5q-28 0 -45 15t-17 43q0 34 26.5 62t73.5 44.5t104 16.5q21 0 52 -3q82 130 173.5 212.5t174.5 82.5q48 0 79 -14l-157 -736h-144l77 363q-37 17 -68 25t-66 11 q-57 -123 -93.5 -251.5t-36.5 -205.5q0 -38 14 -56q-37 0 -65 6zM535 679q-43 -23 -89.5 -85.5t-90.5 -151.5q72 -14 122 -35z" glyph-name="Aring" horiz-adv-x="668" unicode="Å"/>
<glyph d="M146.5 -104.5q-26.5 6.5 -44.5 30t-18 73.5q0 64 40.5 175.5t106.5 224.5q-49 -3 -77.5 -14.5t-39.5 -37.5q4 0 8.5 -10t4.5 -21q0 -17 -15 -28t-46 -11q-24 0 -40.5 15.5t-16.5 47.5q0 30 27 56.5t72 42.5t96 16q26 0 59 -3q82 132 174 215.5t175 83.5q30 0 79 -9 q24 -4 50.5 -7.5t50.5 -3.5q61 0 117 19q-2 -6 -11.5 -39t-33.5 -52t-62 -19q-29 0 -52 6.5t-43.5 14.5t-28.5 11l-54 -253h155l-20 -74h-151l-51 -239h224l-21 -106h-369l77 363q-70 31 -135 36q-56 -123 -92.5 -250.5t-36.5 -205.5q0 -37 7 -45.5t7 -10.5q-45 2 -71.5 8.5 zM535 679q-44 -24 -91 -86.5t-91 -151.5q69 -13 124 -34z" glyph-name="AE" horiz-adv-x="764" unicode="Æ"/>
<glyph d="M185 -211q-23 7 -50 21q18 32 40 32q15 0 23.5 -4t19.5 -11q18 -12 31 -12q12 0 21 13t9 29t-9.5 26t-29.5 10q-18 0 -28.5 -3t-23.5 -9l37 103q-107 3 -156.5 60t-49.5 186q0 105 35.5 226t114 207.5t199.5 86.5q75 0 121 -33t46 -101q0 -43 -17 -67.5t-53 -24.5t-57 26 q18 9 32 36t14 56q0 27 -14.5 44t-46.5 17q-53 0 -101 -72.5t-77.5 -182.5t-29.5 -212q0 -76 26 -116t94 -40q59 0 109 26t86 74l23 -10q-33 -83 -105.5 -129t-149.5 -55l-21 -52q34 8 53 8q62 0 62 -50q0 -51 -36 -80.5t-84 -29.5q-34 0 -57 7z" glyph-name="Ccedilla" horiz-adv-x="497" unicode="Ç"/>
<glyph d="M252 1000h105l29 -189h-75zM53.5 32q-46.5 50 -46.5 126q0 54 22.5 108.5t64.5 95.5t98 55q-31 22 -46 53.5t-15 66.5q0 52 28.5 102t79 81.5t111.5 31.5q63 0 103 -33t40 -92q0 -44 -22 -74t-52 -30q-27 0 -47 27q18 6 31 33t13 54q0 29 -16 42.5t-39 13.5 q-29 0 -52.5 -20.5t-36.5 -53t-13 -67.5q0 -48 25 -84.5t76 -49.5q-51 -11 -92 -50t-64 -90.5t-23 -98.5q0 -45 23.5 -73t71.5 -28q50 0 104.5 27.5t80.5 74.5l23 -10q-39 -86 -120 -137t-173 -51q-91 0 -137.5 50z" glyph-name="Egrave" horiz-adv-x="459" unicode="È"/>
<glyph d="M421 1000h105l-121 -189h-75zM53.5 32q-46.5 50 -46.5 126q0 54 22.5 108.5t64.5 95.5t98 55q-31 22 -46 53.5t-15 66.5q0 52 28.5 102t79 81.5t111.5 31.5q63 0 103 -33t40 -92q0 -44 -22 -74t-52 -30q-27 0 -47 27q18 6 31 33t13 54q0 29 -16 42.5t-39 13.5 q-29 0 -52.5 -20.5t-36.5 -53t-13 -67.5q0 -48 25 -84.5t76 -49.5q-51 -11 -92 -50t-64 -90.5t-23 -98.5q0 -45 23.5 -73t71.5 -28q50 0 104.5 27.5t80.5 74.5l23 -10q-39 -86 -120 -137t-173 -51q-91 0 -137.5 50z" glyph-name="Eacute" horiz-adv-x="459" unicode="É"/>
<glyph d="M414 1000h21l60 -189h-32l-60 80l-157 -80h-44zM53.5 32q-46.5 50 -46.5 126q0 54 22.5 108.5t64.5 95.5t98 55q-31 22 -46 53.5t-15 66.5q0 52 28.5 102t79 81.5t111.5 31.5q63 0 103 -33t40 -92q0 -44 -22 -74t-52 -30q-27 0 -47 27q18 6 31 33t13 54q0 29 -16 42.5 t-39 13.5q-29 0 -52.5 -20.5t-36.5 -53t-13 -67.5q0 -48 25 -84.5t76 -49.5q-51 -11 -92 -50t-64 -90.5t-23 -98.5q0 -45 23.5 -73t71.5 -28q50 0 104.5 27.5t80.5 74.5l23 -10q-39 -86 -120 -137t-173 -51q-91 0 -137.5 50z" glyph-name="Ecircumflex" horiz-adv-x="459" unicode="Ê"/>
<glyph d="M255.5 840.5q-17.5 17.5 -17.5 43.5q0 25 17.5 43t43.5 18q25 0 43 -18t18 -43q0 -26 -18 -43.5t-43 -17.5q-26 0 -43.5 17.5zM435.5 840.5q-17.5 17.5 -17.5 43.5q0 25 17.5 43t43.5 18q25 0 43 -18t18 -43q0 -26 -18 -43.5t-43 -17.5q-26 0 -43.5 17.5zM53.5 32 q-46.5 50 -46.5 126q0 54 22.5 108.5t64.5 95.5t98 55q-31 22 -46 53.5t-15 66.5q0 52 28.5 102t79 81.5t111.5 31.5q63 0 103 -33t40 -92q0 -44 -22 -74t-52 -30q-27 0 -47 27q18 6 31 33t13 54q0 29 -16 42.5t-39 13.5q-29 0 -52.5 -20.5t-36.5 -53t-13 -67.5 q0 -48 25 -84.5t76 -49.5q-51 -11 -92 -50t-64 -90.5t-23 -98.5q0 -45 23.5 -73t71.5 -28q50 0 104.5 27.5t80.5 74.5l23 -10q-39 -86 -120 -137t-173 -51q-91 0 -137.5 50z" glyph-name="Edieresis" horiz-adv-x="459" unicode="Ë"/>
<glyph d="M215 1000h105l29 -189h-75zM239 679q-67 -27 -103.5 -82.5t-36.5 -135.5q0 -37 7 -51.5t7 -16.5q-54 0 -80.5 22.5t-26.5 74.5q0 64 52.5 124.5t134.5 98t164 37.5q14 0 40 -2l-159 -748h-144z" glyph-name="Igrave" horiz-adv-x="375" unicode="Ì"/>
<glyph d="M384 1000h105l-120 -189h-76zM239 679q-67 -27 -103.5 -82.5t-36.5 -135.5q0 -37 7 -51.5t7 -16.5q-54 0 -80.5 22.5t-26.5 74.5q0 64 52.5 124.5t134.5 98t164 37.5q14 0 40 -2l-159 -748h-144z" glyph-name="Iacute" horiz-adv-x="375" unicode="Í"/>
<glyph d="M382 1000h21l60 -189h-31l-60 80l-158 -80h-44zM239 679q-67 -27 -103.5 -82.5t-36.5 -135.5q0 -37 7 -51.5t7 -16.5q-54 0 -80.5 22.5t-26.5 74.5q0 64 52.5 124.5t134.5 98t164 37.5q14 0 40 -2l-159 -748h-144z" glyph-name="Icircumflex" horiz-adv-x="375" unicode="Î"/>
<glyph d="M204 840.5q-17 17.5 -17 43.5q0 25 17.5 43t43.5 18q25 0 43 -18t18 -43q0 -26 -18 -43.5t-43 -17.5q-27 0 -44 17.5zM384.5 840.5q-17.5 17.5 -17.5 43.5q0 25 17.5 43t43.5 18q24 0 42.5 -18t18.5 -43q0 -26 -18 -43.5t-43 -17.5q-26 0 -43.5 17.5zM239 679 q-67 -27 -103.5 -82.5t-36.5 -135.5q0 -37 7 -51.5t7 -16.5q-54 0 -80.5 22.5t-26.5 74.5q0 64 52.5 124.5t134.5 98t164 37.5q14 0 40 -2l-159 -748h-144z" glyph-name="Idieresis" horiz-adv-x="375" unicode="Ï"/>
<glyph d="M246 40l-8 -40h-144l74 345h-39l20 74h35l46 217l148 20l-51 -237h79l-20 -74h-75l-53 -250q28 -20 57 -20q56 0 100 66t68 167t24 200q0 68 -11 109.5t-41 64t-86 22.5q-81 0 -142 -29t-94.5 -84t-33.5 -130q0 -37 7 -51.5t7 -16.5q-54 0 -80.5 22.5t-26.5 74.5 q0 64 52.5 124.5t134.5 98t164 37.5q288 0 288 -270q0 -127 -38.5 -241t-102.5 -183t-136 -69q-60 0 -122 53z" glyph-name="Eth" horiz-adv-x="663" unicode="Ð"/>
<glyph d="M504 824q-21 5 -48 15q-23 8 -40.5 12.5t-35.5 4.5q-37 0 -66 -26l-6 2q24 48 67 73t100 25q25 0 46 -4.5t46 -13.5q43 -15 73 -15q40 0 63 23l6 -1q-5 -23 -29.5 -46.5t-59.5 -38.5t-72 -15q-23 0 -44 5zM243 685q-68 -24 -103.5 -75.5t-35.5 -124.5q0 -32 7 -58.5 t20 -43.5q-64 0 -94.5 26.5t-30.5 81.5q0 70 41 130.5t111 96.5t152 36q23 0 40 -3t39 -11l120 -535l112 543h97l-163 -748h-138l-116 496l-114 -496h-95z" glyph-name="Ntilde" horiz-adv-x="686" unicode="Ñ"/>
<glyph d="M302 1000h105l29 -189h-75zM155.5 42q-47.5 48 -47.5 153q0 89 32 200t93.5 190t145.5 79q30 0 52 -8q-44 -26 -84.5 -107t-65.5 -181t-25 -177q0 -54 14 -85t44 -31q49 0 97.5 70.5t80 177.5t31.5 206q0 62 -10.5 99.5t-38.5 56.5t-79 19q-77 0 -143 -31.5t-105.5 -90 t-39.5 -135.5q0 -27 5 -39.5t5 -14.5q-50 0 -75.5 20t-25.5 64q0 69 56.5 132t150 102t196.5 39q125 0 181 -68t56 -188q0 -107 -40 -223t-123.5 -196.5t-205.5 -80.5q-84 0 -131.5 48z" glyph-name="Ograve" horiz-adv-x="665" unicode="Ò"/>
<glyph d="M488 1000h105l-121 -189h-75zM155.5 42q-47.5 48 -47.5 153q0 89 32 200t93.5 190t145.5 79q30 0 52 -8q-44 -26 -84.5 -107t-65.5 -181t-25 -177q0 -54 14 -85t44 -31q49 0 97.5 70.5t80 177.5t31.5 206q0 62 -10.5 99.5t-38.5 56.5t-79 19q-77 0 -143 -31.5t-105.5 -90 t-39.5 -135.5q0 -27 5 -39.5t5 -14.5q-50 0 -75.5 20t-25.5 64q0 69 56.5 132t150 102t196.5 39q125 0 181 -68t56 -188q0 -107 -40 -223t-123.5 -196.5t-205.5 -80.5q-84 0 -131.5 48z" glyph-name="Oacute" horiz-adv-x="665" unicode="Ó"/>
<glyph d="M484 1000h21l60 -189h-32l-60 80l-157 -80h-44zM155.5 42q-47.5 48 -47.5 153q0 89 32 200t93.5 190t145.5 79q30 0 52 -8q-44 -26 -84.5 -107t-65.5 -181t-25 -177q0 -54 14 -85t44 -31q49 0 97.5 70.5t80 177.5t31.5 206q0 62 -10.5 99.5t-38.5 56.5t-79 19 q-77 0 -143 -31.5t-105.5 -90t-39.5 -135.5q0 -27 5 -39.5t5 -14.5q-50 0 -75.5 20t-25.5 64q0 69 56.5 132t150 102t196.5 39q125 0 181 -68t56 -188q0 -107 -40 -223t-123.5 -196.5t-205.5 -80.5q-84 0 -131.5 48z" glyph-name="Ocircumflex" horiz-adv-x="665" unicode="Ô"/>
<glyph d="M470 824q-21 5 -48 15q-23 8 -40.5 12.5t-35.5 4.5q-37 0 -66 -26l-6 2q24 48 67 73t100 25q26 0 46.5 -4.5t45.5 -13.5q43 -15 73 -15q40 0 63 23l6 -1q-5 -23 -29.5 -46.5t-59.5 -38.5t-72 -15q-23 0 -44 5zM155.5 42q-47.5 48 -47.5 153q0 89 32 200t93.5 190 t145.5 79q30 0 52 -8q-44 -26 -84.5 -107t-65.5 -181t-25 -177q0 -54 14 -85t44 -31q49 0 97.5 70.5t80 177.5t31.5 206q0 62 -10.5 99.5t-38.5 56.5t-79 19q-77 0 -143 -31.5t-105.5 -90t-39.5 -135.5q0 -27 5 -39.5t5 -14.5q-50 0 -75.5 20t-25.5 64q0 69 56.5 132 t150 102t196.5 39q125 0 181 -68t56 -188q0 -107 -40 -223t-123.5 -196.5t-205.5 -80.5q-84 0 -131.5 48z" glyph-name="Otilde" horiz-adv-x="665" unicode="Õ"/>
<glyph d="M305.5 840.5q-17.5 17.5 -17.5 43.5q0 25 17.5 43t43.5 18q25 0 43 -18t18 -43q0 -26 -18 -43.5t-43 -17.5q-26 0 -43.5 17.5zM485.5 840.5q-17.5 17.5 -17.5 43.5q0 25 17.5 43t43.5 18q25 0 43 -18t18 -43q0 -26 -18 -43.5t-43 -17.5q-26 0 -43.5 17.5zM155.5 42 q-47.5 48 -47.5 153q0 89 32 200t93.5 190t145.5 79q30 0 52 -8q-44 -26 -84.5 -107t-65.5 -181t-25 -177q0 -54 14 -85t44 -31q49 0 97.5 70.5t80 177.5t31.5 206q0 62 -10.5 99.5t-38.5 56.5t-79 19q-77 0 -143 -31.5t-105.5 -90t-39.5 -135.5q0 -27 5 -39.5t5 -14.5 q-50 0 -75.5 20t-25.5 64q0 69 56.5 132t150 102t196.5 39q125 0 181 -68t56 -188q0 -107 -40 -223t-123.5 -196.5t-205.5 -80.5q-84 0 -131.5 48z" glyph-name="Odieresis" horiz-adv-x="665" unicode="Ö"/>
<glyph d="M43 237l102 102l-103 103l58 57l102 -103l104 104l56 -57l-103 -103l102 -101l-57 -58l-103 101l-101 -101z" glyph-name="multiply" horiz-adv-x="414" unicode="×"/>
<glyph d="M279 -6h-2q-81 0 -127 45.5t-46 143.5q0 83 31 187t90.5 178t139.5 74q25 0 45 -7l9 41q-16 3 -38 3q-75 0 -138.5 -29.5t-101.5 -84.5t-38 -127q0 -25 5 -36.5t5 -13.5q-48 0 -73 18.5t-25 59.5q0 65 54.5 124t144.5 95.5t190 36.5q16 0 24 -1l11 49h52l-12 -56 q153 -37 153 -232q0 -91 -32.5 -191.5t-100.5 -177t-167 -94.5l-15 -70h-52zM425.5 183.5q35.5 66.5 57 150.5t21.5 161q0 54 -8 87t-30 52l-115 -546q39 29 74.5 95.5zM409 610q-41 -27 -78.5 -102.5t-60.5 -167t-23 -161.5q0 -99 48 -109z" glyph-name="Oslash" horiz-adv-x="658" unicode="Ø"/>
<glyph d="M405 1000h105l29 -189h-75zM194.5 33q-44.5 40 -44.5 119q0 58 15.5 133t49.5 207l17 68l33 132q-83 -22 -130 -81.5t-47 -148.5q0 -38 7 -52t7 -17q-53 0 -80 21.5t-27 70.5q0 69 53.5 130t141 98t183.5 37q22 0 48 -5l-44 -161q-55 -202 -73 -279t-18 -124 q0 -45 16 -67.5t53 -22.5q49 0 76.5 20.5t54 93.5t62.5 234l67 309h141l-66 -312q-35 -168 -72 -259.5t-101 -137.5t-174 -46q-104 0 -148.5 40z" glyph-name="Ugrave" horiz-adv-x="716" unicode="Ù"/>
<glyph d="M537 1000h105l-121 -189h-75zM194.5 33q-44.5 40 -44.5 119q0 58 15.5 133t49.5 207l17 68l33 132q-83 -22 -130 -81.5t-47 -148.5q0 -38 7 -52t7 -17q-53 0 -80 21.5t-27 70.5q0 69 53.5 130t141 98t183.5 37q22 0 48 -5l-44 -161q-55 -202 -73 -279t-18 -124 q0 -45 16 -67.5t53 -22.5q49 0 76.5 20.5t54 93.5t62.5 234l67 309h141l-66 -312q-35 -168 -72 -259.5t-101 -137.5t-174 -46q-104 0 -148.5 40z" glyph-name="Uacute" horiz-adv-x="716" unicode="Ú"/>
<glyph d="M570 1000h21l60 -189h-32l-60 80l-157 -80h-44zM194.5 33q-44.5 40 -44.5 119q0 58 15.5 133t49.5 207l17 68l33 132q-83 -22 -130 -81.5t-47 -148.5q0 -38 7 -52t7 -17q-53 0 -80 21.5t-27 70.5q0 69 53.5 130t141 98t183.5 37q22 0 48 -5l-44 -161q-55 -202 -73 -279 t-18 -124q0 -45 16 -67.5t53 -22.5q49 0 76.5 20.5t54 93.5t62.5 234l67 309h141l-66 -312q-35 -168 -72 -259.5t-101 -137.5t-174 -46q-104 0 -148.5 40z" glyph-name="Ucircumflex" horiz-adv-x="716" unicode="Û"/>
<glyph d="M395.5 840.5q-17.5 17.5 -17.5 43.5q0 25 17.5 43t43.5 18q25 0 43 -18t18 -43q0 -26 -18 -43.5t-43 -17.5q-26 0 -43.5 17.5zM575.5 840.5q-17.5 17.5 -17.5 43.5q0 25 17.5 43t43.5 18q25 0 43 -18t18 -43q0 -26 -18 -43.5t-43 -17.5q-26 0 -43.5 17.5zM194.5 33 q-44.5 40 -44.5 119q0 58 15.5 133t49.5 207l17 68l33 132q-83 -22 -130 -81.5t-47 -148.5q0 -38 7 -52t7 -17q-53 0 -80 21.5t-27 70.5q0 69 53.5 130t141 98t183.5 37q22 0 48 -5l-44 -161q-55 -202 -73 -279t-18 -124q0 -45 16 -67.5t53 -22.5q49 0 76.5 20.5t54 93.5 t62.5 234l67 309h141l-66 -312q-35 -168 -72 -259.5t-101 -137.5t-174 -46q-104 0 -148.5 40z" glyph-name="Udieresis" horiz-adv-x="716" unicode="Ü"/>
<glyph d="M583 1000h105l-121 -189h-75zM344 308l-96 375q-71 -27 -110 -83.5t-39 -138.5q0 -37 7 -51.5t7 -16.5q-54 0 -80.5 22.5t-26.5 74.5q0 64 52.5 124.5t134.5 98t164 37.5q14 0 40 -2l87 -358l148 355h66l-194 -437l-66 -308h-160z" glyph-name="Yacute" horiz-adv-x="620" unicode="Ý"/>
<glyph d="M214 562q-56 -29 -85.5 -82.5t-29.5 -128.5q0 -37 7 -51.5t7 -16.5q-54 0 -80.5 22.5t-26.5 74.5q0 48 29.5 94.5t79.5 83.5t110 58l25 114l148 20l-24 -110q108 -6 163.5 -61t55.5 -136q0 -65 -35.5 -127t-101.5 -101.5t-152 -39.5h-29l-37 -175h-144zM297 212 q51 0 93.5 38t67 95.5t24.5 112.5q0 58 -29 96t-88 40l-82 -382h14z" glyph-name="Thorn" horiz-adv-x="583" unicode="Þ"/>
<glyph d="M56 412q30 146 88 217t148 71q59 0 93 -26t34 -71q0 -58 -31.5 -120t-64.5 -103q55 -41 84.5 -97t29.5 -112q0 -49 -22.5 -89t-67 -64t-107.5 -24q-39 0 -59.5 13.5t-20.5 37.5q0 11 5 22.5t14 18.5q8 -11 22.5 -17t32.5 -6q39 0 61 38t22 92q0 50 -19 94.5t-54 63.5 q16 17 37 60t36.5 91.5t15.5 83.5q0 52 -39 52q-18 0 -32 -18.5t-27 -62t-30 -123.5l-139 -648l-151 -36z" glyph-name="germandbls" horiz-adv-x="480" unicode="ß"/>
<glyph d="M216 750h105l29 -189h-75zM25 33q-38 39 -38 122q0 74 29.5 155.5t88 138t139.5 56.5q41 0 61 -14t20 -37v-7l11 53h144l-72 -340q-4 -15 -4 -32q0 -43 41 -43q28 0 48.5 26t32.5 68h42q-37 -108 -91.5 -146.5t-109.5 -38.5q-42 0 -67.5 23.5t-30.5 68.5 q-29 -41 -64.5 -66.5t-84.5 -25.5q-57 0 -95 39zM234.5 114.5q24.5 23.5 33.5 64.5l48 226q0 13 -10 25.5t-31 12.5q-40 0 -72 -46.5t-50 -112t-18 -115.5t14.5 -64t35.5 -14q25 0 49.5 23.5z" glyph-name="agrave" horiz-adv-x="526" unicode="à"/>
<glyph d="M336 750h105l-121 -189h-75zM25 33q-38 39 -38 122q0 74 29.5 155.5t88 138t139.5 56.5q41 0 61 -14t20 -37v-7l11 53h144l-72 -340q-4 -15 -4 -32q0 -43 41 -43q28 0 48.5 26t32.5 68h42q-37 -108 -91.5 -146.5t-109.5 -38.5q-42 0 -67.5 23.5t-30.5 68.5 q-29 -41 -64.5 -66.5t-84.5 -25.5q-57 0 -95 39zM234.5 114.5q24.5 23.5 33.5 64.5l48 226q0 13 -10 25.5t-31 12.5q-40 0 -72 -46.5t-50 -112t-18 -115.5t14.5 -64t35.5 -14q25 0 49.5 23.5z" glyph-name="aacute" horiz-adv-x="526" unicode="á"/>
<glyph d="M368 750h21l60 -189h-32l-60 80l-157 -80h-44zM25 33q-38 39 -38 122q0 74 29.5 155.5t88 138t139.5 56.5q41 0 61 -14t20 -37v-7l11 53h144l-72 -340q-4 -15 -4 -32q0 -43 41 -43q28 0 48.5 26t32.5 68h42q-37 -108 -91.5 -146.5t-109.5 -38.5q-42 0 -67.5 23.5 t-30.5 68.5q-29 -41 -64.5 -66.5t-84.5 -25.5q-57 0 -95 39zM234.5 114.5q24.5 23.5 33.5 64.5l48 226q0 13 -10 25.5t-31 12.5q-40 0 -72 -46.5t-50 -112t-18 -115.5t14.5 -64t35.5 -14q25 0 49.5 23.5z" glyph-name="acircumflex" horiz-adv-x="526" unicode="â"/>
<glyph d="M318 574q-20 5 -48 15q-29 9 -44 13t-33 4q-37 0 -66 -26l-5 2q23 48 66 73t101 25q25 0 45.5 -4.5t45.5 -13.5q23 -8 39 -11.5t35 -3.5q38 0 63 23l5 -1q-4 -23 -28.5 -46.5t-60 -38.5t-72.5 -15q-23 0 -43 5zM25 33q-38 39 -38 122q0 74 29.5 155.5t88 138t139.5 56.5 q41 0 61 -14t20 -37v-7l11 53h144l-72 -340q-4 -15 -4 -32q0 -43 41 -43q28 0 48.5 26t32.5 68h42q-37 -108 -91.5 -146.5t-109.5 -38.5q-42 0 -67.5 23.5t-30.5 68.5q-29 -41 -64.5 -66.5t-84.5 -25.5q-57 0 -95 39zM234.5 114.5q24.5 23.5 33.5 64.5l48 226q0 13 -10 25.5 t-31 12.5q-40 0 -72 -46.5t-50 -112t-18 -115.5t14.5 -64t35.5 -14q25 0 49.5 23.5z" glyph-name="atilde" horiz-adv-x="526" unicode="ã"/>
<glyph d="M197.5 590.5q-17.5 17.5 -17.5 43.5q0 25 17.5 43t43.5 18q25 0 43 -18t18 -43q0 -26 -18 -43.5t-43 -17.5q-26 0 -43.5 17.5zM377.5 590.5q-17.5 17.5 -17.5 43.5q0 25 17.5 43t43.5 18q25 0 43 -18t18 -43q0 -26 -18 -43.5t-43 -17.5q-26 0 -43.5 17.5zM25 33 q-38 39 -38 122q0 74 29.5 155.5t88 138t139.5 56.5q41 0 61 -14t20 -37v-7l11 53h144l-72 -340q-4 -15 -4 -32q0 -43 41 -43q28 0 48.5 26t32.5 68h42q-37 -108 -91.5 -146.5t-109.5 -38.5q-42 0 -67.5 23.5t-30.5 68.5q-29 -41 -64.5 -66.5t-84.5 -25.5q-57 0 -95 39z M234.5 114.5q24.5 23.5 33.5 64.5l48 226q0 13 -10 25.5t-31 12.5q-40 0 -72 -46.5t-50 -112t-18 -115.5t14.5 -64t35.5 -14q25 0 49.5 23.5z" glyph-name="adieresis" horiz-adv-x="526" unicode="ä"/>
<glyph d="M253 572q-19 20 -19 50q0 32 22 61.5t63 29.5q35 0 53.5 -21.5t18.5 -55.5q0 -36 -21.5 -60t-65.5 -24q-32 0 -51 20zM342.5 599q11.5 12 11.5 34q0 21 -6 34t-27 13q-24 0 -35.5 -17t-11.5 -39q0 -37 34 -37q23 0 34.5 12zM25 33q-38 39 -38 122q0 74 29.5 155.5t88 138 t139.5 56.5q41 0 61 -14t20 -37v-7l11 53h144l-72 -340q-4 -15 -4 -32q0 -43 41 -43q28 0 48.5 26t32.5 68h42q-37 -108 -91.5 -146.5t-109.5 -38.5q-42 0 -67.5 23.5t-30.5 68.5q-29 -41 -64.5 -66.5t-84.5 -25.5q-57 0 -95 39zM234.5 114.5q24.5 23.5 33.5 64.5l48 226 q0 13 -10 25.5t-31 12.5q-40 0 -72 -46.5t-50 -112t-18 -115.5t14.5 -64t35.5 -14q25 0 49.5 23.5z" glyph-name="aring" horiz-adv-x="526" unicode="å"/>
<glyph d="M28.5 23q-36.5 29 -36.5 101q0 88 60 127t162 39q36 0 52 -4q21 45 21 88q0 32 -15 51.5t-46 19.5q-42 0 -69 -12t-52 -35l-28 29q35 35 65.5 52t56 21.5t60.5 4.5q80 0 130 -40q59 44 135 44q62 0 85.5 -26.5t23.5 -72.5q0 -54 -32 -100.5t-85 -75t-113 -32.5 q-2 -22 -2 -32q0 -53 15 -72.5t45 -19.5q46 0 77.5 12t53.5 31t58 58h34q-112 -183 -276 -183q-121 0 -147 94q-24 -45 -56 -70.5t-86 -25.5t-90.5 29zM481.5 276q33.5 24 54 60.5t20.5 75.5q0 22 -5 33t-19 11q-37 0 -70.5 -62.5t-51.5 -143.5q38 2 71.5 26zM225 120.5 q19 29.5 34 107.5q-7 1 -17 1q-49 0 -79 -24t-30 -64q0 -29 15 -39.5t31 -10.5q27 0 46 29.5z" glyph-name="ae" horiz-adv-x="650" unicode="æ"/>
<glyph d="M128 -211q-23 7 -50 21q18 32 40 32q15 0 23.5 -4t19.5 -11q18 -12 31 -12q12 0 21 13t9 29t-9.5 26t-29.5 10q-18 0 -28.5 -3t-23.5 -9l41 115q-18 -2 -29 -2q-74 0 -115 38.5t-41 120.5q0 69 27.5 152t88 143.5t153.5 60.5q60 0 85.5 -26t25.5 -66q0 -35 -15 -54 t-38 -19q-17 0 -35 12q12 33 12 59q0 19 -7 30t-21 11q-30 0 -60 -49t-49 -119t-19 -126q0 -49 17 -66.5t55 -17.5q54 0 92.5 25t84.5 76h34q-85 -140 -199 -174l-29 -71q34 8 53 8q62 0 62 -50q0 -51 -36 -80.5t-84 -29.5q-34 0 -57 7z" glyph-name="ccedilla" horiz-adv-x="384" unicode="ç"/>
<glyph d="M158 750h105l29 -189h-75zM28 32.5q-41 38.5 -41 120.5q0 69 27 152t88 143.5t155 60.5q110 0 110 -96q0 -56 -32 -103t-85 -75.5t-113 -32.5q-2 -30 -2 -40q0 -49 17 -66.5t55 -17.5q54 0 92.5 25t84.5 76h34q-111 -185 -275 -185q-74 0 -115 38.5zM215.5 276 q33.5 24 54 61t20.5 78t-25 41q-36 0 -70.5 -63t-49.5 -143q37 2 70.5 26z" glyph-name="egrave" horiz-adv-x="384" unicode="è"/>
<glyph d="M314 750h105l-121 -189h-75zM28 32.5q-41 38.5 -41 120.5q0 69 27 152t88 143.5t155 60.5q110 0 110 -96q0 -56 -32 -103t-85 -75.5t-113 -32.5q-2 -30 -2 -40q0 -49 17 -66.5t55 -17.5q54 0 92.5 25t84.5 76h34q-111 -185 -275 -185q-74 0 -115 38.5zM215.5 276 q33.5 24 54 61t20.5 78t-25 41q-36 0 -70.5 -63t-49.5 -143q37 2 70.5 26z" glyph-name="eacute" horiz-adv-x="384" unicode="é"/>
<glyph d="M317 750h21l60 -189h-32l-60 80l-157 -80h-44zM28 32.5q-41 38.5 -41 120.5q0 69 27 152t88 143.5t155 60.5q110 0 110 -96q0 -56 -32 -103t-85 -75.5t-113 -32.5q-2 -30 -2 -40q0 -49 17 -66.5t55 -17.5q54 0 92.5 25t84.5 76h34q-111 -185 -275 -185q-74 0 -115 38.5z M215.5 276q33.5 24 54 61t20.5 78t-25 41q-36 0 -70.5 -63t-49.5 -143q37 2 70.5 26z" glyph-name="ecircumflex" horiz-adv-x="384" unicode="ê"/>
<glyph d="M136.5 590.5q-17.5 17.5 -17.5 43.5q0 25 17.5 43t43.5 18q25 0 43 -18t18 -43q0 -26 -18 -43.5t-43 -17.5q-26 0 -43.5 17.5zM316.5 590.5q-17.5 17.5 -17.5 43.5q0 25 17.5 43t43.5 18q25 0 43 -18t18 -43q0 -26 -18 -43.5t-43 -17.5q-26 0 -43.5 17.5zM28 32.5 q-41 38.5 -41 120.5q0 69 27 152t88 143.5t155 60.5q110 0 110 -96q0 -56 -32 -103t-85 -75.5t-113 -32.5q-2 -30 -2 -40q0 -49 17 -66.5t55 -17.5q54 0 92.5 25t84.5 76h34q-111 -185 -275 -185q-74 0 -115 38.5zM215.5 276q33.5 24 54 61t20.5 78t-25 41q-36 0 -70.5 -63 t-49.5 -143q37 2 70.5 26z" glyph-name="edieresis" horiz-adv-x="384" unicode="ë"/>
<glyph d="M56 750h105l29 -189h-75zM21.5 24q-29.5 30 -29.5 90q0 25 8 65l68 321h144l-72 -340q-4 -15 -4 -32q0 -20 9.5 -28.5t31.5 -8.5q29 0 54 24.5t36 63.5h42q-37 -108 -95 -146.5t-115 -38.5q-48 0 -77.5 30z" glyph-name="igrave" horiz-adv-x="267" unicode="ì"/>
<glyph d="M202 750h105l-121 -189h-75zM21.5 24q-29.5 30 -29.5 90q0 25 8 65l68 321h144l-72 -340q-4 -15 -4 -32q0 -20 9.5 -28.5t31.5 -8.5q29 0 54 24.5t36 63.5h42q-37 -108 -95 -146.5t-115 -38.5q-48 0 -77.5 30z" glyph-name="iacute" horiz-adv-x="267" unicode="í"/>
<glyph d="M213 750h21l60 -189h-32l-60 80l-157 -80h-44zM21.5 24q-29.5 30 -29.5 90q0 25 8 65l68 321h144l-72 -340q-4 -15 -4 -32q0 -20 9.5 -28.5t31.5 -8.5q29 0 54 24.5t36 63.5h42q-37 -108 -95 -146.5t-115 -38.5q-48 0 -77.5 30z" glyph-name="icircumflex" horiz-adv-x="267" unicode="î"/>
<glyph d="M34.5 590.5q-17.5 17.5 -17.5 43.5q0 25 17.5 43t43.5 18q25 0 43 -18t18 -43q0 -26 -18 -43.5t-43 -17.5q-26 0 -43.5 17.5zM204.5 590.5q-17.5 17.5 -17.5 43.5q0 25 17.5 43t43.5 18q25 0 43 -18t18 -43q0 -26 -18 -43.5t-43 -17.5q-26 0 -43.5 17.5zM21.5 24 q-29.5 30 -29.5 90q0 25 8 65l68 321h144l-72 -340q-4 -15 -4 -32q0 -20 9.5 -28.5t31.5 -8.5q29 0 54 24.5t36 63.5h42q-37 -108 -95 -146.5t-115 -38.5q-48 0 -77.5 30z" glyph-name="idieresis" horiz-adv-x="267" unicode="ï"/>
<glyph d="M568 179q-61 -179 -201 -179q-41 0 -66.5 22t-31.5 65q-61 -93 -149 -93q-57 0 -95 39t-38 122q0 74 29.5 155.5t88 138t139.5 56.5q42 0 63 -15t21 -42q8 53 8 91q0 34 -5 56l-121 -32l-12 51l117 33q-18 37 -46 71l87 32q38 -32 63 -73l111 31l13 -56l-97 -26 q24 -61 24 -132q0 -45 -11 -98l-51 -236q-4 -15 -4 -32q0 -20 9.5 -28.5t31.5 -8.5q28 0 48.5 24t32.5 64h42zM316 405q0 12 -10 25t-31 13q-40 0 -72 -46.5t-50 -112t-18 -115.5t14.5 -64t35.5 -14q25 0 49.5 23.5t33.5 64.5z" glyph-name="eth" horiz-adv-x="526" unicode="ð"/>
<glyph d="M284 574q-21 5 -48 15q-23 8 -40.5 12.5t-35.5 4.5q-37 0 -66 -26l-6 2q24 48 67 73t100 25q25 0 46 -4.5t46 -13.5q43 -15 73 -15q40 0 63 23l6 -1q-5 -23 -29.5 -46.5t-59.5 -38.5t-72 -15q-23 0 -44 5zM271.5 26.5q-28.5 32.5 -28.5 80.5q0 21 5 47.5t10.5 51.5 t7.5 32q8 35 15 69t7 55q0 51 -36 51q-26 0 -46 -25.5t-32 -66.5l-68 -321h-144l106 500h144l-11 -52q50 56 117 56q51 0 81 -28t30 -85q0 -29 -7 -64.5t-20 -86.5q-8 -31 -14.5 -60.5t-6.5 -46.5q0 -20 9 -31t31 -11q30 0 48 21.5t36 66.5h42q-37 -110 -85.5 -147.5 t-100.5 -37.5q-61 0 -89.5 32.5z" glyph-name="ntilde" unicode="ñ"/>
<glyph d="M179 750h105l29 -189h-75zM23 34q-43 38 -43 120q0 68 28 151t90 143.5t156 60.5q128 0 128 -160v-1q3 -1 11 -1q33 0 76 17.5t78 42.5l9 -27q-29 -31 -75.5 -52.5t-101.5 -30.5q-8 -91 -41 -159t-85 -105t-113 -37q-74 0 -117 38zM228 113.5q24 27.5 42 75t26 105.5 q-27 6 -27 42q0 41 31 54q-2 33 -10 45.5t-28 12.5q-33 0 -64 -48t-50 -115t-19 -118q0 -48 11 -64.5t40 -16.5q24 0 48 27.5z" glyph-name="ograve" horiz-adv-x="433" unicode="ò"/>
<glyph d="M316 750h105l-121 -189h-75zM29 34q-43 38 -43 120q0 68 28 151t90 143.5t156 60.5q128 0 128 -160v-1q3 -1 11 -1q33 0 76 17.5t78 42.5l9 -27q-29 -31 -75.5 -52.5t-101.5 -30.5q-8 -91 -41 -159t-85 -105t-113 -37q-74 0 -117 38zM234 113.5q24 27.5 42 75t26 105.5 q-27 6 -27 42q0 41 31 54q-2 33 -10 45.5t-28 12.5q-33 0 -64 -48t-50 -115t-19 -118q0 -48 11 -64.5t40 -16.5q24 0 48 27.5z" glyph-name="oacute" horiz-adv-x="439" unicode="ó"/>
<glyph d="M307 750h21l60 -189h-32l-60 80l-157 -80h-44zM23 34q-43 38 -43 120q0 68 28 151t90 143.5t156 60.5q128 0 128 -160v-1q3 -1 11 -1q33 0 76 17.5t78 42.5l9 -27q-29 -31 -75.5 -52.5t-101.5 -30.5q-8 -91 -41 -159t-85 -105t-113 -37q-74 0 -117 38zM228 113.5 q24 27.5 42 75t26 105.5q-27 6 -27 42q0 41 31 54q-2 33 -10 45.5t-28 12.5q-33 0 -64 -48t-50 -115t-19 -118q0 -48 11 -64.5t40 -16.5q24 0 48 27.5z" glyph-name="ocircumflex" horiz-adv-x="433" unicode="ô"/>
<glyph d="M236 574q-21 5 -48 15q-23 8 -40.5 12.5t-35.5 4.5q-37 0 -66 -26l-6 2q24 48 67 73t100 25q26 0 46.5 -4.5t45.5 -13.5q43 -15 73 -15q40 0 63 23l6 -1q-5 -23 -29.5 -46.5t-59.5 -38.5t-72 -15q-23 0 -44 5zM23 34q-43 38 -43 120q0 68 28 151t90 143.5t156 60.5 q128 0 128 -160v-1q3 -1 11 -1q33 0 76 17.5t78 42.5l9 -27q-29 -31 -75.5 -52.5t-101.5 -30.5q-8 -91 -41 -159t-85 -105t-113 -37q-74 0 -117 38zM228 113.5q24 27.5 42 75t26 105.5q-27 6 -27 42q0 41 31 54q-2 33 -10 45.5t-28 12.5q-33 0 -64 -48t-50 -115t-19 -118 q0 -48 11 -64.5t40 -16.5q24 0 48 27.5z" glyph-name="otilde" horiz-adv-x="433" unicode="õ"/>
<glyph d="M122.5 590.5q-17.5 17.5 -17.5 43.5q0 25 17.5 43t43.5 18q25 0 43 -18t18 -43q0 -26 -18 -43.5t-43 -17.5q-26 0 -43.5 17.5zM302.5 590.5q-17.5 17.5 -17.5 43.5q0 25 17.5 43t43.5 18q25 0 43 -18t18 -43q0 -26 -18 -43.5t-43 -17.5q-26 0 -43.5 17.5zM23 34 q-43 38 -43 120q0 68 28 151t90 143.5t156 60.5q128 0 128 -160v-1q3 -1 11 -1q33 0 76 17.5t78 42.5l9 -27q-29 -31 -75.5 -52.5t-101.5 -30.5q-8 -91 -41 -159t-85 -105t-113 -37q-74 0 -117 38zM228 113.5q24 27.5 42 75t26 105.5q-27 6 -27 42q0 41 31 54 q-2 33 -10 45.5t-28 12.5q-33 0 -64 -48t-50 -115t-19 -118q0 -48 11 -64.5t40 -16.5q24 0 48 27.5z" glyph-name="odieresis" horiz-adv-x="433" unicode="ö"/>
<glyph d="M200 462q-23 23 -23 56t23 56.5t56 23.5t56.5 -23.5t23.5 -56.5t-23.5 -56t-56.5 -23t-56 23zM57 380h350l-17 -79h-351zM140 107q-23 23 -23 56t23 56.5t56 23.5t56.5 -23.5t23.5 -56.5t-23.5 -56t-56.5 -23t-56 23z" glyph-name="divide" horiz-adv-x="415" unicode="÷"/>
<glyph d="M385 396q4 -24 4 -59q0 -96 -34 -174.5t-93 -123.5t-130 -45q-43 0 -78 19l-63 -73h-62l91 105q-33 45 -33 126q0 90 37 166.5t100 122t137 45.5q78 0 107 -57l45 52h62zM210.5 409.5q-30.5 -40.5 -51.5 -103.5t-23 -126l173 199q-1 34 -11 52.5t-27 18.5 q-30 0 -60.5 -40.5zM227.5 117.5q26.5 29.5 47 78.5t29.5 106l-162 -187q9 -27 33 -27q26 0 52.5 29.5z" glyph-name="oslash" horiz-adv-x="428" unicode="ø"/>
<glyph d="M185 750h105l29 -189h-75zM21.5 24q-29.5 30 -29.5 90q0 25 8 65l68 321h144l-72 -340q-3 -15 -3 -28q0 -41 30 -41q28 0 48 23.5t32 64.5l68 321h144l-72 -340q-4 -15 -4 -32q0 -20 9.5 -28.5t31.5 -8.5q28 0 48.5 24t32.5 64h42q-37 -108 -91.5 -146.5t-109.5 -38.5 q-43 0 -68.5 24t-30.5 71q-34 -55 -71.5 -75t-76.5 -20q-48 0 -77.5 30z" glyph-name="ugrave" unicode="ù"/>
<glyph d="M330 750h105l-121 -189h-75zM21.5 24q-29.5 30 -29.5 90q0 25 8 65l68 321h144l-72 -340q-3 -15 -3 -28q0 -41 30 -41q28 0 48 23.5t32 64.5l68 321h144l-72 -340q-4 -15 -4 -32q0 -20 9.5 -28.5t31.5 -8.5q28 0 48.5 24t32.5 64h42q-37 -108 -91.5 -146.5t-109.5 -38.5 q-43 0 -68.5 24t-30.5 71q-34 -55 -71.5 -75t-76.5 -20q-48 0 -77.5 30z" glyph-name="uacute" unicode="ú"/>
<glyph d="M338 750h21l60 -189h-32l-60 80l-157 -80h-44zM21.5 24q-29.5 30 -29.5 90q0 25 8 65l68 321h144l-72 -340q-3 -15 -3 -28q0 -41 30 -41q28 0 48 23.5t32 64.5l68 321h144l-72 -340q-4 -15 -4 -32q0 -20 9.5 -28.5t31.5 -8.5q28 0 48.5 24t32.5 64h42 q-37 -108 -91.5 -146.5t-109.5 -38.5q-43 0 -68.5 24t-30.5 71q-34 -55 -71.5 -75t-76.5 -20q-48 0 -77.5 30z" glyph-name="ucircumflex" unicode="û"/>
<glyph d="M153.5 590.5q-17.5 17.5 -17.5 43.5q0 25 17.5 43t43.5 18q25 0 43 -18t18 -43q0 -26 -18 -43.5t-43 -17.5q-26 0 -43.5 17.5zM333.5 590.5q-17.5 17.5 -17.5 43.5q0 25 17.5 43t43.5 18q25 0 43 -18t18 -43q0 -26 -18 -43.5t-43 -17.5q-26 0 -43.5 17.5zM21.5 24 q-29.5 30 -29.5 90q0 25 8 65l68 321h144l-72 -340q-3 -15 -3 -28q0 -41 30 -41q28 0 48 23.5t32 64.5l68 321h144l-72 -340q-4 -15 -4 -32q0 -20 9.5 -28.5t31.5 -8.5q28 0 48.5 24t32.5 64h42q-37 -108 -91.5 -146.5t-109.5 -38.5q-43 0 -68.5 24t-30.5 71 q-34 -55 -71.5 -75t-76.5 -20q-48 0 -77.5 30z" glyph-name="udieresis" unicode="ü"/>
<glyph d="M329 750h105l-121 -189h-75zM76 -225q-32 25 -32 72q0 57 46 91.5t117 57.5l12 54q-29 -32 -59 -44t-61 -12q-48 0 -77.5 30t-29.5 90q0 25 8 65l68 321h144l-72 -340q-3 -12 -3 -25q0 -44 30 -44q26 0 46 22.5t32 59.5l70 327h144l-99 -464q48 16 77 48t49 95h42 q-27 -89 -73 -130.5t-104 -56.5l-15 -72q-20 -97 -69 -133.5t-111 -36.5q-48 0 -80 25zM166 -149q16 23 25 66l6 29q-98 -36 -98 -85q0 -13 9 -23t25 -10q17 0 33 23z" glyph-name="yacute" unicode="ý"/>
<glyph d="M118 732l148 20l-66 -290h4q49 43 117 43q63 0 92.5 -41t29.5 -128q0 -96 -32.5 -174.5t-88.5 -123t-126 -44.5q-31 0 -53 9.5t-31 26.5l-52 -244l-151 -36zM230.5 100.5q33.5 40.5 54.5 105.5t21 134q0 93 -49 93q-20 0 -38 -12.5t-32 -36.5l-64 -301q3 -10 13.5 -16.5 t24.5 -6.5q36 0 69.5 40.5z" glyph-name="thorn" horiz-adv-x="473" unicode="þ"/>
<glyph d="M63 35q-43 41 -43 106q0 70 51 136t132.5 107t167.5 41q5 25 5 81q0 71 -27 105t-84 34q-46 0 -82 -21.5t-56 -62.5q-15 12 -23.5 30t-8.5 39q0 37 27.5 67.5t75 48t105.5 17.5q113 0 174.5 -70.5t61.5 -200.5q0 -124 -52 -239.5t-136 -187t-175 -71.5q-70 0 -113 41z M251 107.5q34 39.5 63 110t47 159.5q-56 -3 -106.5 -39t-80.5 -91.5t-30 -115.5q0 -63 40 -63q33 0 67 39.5z" glyph-name="uni018F" horiz-adv-x="544" unicode="Ə"/>
<glyph d="M28 19.5q-28 25.5 -28 72.5q0 52 32 97.5t86 74.5t117 33q2 16 2 42q0 40 -19 61t-55 21q-30 0 -54 -14.5t-38 -41.5q-21 18 -21 46q0 26 21.5 48t58.5 34.5t82 12.5q85 0 129 -45.5t44 -133.5q0 -86 -38.5 -163t-102.5 -123.5t-136 -46.5q-52 0 -80 25.5zM176 103.5 q33 56.5 51 145.5q-37 -2 -70.5 -25.5t-54 -59t-20.5 -74.5q0 -43 27 -43q34 0 67 56.5z" glyph-name="uni0259" horiz-adv-x="404" unicode="ə"/>
<glyph d="M-177 750h105l29 -189h-55z" glyph-name="gravecomb" horiz-adv-x="0" unicode="̀"/>
<glyph d="M-105 750h105l-141 -189h-55z" glyph-name="acutecomb" horiz-adv-x="0" unicode="́"/>
<glyph d="M-283 665h320l-15 -74h-321z" glyph-name="uni0304" horiz-adv-x="0" unicode="̄"/>
<glyph d="M-254.5 590.5q-17.5 17.5 -17.5 43.5q0 25 17.5 43t43.5 18q25 0 43 -18t18 -43q0 -26 -18 -43.5t-43 -17.5q-26 0 -43.5 17.5zM-74.5 590.5q-17.5 17.5 -17.5 43.5q0 25 17.5 43t43.5 18q25 0 43 -18t18 -43q0 -26 -18 -43.5t-43 -17.5q-26 0 -43.5 17.5z" glyph-name="uni0308" horiz-adv-x="0" unicode="̈"/>
<glyph d="M-210 752h105l-141 -189h-55zM-48 752h105l-141 -189h-55z" glyph-name="uni030B" horiz-adv-x="0" unicode="̋"/>
<glyph d="M-371 289h329l-12 -50h-331z" glyph-name="uni0335" horiz-adv-x="0" unicode="̵"/>
<glyph d="M53.5 32q-46.5 50 -46.5 126q0 54 22.5 108.5t64.5 95.5t98 55q-31 22 -46 53.5t-15 66.5q0 52 28.5 102t79 81.5t111.5 31.5q63 0 103 -33t40 -92q0 -44 -22 -74t-52 -30q-27 0 -47 27q18 6 31 33t13 54q0 29 -16 42.5t-39 13.5q-29 0 -52.5 -20.5t-36.5 -53t-13 -67.5 q0 -48 25 -84.5t76 -49.5q-51 -11 -92 -50t-64 -90.5t-23 -98.5q0 -45 23.5 -73t71.5 -28q50 0 104.5 27.5t80.5 74.5l23 -10q-39 -86 -120 -137t-173 -51q-91 0 -137.5 50zM263 998h105l29 -189h-55z" glyph-name="uni0400" horiz-adv-x="459" unicode="Ѐ"/>
<glyph d="M53.5 32q-46.5 50 -46.5 126q0 54 22.5 108.5t64.5 95.5t98 55q-31 22 -46 53.5t-15 66.5q0 52 28.5 102t79 81.5t111.5 31.5q63 0 103 -33t40 -92q0 -44 -22 -74t-52 -30q-27 0 -47 27q18 6 31 33t13 54q0 29 -16 42.5t-39 13.5q-29 0 -52.5 -20.5t-36.5 -53t-13 -67.5 q0 -48 25 -84.5t76 -49.5q-51 -11 -92 -50t-64 -90.5t-23 -98.5q0 -45 23.5 -73t71.5 -28q50 0 104.5 27.5t80.5 74.5l23 -10q-39 -86 -120 -137t-173 -51q-91 0 -137.5 50zM250.5 838.5q-17.5 17.5 -17.5 43.5q0 25 17.5 43t43.5 18q25 0 43 -18t18 -43q0 -26 -18 -43.5 t-43 -17.5q-26 0 -43.5 17.5zM430.5 838.5q-17.5 17.5 -17.5 43.5q0 25 17.5 43t43.5 18q25 0 43 -18t18 -43q0 -26 -18 -43.5t-43 -17.5q-26 0 -43.5 17.5z" glyph-name="uni0401" horiz-adv-x="459" unicode="Ё"/>
<glyph d="M292.5 -185.5q-24.5 21.5 -24.5 54.5q0 22 10 42q21 -22 52 -22q53 0 89.5 60t69.5 194q9 32 17 81.5t8 81.5q0 70 -54 70q-42 0 -78 -27l-75 -349h-144l142 662h-12q-89 0 -138.5 -44.5t-49.5 -157.5q0 -37 7 -51.5t7 -16.5q-54 0 -80.5 22.5t-26.5 74.5q0 71 35 129.5 t111.5 94.5t194.5 36q66 0 142 -12q64 -11 114 -11q64 0 116 21q-2 -65 -33 -96t-92 -31q-32 0 -64 5t-91 17l-49 -226q61 38 135 38q54 0 89 -36t35 -107q0 -58 -26 -170q-36 -150 -104.5 -249t-162.5 -99q-45 0 -69.5 21.5z" glyph-name="uni0402" horiz-adv-x="725" unicode="Ђ"/>
<glyph d="M245 668q-63 -2 -96.5 -49t-33.5 -149q0 -52 7 -63.5t7 -13.5q-59 0 -88 24t-29 82q0 67 35.5 123.5t115.5 92t206 35.5q25 0 68 -5q77 -7 106 -7q56 0 95 12q-5 -14 -8 -28q-8 -28 -16 -46.5t-26.5 -32t-49.5 -13.5q-60 0 -153 20l-140 -650h-144zM514 998h105 l-141 -189h-55z" glyph-name="uni0403" horiz-adv-x="400" unicode="Ѓ"/>
<glyph d="M72 41q-53 57 -53 189q0 105 35.5 226t114 207.5t199.5 86.5q75 0 121 -33t46 -101q0 -43 -17 -67.5t-53 -24.5t-57 26q18 9 32 36t14 56q0 27 -14.5 44t-46.5 17q-52 0 -100.5 -72.5t-77.5 -180.5h191l-16 -74h-192q-13 -76 -13 -140q0 -76 26 -116t94 -40q59 0 109 26 t86 74l23 -10q-25 -63 -74 -105t-105 -61.5t-106 -19.5q-113 0 -166 57z" glyph-name="uni0404" horiz-adv-x="497" unicode="Є"/>
<glyph d="M134 4q-48 22 -74 61.5t-26 91.5q0 44 18.5 80t50 57t69.5 21q35 0 59 -17.5t30 -48.5q-52 0 -83 -27.5t-31 -74.5q0 -43 26 -69t69 -26q53 0 87.5 35.5t34.5 89.5q0 47 -26 89t-78 102q-54 62 -81.5 106.5t-27.5 97.5q0 52 29 93.5t80 65.5t115 24q81 0 129.5 -38 t48.5 -102q0 -42 -21 -68t-55 -26q-38 0 -61 31q19 14 30 37t11 48q0 32 -19 51t-52 19q-40 0 -65.5 -28.5t-25.5 -72.5q0 -40 23 -74.5t72 -88.5q40 -43 64.5 -74t42 -71.5t17.5 -87.5q0 -64 -35.5 -116t-97 -82t-136.5 -30q-63 0 -111 22z" glyph-name="uni0405" horiz-adv-x="570" unicode="Ѕ"/>
<glyph d="M245 679q-67 -27 -103.5 -82.5t-36.5 -135.5q0 -37 7 -51.5t7 -16.5q-54 0 -80.5 22.5t-26.5 74.5q0 64 52.5 124.5t134.5 98t164 37.5q14 0 40 -2l-159 -748h-144z" glyph-name="uni0406" horiz-adv-x="374" unicode="І"/>
<glyph d="M239 679q-67 -27 -103.5 -82.5t-36.5 -135.5q0 -37 7 -51.5t7 -16.5q-54 0 -80.5 22.5t-26.5 74.5q0 64 52.5 124.5t134.5 98t164 37.5q14 0 40 -2l-159 -748h-144zM208.5 838.5q-17.5 17.5 -17.5 43.5q0 25 17.5 43t43.5 18q25 0 43 -18t18 -43q0 -26 -18 -43.5 t-43 -17.5q-26 0 -43.5 17.5zM388.5 838.5q-17.5 17.5 -17.5 43.5q0 25 17.5 43t43.5 18q25 0 43 -18t18 -43q0 -26 -18 -43.5t-43 -17.5q-26 0 -43.5 17.5z" glyph-name="uni0407" horiz-adv-x="375" unicode="Ї"/>
<glyph d="M55.5 -168.5q-38.5 38.5 -38.5 102.5q0 54 33 94t89 40q43 0 70.5 -12.5t27.5 -54.5q0 -18 -6 -40q-18 15 -31 20.5t-29 5.5q-33 0 -51.5 -22t-18.5 -52q0 -35 21 -52.5t47 -17.5q24 0 40.5 9.5t29.5 36t25 77.5l157 714q-67 -27 -104 -83t-37 -136q0 -37 7 -51.5 t7 -16.5q-54 0 -80.5 22.5t-26.5 74.5q0 64 52.5 124.5t134.5 98t164 37.5h40l-150 -710q-26 -123 -86 -185t-177 -62q-71 0 -109.5 38.5z" glyph-name="uni0408" horiz-adv-x="536" unicode="Ј"/>
<glyph d="M39 -108q-28 6 -48.5 29t-20.5 71q0 103 85.5 288.5t209 327.5t234.5 142q48 0 79 -14l-68 -318q54 18 103 18q84 0 126.5 -50.5t42.5 -134.5q0 -55 -23.5 -117.5t-71.5 -106.5t-119 -44q-49 0 -75.5 23t-26.5 60q0 22 11 49q28 -36 67 -36q50 0 74.5 53.5t24.5 121.5 q0 123 -95 123q-27 0 -49 -11l-78 -366h-144l144 679q-72 -38 -149 -177.5t-129.5 -302.5t-52.5 -257q0 -38 14 -56q-37 0 -65 6z" glyph-name="uni0409" horiz-adv-x="817" unicode="Љ"/>
<glyph d="M606.5 6q-26.5 23 -26.5 60q0 22 11 49q28 -36 67 -36q50 0 74.5 53.5t24.5 121.5q0 123 -95 123q-27 0 -49 -11l-78 -366h-144l80 376h-147l-80 -376h-144l145 680q-67 -28 -103.5 -84t-36.5 -135q0 -37 7 -51.5t7 -16.5q-54 0 -80.5 22.5t-26.5 74.5q0 64 52.5 124.5 t134.5 98t164 37.5q14 0 40 -2l-64 -298h147l64 298h144l-70 -330q59 18 103 18q84 0 126.5 -50.5t42.5 -134.5q0 -55 -23.5 -117.5t-71.5 -106.5t-119 -44q-49 0 -75.5 23z" glyph-name="uni040A" horiz-adv-x="931" unicode="Њ"/>
<glyph d="M471 50q0 24 6.5 56.5t22.5 100.5q5 24 9.5 54t4.5 45q0 70 -54 70q-42 0 -78 -27l-75 -349h-144l142 662h-12q-89 0 -138.5 -44.5t-49.5 -157.5q0 -37 7 -51.5t7 -16.5q-54 0 -80.5 22.5t-26.5 74.5q0 71 35 129.5t111.5 94.5t194.5 36q66 0 142 -12q64 -11 114 -11 q64 0 116 21q-2 -65 -33 -96t-92 -31q-32 0 -64 5t-91 17l-49 -226q61 38 137 38q53 0 87.5 -36t34.5 -107q0 -56 -13 -104l-5 -20q-9 -38 -15.5 -70t-6.5 -51q0 -23 10.5 -41t28.5 -25q-61 -17 -105 -17q-78 0 -78 67z" glyph-name="uni040B" horiz-adv-x="745" unicode="Ћ"/>
<glyph d="M364 50q0 22 6.5 50.5t18.5 73.5q14 47 21 80t7 59q0 68 -60 68q-16 0 -33 -4l-80 -377h-144l145 680q-67 -28 -103.5 -84t-36.5 -135q0 -37 7 -51.5t7 -16.5q-54 0 -80.5 22.5t-26.5 74.5q0 64 52.5 124.5t134.5 98t164 37.5q14 0 40 -2l-64 -299q20 59 55.5 120 t64.5 94q71 87 147 87q32 0 53.5 -17.5t21.5 -49.5q0 -36 -19 -53t-46 -17q-43 0 -59 40q-51 -31 -92.5 -88t-79.5 -140q16 1 42 1q68 0 96 -28.5t28 -78.5q0 -29 -7 -61.5t-20 -80.5q-8 -31 -15 -61t-7 -50q0 -23 10.5 -41t28.5 -25q-61 -17 -99 -17q-78 0 -78 67zM515 998 h105l-141 -189h-55z" glyph-name="uni040C" horiz-adv-x="635" unicode="Ќ"/>
<glyph d="M245 680q-67 -28 -103.5 -84t-36.5 -135q0 -37 7 -51.5t7 -16.5q-54 0 -80.5 22.5t-26.5 74.5q0 64 52.5 124.5t134.5 98t164 37.5q14 0 40 -2l-113 -532l300 532h144l-159 -748h-144l109 514l-296 -514h-144zM396 998h105l29 -189h-55z" glyph-name="uni040D" horiz-adv-x="705" unicode="Ѝ"/>
<glyph d="M228.5 15.5q-22.5 20.5 -22.5 52.5q0 33 18 52t51 19q26 0 42 -15.5t20 -43.5q32 12 60 74l-143 529q-71 -27 -110 -83.5t-39 -138.5q0 -37 7 -51.5t7 -16.5q-54 0 -80.5 22.5t-26.5 74.5q0 64 52.5 124.5t134.5 98t164 37.5q14 0 40 -2l87 -375l158 372h66l-250 -591 q-29 -67 -67.5 -113t-102.5 -46q-43 0 -65.5 20.5zM396 823q-34 23 -34 63q0 33 18.5 53t48.5 20q29 0 45.5 -14t16.5 -40q0 -32 -24 -48q13 -4 40 -4q45 0 87.5 27.5t66.5 89.5h42q-32 -93 -85 -131.5t-126 -38.5q-62 0 -96 23z" glyph-name="uni040E" horiz-adv-x="644" unicode="Ў"/>
<glyph d="M245 680q-67 -28 -103.5 -84t-36.5 -135q0 -37 7 -51.5t7 -16.5q-54 0 -80.5 22.5t-26.5 74.5q0 64 52.5 124.5t134.5 98t164 37.5q14 0 40 -2l-144 -674h147l144 674h144l-159 -748h-435zM267 -325q18 19 18 41q0 15 -7.5 29.5t-23.5 38.5q-21 30 -32 53.5t-11 50.5 q0 43 30 68.5t79 21.5l5 -8q-17 -16 -17 -31q0 -11 6.5 -22t22.5 -29q21 -26 33 -47t12 -48q0 -73 -100 -129z" glyph-name="uni040F" horiz-adv-x="665" unicode="Џ"/>
<glyph d="M153 -108q-28 6 -48.5 29t-20.5 71q0 67 40.5 180t106.5 227q-50 -3 -79 -15t-38 -37q4 0 8.5 -10t4.5 -21q0 -18 -16 -28.5t-40 -10.5q-28 0 -45 15t-17 43q0 34 26.5 62t73.5 44.5t104 16.5q21 0 52 -3q82 130 173.5 212.5t174.5 82.5q48 0 79 -14l-157 -736h-144 l77 363q-37 17 -68 25t-66 11q-57 -123 -93.5 -251.5t-36.5 -205.5q0 -38 14 -56q-37 0 -65 6zM535 679q-43 -23 -89.5 -85.5t-90.5 -151.5q72 -14 122 -35z" glyph-name="uni0410" horiz-adv-x="668" unicode="А"/>
<glyph d="M300.5 6q-26.5 23 -26.5 60q0 22 11 49q28 -36 67 -36q50 0 74.5 53.5t24.5 121.5q0 123 -95 123q-27 0 -48 -10l-79 -367h-144l144 668q-63 -2 -96.5 -48t-33.5 -159q0 -37 7 -51.5t7 -16.5q-54 0 -80.5 22.5t-26.5 74.5q0 71 35 129.5t111.5 94.5t194.5 36q23 0 71 -5 q91 -7 125 -7q53 0 90 12q-1 -5 -7 -40t-28.5 -57.5t-59.5 -22.5q-73 0 -169 20l-50 -232q59 18 102 18q84 0 126.5 -50.5t42.5 -134.5q0 -55 -23.5 -117.5t-71.5 -106.5t-119 -44q-49 0 -75.5 23z" glyph-name="uni0411" horiz-adv-x="638" unicode="Б"/>
<glyph d="M317.5 -0.5q-29.5 16.5 -29.5 57.5q0 26 13 58q18 -20 33.5 -28t33.5 -8q50 0 74.5 56t24.5 124q0 127 -95 127q-27 0 -46 -3l-82 -383h-144l136 636l148 20l-47 -222h6q38 0 71 24.5t53 62t20 75.5q0 46 -32.5 77t-99.5 31q-61 0 -119 -27.5t-94.5 -82.5t-36.5 -133 q0 -37 7 -51.5t7 -16.5q-53 0 -80 21.5t-27 70.5q0 68 51 129t135 98.5t177 37.5q70 0 118 -22t71.5 -58t23.5 -79q0 -46 -26 -89t-74 -70q60 -11 89 -55.5t29 -105.5q0 -57 -21.5 -124t-71 -115.5t-126.5 -48.5q-40 0 -69.5 16.5z" glyph-name="uni0412" horiz-adv-x="641" unicode="В"/>
<glyph d="M245 668q-63 -2 -96.5 -49t-33.5 -149q0 -52 7 -63.5t7 -13.5q-59 0 -88 24t-29 82q0 67 35.5 123.5t115.5 92t206 35.5q25 0 68 -5q77 -7 106 -7q56 0 95 12q-5 -14 -8 -28q-8 -28 -16 -46.5t-26.5 -32t-49.5 -13.5q-60 0 -153 20l-140 -650h-144z" glyph-name="uni0413" horiz-adv-x="400" unicode="Г"/>
<glyph d="M10.5 3.5q-35.5 30.5 -35.5 77.5q0 58 38 94t92 36q19 0 37 -8l4 20l90 413l148 20l-109 -513q-6 -27 -13 -47q25 -21 59 -21q57 0 100.5 66t67.5 168t24 206q0 98 -38.5 143.5t-107.5 45.5q-75 0 -134.5 -29.5t-93.5 -84.5t-34 -129q0 -37 7 -51.5t7 -16.5 q-52 0 -79.5 22t-27.5 71q0 68 51 129t136.5 98t184.5 37q137 0 202 -81t65 -207q0 -114 -38.5 -224.5t-102.5 -180.5t-136 -70q-77 0 -135 63q-28 -42 -66 -59.5t-80 -17.5q-47 0 -82.5 30.5zM104.5 80.5q16.5 18.5 24.5 59.5l5 25q-16 10 -30 10q-28 0 -51 -23.5 t-23 -56.5q0 -15 11.5 -24t28.5 -9q18 0 34.5 18.5z" glyph-name="uni0414" horiz-adv-x="669" unicode="Д"/>
<glyph d="M53.5 32q-46.5 50 -46.5 126q0 54 22.5 108.5t64.5 95.5t98 55q-31 22 -46 53.5t-15 66.5q0 52 28.5 102t79 81.5t111.5 31.5q63 0 103 -33t40 -92q0 -44 -22 -74t-52 -30q-27 0 -47 27q18 6 31 33t13 54q0 29 -16 42.5t-39 13.5q-29 0 -52.5 -20.5t-36.5 -53t-13 -67.5 q0 -48 25 -84.5t76 -49.5q-51 -11 -92 -50t-64 -90.5t-23 -98.5q0 -45 23.5 -73t71.5 -28q50 0 104.5 27.5t80.5 74.5l23 -10q-39 -86 -120 -137t-173 -51q-91 0 -137.5 50z" glyph-name="uni0415" horiz-adv-x="459" unicode="Е"/>
<glyph d="M-46 0q42 23 59 65.5t30 116.5q12 72 27 115.5t51 75.5q43 43 135 43h3q2 46 2 65q0 63 -10.5 105t-38.5 67q-21 -40 -67 -40q-24 0 -38.5 17t-14.5 44q0 37 28 56.5t68 19.5q72 0 102.5 -70.5t30.5 -169.5q0 -52 -7 -98q6 0 20 -2l66 307l150 31l-72 -338q16 2 23 2 q15 70 46 143t58 108q32 43 71 65t76 22q32 0 53.5 -17.5t21.5 -49.5q0 -36 -19 -53t-46 -17q-43 0 -59 40q-34 -22 -58.5 -55t-41 -71t-43.5 -111h14q68 0 96 -28.5t28 -78.5q0 -29 -7 -61t-20 -77q-12 -41 -17 -63.5t-5 -41.5q0 -23 10.5 -41t28.5 -25q-57 -16 -99 -16 q-78 0 -78 66q0 22 6.5 49t19.5 73q13 42 20 71.5t7 53.5q0 68 -60 68q-18 0 -36 -3l-77 -362h-144l77 364q-8 1 -23 1q-40 2 -67 -23t-39 -69q-8 -25 -14 -59.5t-10 -66.5q-7 -45 -12 -69q-10 -44 -31.5 -69.5t-65.5 -25.5q-58 0 -108 17z" glyph-name="uni0416" horiz-adv-x="777" unicode="Ж"/>
<glyph d="M39.5 16.5q-49.5 32.5 -49.5 95.5q0 44 23.5 70.5t61.5 26.5q34 0 52 -26q-37 -22 -37 -72q0 -29 20.5 -48.5t58.5 -19.5q44 0 76.5 30t49 77.5t16.5 100.5q0 66 -29 95.5t-86 29.5h-42l16 74h36q43 0 74.5 25t48 61.5t16.5 68.5q0 37 -20 57.5t-58 20.5q-94 0 -153 -115 l-23 10q21 84 83.5 127.5t148.5 43.5q84 0 128 -41t44 -109q0 -65 -39.5 -111.5t-110.5 -70.5q129 -37 129 -169q0 -71 -36.5 -131.5t-105 -96.5t-159.5 -36q-84 0 -133.5 32.5z" glyph-name="uni0417" horiz-adv-x="525" unicode="З"/>
<glyph d="M245 680q-67 -28 -103.5 -84t-36.5 -135q0 -37 7 -51.5t7 -16.5q-54 0 -80.5 22.5t-26.5 74.5q0 64 52.5 124.5t134.5 98t164 37.5q14 0 40 -2l-113 -532l300 532h144l-159 -748h-144l109 514l-296 -514h-144z" glyph-name="uni0418" horiz-adv-x="705" unicode="И"/>
<glyph d="M245 680q-67 -28 -103.5 -84t-36.5 -135q0 -37 7 -51.5t7 -16.5q-54 0 -80.5 22.5t-26.5 74.5q0 64 52.5 124.5t134.5 98t164 37.5q14 0 40 -2l-113 -532l300 532h144l-159 -748h-144l109 514l-296 -514h-144zM382 823q-34 23 -34 63q0 33 18.5 53t48.5 20q29 0 45.5 -14 t16.5 -40q0 -32 -24 -48q13 -4 40 -4q45 0 87.5 27.5t66.5 89.5h42q-32 -93 -85 -131.5t-126 -38.5q-62 0 -96 23z" glyph-name="uni0419" horiz-adv-x="705" unicode="Й"/>
<glyph d="M364 50q0 22 6.5 50.5t18.5 73.5q14 47 21 80t7 59q0 68 -60 68q-16 0 -33 -4l-80 -377h-144l145 680q-67 -28 -103.5 -84t-36.5 -135q0 -37 7 -51.5t7 -16.5q-54 0 -80.5 22.5t-26.5 74.5q0 64 52.5 124.5t134.5 98t164 37.5q14 0 40 -2l-64 -299q20 59 55.5 120 t64.5 94q71 87 147 87q32 0 53.5 -17.5t21.5 -49.5q0 -36 -19 -53t-46 -17q-43 0 -59 40q-51 -31 -92.5 -88t-79.5 -140q16 1 42 1q68 0 96 -28.5t28 -78.5q0 -29 -7 -61.5t-20 -80.5q-8 -31 -15 -61t-7 -50q0 -23 10.5 -41t28.5 -25q-61 -17 -99 -17q-78 0 -78 67z" glyph-name="uni041A" horiz-adv-x="635" unicode="К"/>
<glyph d="M39 -108q-28 6 -48.5 29t-20.5 71q0 103 85.5 288.5t209 327.5t234.5 142q48 0 79 -14l-157 -736h-144l144 679q-72 -38 -149 -177.5t-129.5 -302.5t-52.5 -257q0 -38 14 -56q-37 0 -65 6z" glyph-name="uni041B" horiz-adv-x="549" unicode="Л"/>
<glyph d="M321 687q-76 -25 -117.5 -82.5t-41.5 -142.5q0 -38 7 -52t7 -17q-107 0 -107 91q0 62 47.5 124.5t122 102t148.5 39.5q37 0 76 -14l-23 -527l220 527h144l-105 -736h-144l64 449l-188 -449h-137l20 451l-167 -451h-80z" glyph-name="uni041C" horiz-adv-x="787" unicode="М"/>
<glyph d="M245 680q-67 -28 -103.5 -84t-36.5 -135q0 -37 7 -51.5t7 -16.5q-54 0 -80.5 22.5t-26.5 74.5q0 64 52.5 124.5t134.5 98t164 37.5q14 0 40 -2l-64 -298h147l64 298h144l-159 -748h-144l80 376h-147l-80 -376h-144z" glyph-name="uni041D" horiz-adv-x="665" unicode="Н"/>
<glyph d="M155.5 42q-47.5 48 -47.5 153q0 89 32 200t93.5 190t145.5 79q30 0 52 -8q-44 -26 -84.5 -107t-65.5 -181t-25 -177q0 -54 14 -85t44 -31q49 0 97.5 70.5t80 177.5t31.5 206q0 62 -10.5 99.5t-38.5 56.5t-79 19q-77 0 -143 -31.5t-105.5 -90t-39.5 -135.5q0 -27 5 -39.5 t5 -14.5q-50 0 -75.5 20t-25.5 64q0 69 56.5 132t150 102t196.5 39q125 0 181 -68t56 -188q0 -107 -40 -223t-123.5 -196.5t-205.5 -80.5q-84 0 -131.5 48z" glyph-name="uni041E" horiz-adv-x="665" unicode="О"/>
<glyph d="M241 658q-64 -10 -100 -57t-36 -141q0 -37 7 -51.5t7 -16.5q-54 0 -80.5 22.5t-26.5 74.5q0 71 35 129.5t111.5 94.5t194.5 36q47 0 92 -5t55 -6q93 -13 172 -13q64 0 116 21q-3 -126 -120 -127l-133 -619h-144l136 631l-78 12q-47 9 -65 11l-140 -654h-144z" glyph-name="uni041F" horiz-adv-x="688" unicode="П"/>
<glyph d="M230 636l148 20l-71 -334q48 4 88.5 42t63.5 94t23 110q0 60 -31 98t-93 38q-122 0 -190.5 -64t-68.5 -179q0 -37 7 -51.5t7 -16.5q-54 0 -80.5 22.5t-26.5 74.5q0 64 52.5 124.5t134.5 98t164 37.5q79 0 132 -27t78.5 -71.5t25.5 -98.5q0 -65 -35.5 -127t-101.5 -101.5 t-152 -39.5h-5l-61 -285h-144z" glyph-name="uni0420" horiz-adv-x="573" unicode="Р"/>
<glyph d="M72 41q-53 57 -53 189q0 105 35.5 226t114 207.5t199.5 86.5q75 0 121 -33t46 -101q0 -43 -17 -67.5t-53 -24.5t-57 26q18 9 32 36t14 56q0 27 -14.5 44t-46.5 17q-53 0 -101 -72.5t-77.5 -182.5t-29.5 -212q0 -76 26 -116t94 -40q59 0 109 26t86 74l23 -10 q-25 -63 -74 -105t-105 -61.5t-106 -19.5q-113 0 -166 57z" glyph-name="uni0421" horiz-adv-x="497" unicode="С"/>
<glyph d="M299 662h-12q-89 0 -138.5 -44.5t-49.5 -157.5q0 -37 7 -51.5t7 -16.5q-54 0 -80.5 22.5t-26.5 74.5q0 71 35 129.5t111.5 94.5t194.5 36q66 0 142 -12q64 -11 114 -11q64 0 116 21q-2 -65 -33 -96t-92 -31q-32 0 -64 5t-91 17l-138 -642h-144z" glyph-name="uni0422" horiz-adv-x="481" unicode="Т"/>
<glyph d="M228.5 15.5q-22.5 20.5 -22.5 52.5q0 33 18 52t51 19q26 0 42 -15.5t20 -43.5q32 12 60 74l-143 529q-71 -27 -110 -83.5t-39 -138.5q0 -37 7 -51.5t7 -16.5q-54 0 -80.5 22.5t-26.5 74.5q0 64 52.5 124.5t134.5 98t164 37.5q14 0 40 -2l87 -375l158 372h66l-250 -591 q-29 -67 -67.5 -113t-102.5 -46q-43 0 -65.5 20.5z" glyph-name="uni0423" horiz-adv-x="644" unicode="У"/>
<glyph d="M259 103q-122 2 -181 63.5t-59 153.5q0 137 97 209.5t253 88.5l32 150q-99 -7 -143.5 -29.5t-44.5 -68.5q0 -19 8 -43q-6 -1 -17 -1q-37 0 -60.5 17t-23.5 50q2 56 81 86t190 30q89 0 159 -15l-38 -175q119 -12 181.5 -70.5t62.5 -144.5q0 -82 -41 -151t-116 -109.5 t-172 -40.5h-24l-22 -103h-144zM358 569q-101 -18 -151 -81.5t-50 -181.5q0 -62 30.5 -107t81.5 -49zM419 150q60 0 106.5 38.5t72.5 99t26 123.5q0 134 -122 158l-89 -419h6z" glyph-name="uni0424" horiz-adv-x="786" unicode="Ф"/>
<glyph d="M322 332l-74 351q-71 -27 -110 -83.5t-39 -138.5q0 -37 7 -51.5t7 -16.5q-54 0 -80.5 22.5t-26.5 74.5q0 64 52.5 124.5t134.5 98t164 37.5q14 0 40 -2l43 -208l116 205h70l-168 -291l94 -454h-159l-53 250l-145 -250h-61z" glyph-name="uni0425" horiz-adv-x="620" unicode="Х"/>
<glyph d="M510 -150.5q-33 17.5 -79 53.5q-39 31 -69.5 50.5t-73.5 33t-98 13.5q-68 0 -86 -5l-5 -1l146 685q-67 -27 -103.5 -82.5t-36.5 -135.5q0 -37 7 -51.5t7 -16.5q-54 0 -80.5 22.5t-26.5 74.5q0 70 54.5 129.5t139.5 94.5t170 35q18 0 27 -1l-143 -675q34 0 66 -7.5 t73 -23.5l151 706h144l-164 -765q56 -24 96 -24q55 0 86 17q-7 -74 -36 -109t-90 -35q-43 0 -76 17.5z" glyph-name="uni0426" horiz-adv-x="692" unicode="Ц"/>
<glyph d="M492 333q-38 -23 -74 -31t-74 -8q-63 0 -102 35.5t-39 107.5q0 54 11 104l31 139q-67 -28 -103.5 -84t-36.5 -135q0 -37 7 -51.5t7 -16.5q-54 0 -80.5 22.5t-26.5 74.5q0 64 52.5 124.5t134.5 98t164 37.5q14 0 40 -2l-45 -207q-14 -68 -14 -96q0 -39 21.5 -56t53.5 -17 q49 0 88 32l73 344h144l-159 -748h-144z" glyph-name="uni0427" horiz-adv-x="695" unicode="Ч"/>
<glyph d="M245 680q-67 -28 -103.5 -84t-36.5 -135q0 -37 7 -51.5t7 -16.5q-54 0 -80.5 22.5t-26.5 74.5q0 64 52.5 124.5t134.5 98t164 37.5q14 0 40 -2l-144 -674h117l144 674h144l-144 -674h127l144 674h144l-159 -748h-676z" glyph-name="uni0428" horiz-adv-x="906" unicode="Ш"/>
<glyph d="M730 -151q-57 17 -159 54q-129 47 -216 72t-165 25q-68 0 -91 -6l146 686q-67 -27 -103.5 -83t-36.5 -135q0 -38 7 -52t7 -17q-53 0 -80 21.5t-27 70.5q0 68 52.5 129.5t134 98.5t163.5 37q15 0 41 -2l-144 -675q8 1 26 1q41 0 89 -10l146 684h144l-152 -714 q66 -15 121 -30l158 744h144l-165 -775q68 -14 109 -14q44 0 75 17q-7 -74 -36 -109t-88 -35q-43 0 -100 17z" glyph-name="uni0429" horiz-adv-x="934" unicode="Щ"/>
<glyph d="M389.5 6q-26.5 23 -26.5 60q0 22 11 49q28 -36 67 -36q50 0 74.5 53.5t24.5 121.5q0 123 -95 123q-27 0 -49 -11l-79 -366h-144l142 661q-14 1 -40 1q-49 0 -80 -9t-54 -34q-17 -19 -26 -46.5t-9 -59.5q0 -66 38 -123q-15 -3 -30 -3q-45 0 -73.5 26t-28.5 76 q0 65 40 124.5t119.5 97.5t191.5 38q64 0 114 -8l-70 -323q54 18 103 18q84 0 126.5 -50.5t42.5 -134.5q0 -55 -23.5 -117.5t-71.5 -106.5t-119 -44q-49 0 -75.5 23z" glyph-name="uni042A" horiz-adv-x="714" unicode="Ъ"/>
<glyph d="M315.5 6q-26.5 23 -26.5 60q0 22 11 49q28 -36 67 -36q50 0 74.5 53.5t24.5 121.5q0 123 -95 123q-27 0 -49 -11l-78 -366h-144l145 680q-67 -28 -103.5 -84t-36.5 -135q0 -37 7 -51.5t7 -16.5q-54 0 -80.5 22.5t-26.5 74.5q0 64 52.5 124.5t134.5 98t164 37.5 q14 0 40 -2l-70 -330q58 18 103 18q84 0 126.5 -50.5t42.5 -134.5q0 -55 -23.5 -117.5t-71.5 -106.5t-119 -44q-49 0 -75.5 23zM794 748h144l-159 -748h-144z" glyph-name="uni042B" horiz-adv-x="909" unicode="Ы"/>
<glyph d="M315.5 6q-26.5 23 -26.5 60q0 22 11 49q28 -36 67 -36q50 0 74.5 53.5t24.5 121.5q0 123 -95 123q-27 0 -49 -11l-78 -366h-144l145 680q-67 -28 -103.5 -84t-36.5 -135q0 -37 7 -51.5t7 -16.5q-54 0 -80.5 22.5t-26.5 74.5q0 64 52.5 124.5t134.5 98t164 37.5 q14 0 40 -2l-70 -330q58 18 103 18q84 0 126.5 -50.5t42.5 -134.5q0 -55 -23.5 -117.5t-71.5 -106.5t-119 -44q-49 0 -75.5 23z" glyph-name="uni042C" horiz-adv-x="640" unicode="Ь"/>
<glyph d="M36 17q-47 33 -47 101q0 43 17 67.5t53 24.5t57 -26q-14 -9 -25 -36t-11 -56q0 -26 16 -43.5t50 -17.5q45 0 88.5 49t76 128.5t47.5 167.5h-212l16 74h205q2 32 2 48q0 81 -26.5 123.5t-93.5 42.5q-54 0 -90 -26.5t-75 -83.5l-23 10q38 94 108.5 140t146.5 46 q113 0 166 -57t53 -189q0 -106 -38 -226.5t-122 -207t-214 -86.5q-78 0 -125 33z" glyph-name="uni042D" horiz-adv-x="544" unicode="Э"/>
<glyph d="M436.5 42q-47.5 48 -47.5 153q0 82 26 181h-91l-80 -376h-144l145 680q-67 -28 -103.5 -84t-36.5 -135q0 -37 7 -51.5t7 -16.5q-54 0 -80.5 22.5t-26.5 74.5q0 64 52.5 124.5t134.5 98t164 37.5q14 0 40 -2l-64 -298h101q36 90 90.5 147t125.5 57q30 0 52 -8 q-44 -26 -83.5 -105t-63.5 -176t-24 -174q0 -54 14 -85t44 -31q49 0 97.5 68.5t80 172.5t31.5 203q0 85 -32 130t-106 45q-49 0 -85.5 -17t-54.5 -47q-3 11 -3 20q0 27 22.5 50t60.5 36.5t84 13.5q127 0 187 -63.5t60 -192.5q0 -107 -40 -223t-123.5 -196.5t-205.5 -80.5 q-84 0 -131.5 48z" glyph-name="uni042E" horiz-adv-x="946" unicode="Ю"/>
<glyph d="M-46 0q35 18 52 43t26 68l23 110q15 71 46 105t88 44q-78 43 -78 143q0 64 39 118t114 86.5t179 32.5q70 0 126.5 -20t89.5 -56.5t33 -83.5q0 -52 -26.5 -74.5t-78.5 -22.5q1 2 7 17.5t6 50.5q0 73 -39 106t-120 33q-71 0 -122 -25t-77 -67.5t-26 -93.5q0 -45 17 -76 t42.5 -46t51.5 -15h1l56 259l148 20l-140 -656h-144l71 334q-37 -2 -57.5 -10.5t-39.5 -26.5q-20 -19 -31.5 -58.5t-24.5 -107.5q-12 -57 -11 -53q-10 -45 -30 -70t-63 -25q-58 0 -108 17z" glyph-name="uni042F" horiz-adv-x="630" unicode="Я"/>
<glyph d="M25 33q-38 39 -38 122q0 74 29.5 155.5t88 138t139.5 56.5q41 0 61 -14t20 -37v-7l11 53h144l-72 -340q-4 -15 -4 -32q0 -43 41 -43q28 0 48.5 26t32.5 68h42q-37 -108 -91.5 -146.5t-109.5 -38.5q-42 0 -67.5 23.5t-30.5 68.5q-29 -41 -64.5 -66.5t-84.5 -25.5 q-57 0 -95 39zM234.5 114.5q24.5 23.5 33.5 64.5l48 226q0 13 -10 25.5t-31 12.5q-40 0 -72 -46.5t-50 -112t-18 -115.5t14.5 -64t35.5 -14q25 0 49.5 23.5z" glyph-name="uni0430" horiz-adv-x="526" unicode="а"/>
<glyph d="M28.5 37.5q-41.5 41.5 -41.5 127.5q0 78 32.5 149t94.5 115t146 44l17 -1q-16 19 -49 52q-37 36 -55 61.5t-18 56.5q0 38 26 56t82 18h152h31q26 0 38 3t19 12.5t13 32.5h44q-16 -78 -35 -116t-49.5 -52t-84.5 -14h-96q-6 0 -9.5 -2.5t-3.5 -9.5q0 -4 17 -26 q37 -45 63 -97t26 -122q0 -76 -29.5 -152.5t-84.5 -126.5t-127 -50q-77 0 -118.5 41.5zM253 136q27 50 39.5 113t12.5 97q0 38 -9 52t-29 14q-44 0 -74 -48t-45 -109t-15 -95q0 -43 11.5 -58.5t40.5 -15.5q41 0 68 50z" glyph-name="uni0431" horiz-adv-x="430" unicode="б"/>
<glyph d="M27.5 45q-41.5 49 -41.5 131q0 80 43 220.5t114 247.5t153 107q110 0 110 -137q0 -97 -82 -240q21 -10 38 -30q44 0 95.5 19t87.5 44l9 -27q-27 -29 -71.5 -50.5t-97.5 -30.5q5 -19 5 -50q0 -67 -29 -125t-83 -93t-126 -35q-83 0 -124.5 49zM250.5 107q23.5 21 36 53 t12.5 66q0 37 -9 55q-7 -3 -15 -4.5t-21 -1.5q-24 0 -38 13t-14 36q0 30 18.5 44t51.5 16q29 53 49.5 117.5t20.5 116.5q0 30 -7.5 42.5t-25.5 12.5q-39 0 -79.5 -97t-67.5 -221t-27 -182q0 -87 61 -87q31 0 54.5 21z" glyph-name="uni0432" horiz-adv-x="449" unicode="в"/>
<glyph d="M19.5 22q-40.5 28 -40.5 85q0 37 16.5 64.5t39.5 46t61 42.5q48 29 71.5 52.5t23.5 58.5q0 22 -11.5 34.5t-34.5 12.5q-33 0 -59 -25t-49 -79h-48q33 94 84 144.5t134 50.5q58 0 96.5 -28t38.5 -85q0 -43 -18 -75t-44 -52.5t-65 -44.5q-44 -27 -64 -46.5t-20 -46.5 q0 -53 71 -53q45 0 85.5 23t87.5 78h34q-54 -86 -120.5 -135.5t-154.5 -49.5q-74 0 -114.5 28z" glyph-name="uni0433" horiz-adv-x="375" unicode="г"/>
<glyph d="M97 -225q-32 25 -32 72q0 57 46 91.5t117 57.5l12 53q-51 -55 -120 -55q-57 0 -95 39t-38 122q0 74 29.5 155.5t88 138t139.5 56.5q41 0 61 -14t20 -37v-6l11 52h144l-99 -464q48 16 77 48t49 95h42q-27 -89 -73 -130.5t-104 -56.5l-15 -72q-20 -97 -69 -133.5 t-111 -36.5q-48 0 -80 25zM232 112q24 21 33 57l51 237q0 12 -10 24.5t-31 12.5q-40 0 -72 -46.5t-50 -112t-18 -115.5t14.5 -64t35.5 -14q23 0 47 21zM187 -149q16 23 25 66l6 29q-98 -36 -98 -85q0 -13 9 -23t25 -10q17 0 33 23z" glyph-name="uni0434" horiz-adv-x="507" unicode="д"/>
<glyph d="M28 32.5q-41 38.5 -41 120.5q0 69 27 152t88 143.5t155 60.5q110 0 110 -96q0 -56 -32 -103t-85 -75.5t-113 -32.5q-2 -30 -2 -40q0 -49 17 -66.5t55 -17.5q54 0 92.5 25t84.5 76h34q-111 -185 -275 -185q-74 0 -115 38.5zM215.5 276q33.5 24 54 61t20.5 78t-25 41 q-36 0 -70.5 -63t-49.5 -143q37 2 70.5 26z" glyph-name="uni0435" horiz-adv-x="384" unicode="е"/>
<glyph d="M-8.5 24.5q-28.5 30.5 -28.5 75.5q0 40 17 62t42 22q22 0 36 -14q-13 -35 -13 -66q0 -29 11 -43t25 -14q27 0 52 45t41 112t16 126q0 105 -61 105q-28 0 -45 -18t-32 -57h-52q22 73 60.5 111t105.5 38q68 0 107 -43t39 -116q0 -24 -3 -50h60l42 200h134l-42 -200h56 q27 91 78 150t127 59q56 0 79.5 -26.5t23.5 -65.5q0 -35 -14.5 -54t-36.5 -19q-18 0 -35 12q10 33 10 59q0 19 -6 30t-17 11q-25 0 -50.5 -45.5t-41.5 -112t-16 -125.5q0 -53 20 -79t54 -26q38 0 81 28.5t75 82.5h34q-34 -75 -100 -130t-140 -55q-68 0 -107 43t-39 116 q0 52 8 87h-57l-50 -240h-134l51 240h-56q-21 -102 -76 -174t-142 -72q-62 0 -90.5 30.5z" glyph-name="uni0436" horiz-adv-x="882" unicode="ж"/>
<glyph d="M88 -225q-32 25 -32 72q0 97 157 147q-3 106 -72 106h-31l13 60h29q35 0 63 23t44 62.5t16 86.5q0 86 -61 86q-55 0 -97 -56.5t-75 -182.5h-42q28 111 55 178t78 109.5t135 42.5q73 0 115.5 -42t42.5 -117q0 -60 -28.5 -108.5t-65.5 -78t-61 -34.5q26 -9 49.5 -36 t32.5 -64q57 17 89.5 49t55.5 101h42q-27 -91 -75 -133t-108 -57q-2 -112 -53.5 -175.5t-135.5 -63.5q-48 0 -80 25zM185 -137q19 35 25 83q-99 -34 -99 -85q0 -15 8.5 -24t25.5 -9q21 0 40 35z" glyph-name="uni0437" horiz-adv-x="498" unicode="з"/>
<glyph d="M21.5 24q-29.5 30 -29.5 90q0 25 8 65l68 321h144l-72 -340q-3 -15 -3 -28q0 -41 30 -41q28 0 48 23.5t32 64.5l68 321h144l-72 -340q-4 -15 -4 -32q0 -20 9.5 -28.5t31.5 -8.5q28 0 48.5 24t32.5 64h42q-37 -108 -91.5 -146.5t-109.5 -38.5q-43 0 -68.5 24t-30.5 71 q-34 -55 -71.5 -75t-76.5 -20q-48 0 -77.5 30z" glyph-name="uni0438" unicode="и"/>
<glyph d="M21.5 24q-29.5 30 -29.5 90q0 25 8 65l68 321h144l-72 -340q-3 -15 -3 -28q0 -41 30 -41q28 0 48 23.5t32 64.5l68 321h144l-72 -340q-4 -15 -4 -32q0 -20 9.5 -28.5t31.5 -8.5q28 0 48.5 24t32.5 64h42q-37 -108 -91.5 -146.5t-109.5 -38.5q-43 0 -68.5 24t-30.5 71 q-34 -55 -71.5 -75t-76.5 -20q-48 0 -77.5 30zM158 572q-34 23 -34 63q0 33 18.5 53t48.5 20q29 0 45.5 -14t16.5 -40q0 -32 -24 -48q13 -4 40 -4q45 0 87.5 27.5t66.5 89.5h42q-32 -93 -85 -131.5t-126 -38.5q-62 0 -96 23z" glyph-name="uni0439" unicode="й"/>
<glyph d="M270.5 23.5q-30.5 29.5 -30.5 81.5q0 14 7 56q5 25 5 39q0 48 -38 48q-13 0 -24.5 -7.5t-39.5 -29.5l-44 -211h-144l107 500h144l-43 -198q68 80 108 122t73.5 63.5t65.5 21.5q62 0 62 -66q0 -30 -16.5 -47.5t-46.5 -17.5q-28 0 -42 15.5t-13 35.5q-19 -12 -34 -27 t-33 -39q-21 -28 -41 -48q20 4 42 4q52 0 73.5 -23t21.5 -70q0 -14 -6 -46q-6 -34 -6 -52q0 -37 40 -37q28 0 44.5 19t38.5 69h42q-63 -185 -182 -185q-60 0 -90.5 29.5z" glyph-name="uni043A" horiz-adv-x="501" unicode="к"/>
<glyph d="M-6.5 27.5q-31.5 33.5 -31.5 81.5q0 34 16 54.5t44 20.5q24 0 39 -15t15 -36q0 -24 -12 -36.5t-28 -10.5q0 -38 39 -38q27 0 45 21.5t31 64.5t27 118q19 101 44.5 155t59 73.5t82.5 19.5h147l-53 -248q-10 -43 -17 -75t-7 -44q0 -42 40 -42q28 0 45 19t39 69h42 q-63 -185 -189 -185q-55 0 -85 31t-30 75q0 35 22 136l47 213q-38 0 -61.5 -16t-39.5 -54t-30 -107q-22 -113 -37.5 -166.5t-42.5 -82.5t-75 -29q-54 0 -85.5 33.5z" glyph-name="uni043B" horiz-adv-x="558" unicode="л"/>
<glyph d="M869 179q-63 -185 -186 -185q-57 0 -87.5 30.5t-30.5 75.5q0 39 21 133l29 130l-181 -363h-118l-27 419q-18 -21 -32 -60.5t-27 -106.5q-19 -98 -34.5 -150t-43 -80t-73.5 -28q-54 0 -85.5 33.5t-31.5 81.5q0 34 16 54.5t44 20.5q24 0 39 -15t15 -36q0 -24 -12 -36.5 t-28 -10.5q0 -38 39 -38q28 0 46 20.5t31.5 67.5t29.5 136q22 127 66.5 177.5t116.5 50.5h45l19 -384l189 384h162l-53 -248q-10 -43 -17 -75t-7 -44q0 -42 40 -42q28 0 45 19t39 69h42z" glyph-name="uni043C" horiz-adv-x="827" unicode="м"/>
<glyph d="M275.5 24.5q-30.5 30.5 -30.5 75.5q0 29 23 140h-111l-51 -240h-144l106 500h144l-43 -200h112l45 200h134l-53 -248q-10 -43 -17 -75t-7 -44q0 -42 40 -42q28 0 45 19t39 69h42q-63 -185 -186 -185q-57 0 -87.5 30.5z" glyph-name="uni043D" horiz-adv-x="507" unicode="н"/>
<glyph d="M29 34q-43 38 -43 120q0 68 28 151t90 143.5t156 60.5q128 0 128 -160v-1q3 -1 11 -1q33 0 76 17.5t78 42.5l9 -27q-29 -31 -75.5 -52.5t-101.5 -30.5q-8 -91 -41 -159t-85 -105t-113 -37q-74 0 -117 38zM234 113.5q24 27.5 42 75t26 105.5q-27 6 -27 42q0 41 31 54 q-2 33 -10 45.5t-28 12.5q-33 0 -64 -48t-50 -115t-19 -118q0 -48 11 -64.5t40 -16.5q24 0 48 27.5z" glyph-name="uni043E" horiz-adv-x="439" unicode="о"/>
<glyph d="M271.5 26.5q-28.5 32.5 -28.5 80.5q0 21 5 47.5t10.5 51.5t7.5 32q8 35 15 69t7 55q0 51 -36 51q-26 0 -46 -25.5t-32 -66.5l-68 -321h-144l106 500h144l-11 -52q50 56 117 56q51 0 81 -28t30 -85q0 -29 -7 -64.5t-20 -86.5q-8 -31 -14.5 -60.5t-6.5 -46.5q0 -20 9 -31 t31 -11q30 0 48 21.5t36 66.5h42q-37 -110 -85.5 -147.5t-100.5 -37.5q-61 0 -89.5 32.5z" glyph-name="uni043F" unicode="п"/>
<glyph d="M76 537h144l-16 -75q50 43 117 43q56 0 89 -37t33 -121q0 -79 -23 -159.5t-78 -137t-145 -56.5q-64 0 -85 36l-52 -244l-151 -36zM245.5 126q31.5 45 46 107.5t14.5 116.5q0 83 -50 83q-18 0 -36.5 -13t-32.5 -36l-59 -280q8 -23 38 -23q48 0 79.5 45z" glyph-name="uni0440" horiz-adv-x="468" unicode="р"/>
<glyph d="M28 32.5q-41 38.5 -41 120.5q0 69 27.5 152t88 143.5t153.5 60.5q60 0 85.5 -26t25.5 -66q0 -35 -15 -54t-38 -19q-17 0 -35 12q12 33 12 59q0 19 -7 30t-21 11q-30 0 -60 -49t-49 -119t-19 -126q0 -49 17 -66.5t55 -17.5q54 0 92.5 25t84.5 76h34q-111 -185 -275 -185 q-74 0 -115 38.5z" glyph-name="uni0441" horiz-adv-x="384" unicode="с"/>
<glyph d="M518.5 26.5q-28.5 32.5 -28.5 80.5q0 21 5 47.5t10.5 51.5t7.5 32q8 35 15 69t7 55q0 51 -36 51q-26 0 -46 -25.5t-32 -66.5l-68 -321h-144l73 345q3 12 3 25q0 44 -30 44q-28 0 -48.5 -25.5t-32.5 -67.5l-68 -321h-144l106 500h144l-11 -52q51 57 122 57q88 0 103 -86 q55 85 139 85q51 0 81 -28t30 -85q0 -29 -7 -64.5t-20 -86.5q-8 -31 -14.5 -60.5t-6.5 -46.5q0 -20 9 -31t31 -11q30 0 48 21.5t36 66.5h42q-37 -110 -85.5 -147.5t-100.5 -37.5q-61 0 -89.5 32.5z" glyph-name="uni0442" horiz-adv-x="752" unicode="т"/>
<glyph d="M76 -225q-32 25 -32 72q0 57 46 91.5t117 57.5l12 54q-29 -32 -59 -44t-61 -12q-48 0 -77.5 30t-29.5 90q0 25 8 65l68 321h144l-72 -340q-3 -12 -3 -25q0 -44 30 -44q26 0 46 22.5t32 59.5l70 327h144l-99 -464q48 16 77 48t49 95h42q-27 -89 -73 -130.5t-104 -56.5 l-15 -72q-20 -97 -69 -133.5t-111 -36.5q-48 0 -80 25zM166 -149q16 23 25 66l6 29q-98 -36 -98 -85q0 -13 9 -23t25 -10q17 0 33 23z" glyph-name="uni0443" horiz-adv-x="486" unicode="у"/>
<glyph d="M240 49q-51 -55 -116 -55t-101.5 40t-36.5 121q0 113 63 225q31 56 82 90.5t112 34.5q82 0 82 -55l50 230l138 20l-54 -238q49 43 117 43q122 0 122 -158q0 -96 -26 -175.5t-82.5 -128.5t-141.5 -49q-60 0 -81 36l-52 -244l-141 -36zM179 91q23 0 47 18t36 53l53 247 q-6 34 -44 34q-36 0 -71 -50q-33 -49 -50 -112q-17 -68 -17 -111q0 -29 6 -46.5t14 -23.5q9 -9 26 -9zM496 121q32 40 48.5 102t16.5 127q0 83 -50 83q-41 0 -69 -49l-59 -280q8 -23 38 -23q43 0 75 40z" glyph-name="uni0444" horiz-adv-x="738" unicode="ф"/>
<glyph d="M283.5 36q-30.5 42 -45.5 132l-138 -168h-72l202 228l-16 112q-8 49 -16.5 66t-21.5 17q-20 0 -45 -27.5t-48.5 -83t-40.5 -133.5h-42q29 136 86.5 231t149.5 95q54 0 78.5 -35.5t29.5 -83.5l9 -76q43 48 64 82.5t23 61.5q-14 -2 -17 -2q-25 0 -36 15.5t-11 40.5t19.5 37 t48.5 12q26 0 41 -27.5t15 -63.5q0 -44 -30 -88.5t-109 -129.5l9 -70q6 -48 20.5 -67.5t41.5 -19.5q29 0 54 24.5t36 63.5h42q-36 -104 -92 -144.5t-112 -40.5q-46 0 -76.5 42z" glyph-name="uni0445" horiz-adv-x="522" unicode="х"/>
<glyph d="M115.5 -125q18.5 39 47.5 55t76 16h78q36 0 53.5 4t31.5 23t23 62q-26 -26 -44 -33.5t-45 -7.5q-36 0 -60 24.5t-29 70.5q-34 -55 -71.5 -75t-76.5 -20q-48 0 -77.5 30t-29.5 90q0 25 8 65l68 321h144l-72 -340q-3 -15 -3 -28q0 -41 30 -41q28 0 48 23.5t32 64.5l68 321 h144l-72 -340q-4 -15 -4 -32q0 -20 9.5 -28.5t31.5 -8.5h51q-11 -120 -43 -181.5t-69 -79.5t-79 -18h-69q-42 0 -63 -3t-32 -13t-16 -32h-20q13 72 31.5 111z" glyph-name="uni0446" horiz-adv-x="535" unicode="ц"/>
<glyph d="M268.5 24q-29.5 30 -29.5 90q0 25 8 65l5 25q-29 -32 -59 -44t-61 -12q-48 0 -77.5 30t-29.5 90q0 25 8 65l35 167h144l-39 -186q-3 -15 -3 -28q0 -41 30 -41q29 0 50.5 24.5t29.5 63.5l35 167h144l-72 -340q-4 -15 -4 -32q0 -20 9.5 -28.5t31.5 -8.5q28 0 48.5 24 t32.5 64h42q-37 -108 -91.5 -146.5t-109.5 -38.5q-48 0 -77.5 30z" glyph-name="uni0447" unicode="ч"/>
<glyph d="M21.5 24q-29.5 30 -29.5 90q0 25 8 65l68 321h144l-72 -340q-3 -15 -3 -28q0 -41 30 -41q28 0 48 23.5t32 64.5l68 321h144l-72 -340q-3 -15 -3 -28q0 -41 30 -41q28 0 48 23.5t32 64.5l68 321h144l-72 -340q-4 -15 -4 -32q0 -20 9.5 -28.5t31.5 -8.5q28 0 48.5 24 t32.5 64h42q-37 -108 -91.5 -146.5t-109.5 -38.5q-43 0 -68.5 24t-30.5 71q-34 -55 -71.5 -75t-76.5 -20q-43 0 -68.5 24t-30.5 71q-34 -55 -71.5 -75t-76.5 -20q-48 0 -77.5 30z" glyph-name="uni0448" horiz-adv-x="752" unicode="ш"/>
<glyph d="M352 -120q19 38 49.5 52t84.5 14h78q36 0 53.5 4t31.5 23t23 62q-26 -26 -44 -33.5t-45 -7.5q-36 0 -60 24.5t-29 70.5q-34 -55 -71.5 -75t-76.5 -20q-43 0 -68.5 24t-30.5 71q-34 -55 -71.5 -75t-76.5 -20q-48 0 -77.5 30t-29.5 90q0 25 8 65l68 321h144l-72 -340 q-3 -15 -3 -28q0 -41 30 -41q28 0 48 23.5t32 64.5l68 321h144l-72 -340q-3 -15 -3 -28q0 -41 30 -41q28 0 48 23.5t32 64.5l68 321h144l-72 -340q-4 -15 -4 -32q0 -20 9.5 -28.5t31.5 -8.5h51q-11 -120 -43 -181.5t-69 -79.5t-79 -18h-69h-30q-26 0 -39 -3t-20.5 -13 t-11.5 -32h-44q16 78 35 116z" glyph-name="uni0449" horiz-adv-x="782" unicode="щ"/>
<glyph d="M36 27q-42 33 -42 96q0 74 53 153t139 170h-39q-28 0 -41.5 -3t-13.5 -13q0 -2 5.5 -4.5t5.5 -17.5q0 -26 -16 -39.5t-38 -13.5q-19 0 -32.5 11.5t-13.5 32.5q0 40 32 70.5t84 30.5h170l-30 -48q-53 -78 -72 -125q48 31 104 31q49 0 83 -31.5t34 -93.5q0 -71 -36 -125.5 t-96.5 -84t-130.5 -29.5q-67 0 -109 33zM227 103q23 24 36.5 59.5t13.5 66.5q0 55 -49 55q-34 0 -59 -17q-19 -50 -26 -80t-7 -57q0 -51 40 -51q28 0 51 24z" glyph-name="uni044A" horiz-adv-x="448" unicode="ъ"/>
<glyph d="M31.5 28q-37.5 34 -37.5 94q0 30 7 57l66 321h138l-74 -352q-3 -8 -3 -28q0 -41 45 -41q27 0 52 22.5t40 60.5t15 83q0 25 -15 38q-13 -9 -29 -9q-17 0 -30.5 11t-13.5 32q0 22 17 34t39 12q23 0 41 -6q64 29 153 83q72 43 104 60h62l-53 -248q-10 -43 -17 -75t-7 -44 q0 -42 40 -42q28 0 45 19t39 69h42q-63 -185 -185 -185q-58 0 -88 31.5t-30 77.5q0 36 55 282q-47 -30 -112 -65q24 -37 24 -100q0 -47 -25 -99.5t-75.5 -89.5t-123.5 -37q-68 0 -105.5 34z" glyph-name="uni044B" horiz-adv-x="655" unicode="ы"/>
<glyph d="M34.5 28q-40.5 34 -40.5 94q0 30 7 57l68 321h144l-34 -162q32 13 53.5 16.5t46.5 3.5q60 0 94.5 -35t34.5 -98q0 -47 -28 -101t-87.5 -92t-148.5 -38q-69 0 -109.5 34zM226.5 101q22.5 22 36.5 55t14 63t-14 47.5t-40 17.5q-11 0 -30.5 -6t-28.5 -12l-25 -118 q-3 -8 -3 -28q0 -41 43 -41q25 0 47.5 22z" glyph-name="uni044C" horiz-adv-x="448" unicode="ь"/>
<glyph d="M-17.5 22q-34.5 28 -34.5 78q0 40 16.5 62t41.5 22q22 0 37 -14q-13 -35 -13 -68q0 -55 55 -55q41 0 76 56.5t53 136.5h-124l13 60h120q2 26 2 38q0 49 -19 68t-63 19q-29 0 -51 -16t-40 -49h-51q31 73 78 111t129 38q78 0 121.5 -41t43.5 -123q0 -64 -31 -147 t-96.5 -143.5t-161.5 -60.5q-67 0 -101.5 28z" glyph-name="uni044D" horiz-adv-x="413" unicode="э"/>
<glyph d="M265 34q-43 38 -43 120q0 38 9 86h-75l-50 -240h-144l106 500h144l-42 -200h78q30 89 92.5 149t155.5 60q128 0 128 -160v-1q3 -1 11 -1q33 0 76 17.5t78 42.5l9 -27q-29 -31 -75.5 -52.5t-101.5 -30.5q-8 -91 -41 -159t-85 -105t-113 -37q-74 0 -117 38zM470 113.5 q24 27.5 42 75t26 105.5q-27 6 -27 42q0 41 31 54q-2 33 -10 45.5t-28 12.5q-33 0 -64 -48t-50 -115t-19 -118q0 -48 11 -64.5t40 -16.5q24 0 48 27.5z" glyph-name="uni044E" horiz-adv-x="675" unicode="ю"/>
<glyph d="M-9 26.5q-29 32.5 -29 80.5q0 36 16.5 58t45.5 22q23 0 37.5 -14.5t14.5 -37.5q0 -24 -11.5 -36t-28.5 -10q1 -13 10 -22.5t29 -9.5q32 0 49.5 36t35.5 118q-44 9 -69.5 38t-25.5 78q0 77 62 125t201 48h152l-53 -248q-10 -43 -17 -75t-7 -44q0 -42 40 -42q28 0 45 19 t39 69h42q-63 -185 -186 -185q-57 0 -87.5 30.5t-30.5 75.5q0 29 18 112q-27 -6 -56 -6q-18 -77 -35 -121t-45 -67.5t-73 -23.5q-54 0 -83 32.5zM276 253q11 0 16 2l42 191h-24q-58 0 -88.5 -31.5t-30.5 -84.5q0 -77 72 -77h13z" glyph-name="uni044F" horiz-adv-x="527" unicode="я"/>
<glyph d="M28 32.5q-41 38.5 -41 120.5q0 69 27 152t88 143.5t155 60.5q110 0 110 -96q0 -56 -32 -103t-85 -75.5t-113 -32.5q-2 -30 -2 -40q0 -49 17 -66.5t55 -17.5q54 0 92.5 25t84.5 76h34q-111 -185 -275 -185q-74 0 -115 38.5zM215.5 276q33.5 24 54 61t20.5 78t-25 41 q-36 0 -70.5 -63t-49.5 -143q37 2 70.5 26zM152 750h105l29 -189h-55z" glyph-name="uni0450" horiz-adv-x="384" unicode="ѐ"/>
<glyph d="M28 32.5q-41 38.5 -41 120.5q0 69 27 152t88 143.5t155 60.5q110 0 110 -96q0 -56 -32 -103t-85 -75.5t-113 -32.5q-2 -30 -2 -40q0 -49 17 -66.5t55 -17.5q54 0 92.5 25t84.5 76h34q-111 -185 -275 -185q-74 0 -115 38.5zM215.5 276q33.5 24 54 61t20.5 78t-25 41 q-36 0 -70.5 -63t-49.5 -143q37 2 70.5 26zM139.5 590.5q-17.5 17.5 -17.5 43.5q0 25 17.5 43t43.5 18q25 0 43 -18t18 -43q0 -26 -18 -43.5t-43 -17.5q-26 0 -43.5 17.5zM319.5 590.5q-17.5 17.5 -17.5 43.5q0 25 17.5 43t43.5 18q25 0 43 -18t18 -43q0 -26 -18 -43.5 t-43 -17.5q-26 0 -43.5 17.5z" glyph-name="uni0451" horiz-adv-x="384" unicode="ё"/>
<glyph d="M81 -225q-32 25 -32 72q0 59 47.5 96t116.5 56q8 40 15 68q25 114 35.5 164.5t10.5 61.5q0 51 -36 51q-26 0 -48.5 -26.5t-30.5 -65.5l-53 -252h-144l106 500h-54l11 54h55l27 126l148 20l-31 -146h125l-12 -54h-125l-26 -121q50 56 118 56q51 0 81 -28t30 -85 q0 -19 -8 -59.5t-43 -193.5q-4 -22 -7 -33q50 17 82 49t52 94h42q-27 -90 -76 -131t-111 -56l-16 -72q-22 -98 -66 -134t-103 -36q-48 0 -80 25zM171 -149q16 23 25 66q3 20 7 32q-45 -17 -72 -38t-27 -50q0 -13 9 -23t25 -10q17 0 33 23z" glyph-name="uni0452" horiz-adv-x="491" unicode="ђ"/>
<glyph d="M19.5 22q-40.5 28 -40.5 85q0 37 16.5 64.5t39.5 46t61 42.5q48 29 71.5 52.5t23.5 58.5q0 22 -11.5 34.5t-34.5 12.5q-33 0 -59 -25t-49 -79h-48q33 94 84 144.5t134 50.5q58 0 96.5 -28t38.5 -85q0 -43 -18 -75t-44 -52.5t-65 -44.5q-44 -27 -64 -46.5t-20 -46.5 q0 -53 71 -53q45 0 85.5 23t87.5 78h34q-54 -86 -120.5 -135.5t-154.5 -49.5q-74 0 -114.5 28zM302 750h105l-141 -189h-55z" glyph-name="uni0453" horiz-adv-x="375" unicode="ѓ"/>
<glyph d="M28 32.5q-41 38.5 -41 120.5q0 69 27.5 152t88 143.5t153.5 60.5q60 0 85.5 -26t25.5 -66q0 -35 -15 -54t-38 -19q-17 0 -35 12q12 33 12 59q0 19 -7 30t-21 11q-29 0 -57.5 -45t-47.5 -111h119l-13 -60h-121q-8 -45 -8 -78q0 -49 17 -66.5t55 -17.5q54 0 92.5 25 t84.5 76h34q-111 -185 -275 -185q-74 0 -115 38.5z" glyph-name="uni0454" horiz-adv-x="384" unicode="є"/>
<glyph d="M33 12.5q-33 18.5 -49 48t-16 61.5q0 33 15.5 57.5t37.5 35.5q39 70 68 141.5t55 154.5l148 20q5 -128 17 -277q5 -60 5 -87q0 -23 -4 -38q47 27 72 50h42q-64 -74 -153 -125q-29 -31 -71.5 -45.5t-85.5 -14.5q-48 0 -81 18.5zM144 95q25 22 25 71q0 30 -6 84 q-10 114 -13 153q-24 -79 -81 -189q23 -12 23 -35q0 -19 -12.5 -34t-31.5 -15q-21 0 -27 13q0 -36 14.5 -53t46.5 -17q37 0 62 22z" glyph-name="uni0455" horiz-adv-x="382" unicode="ѕ"/>
<glyph d="M111 577q-23 23 -23 56t23 56.5t56 23.5t56.5 -23.5t23.5 -56.5t-23.5 -56t-56.5 -23t-56 23zM21.5 24q-29.5 30 -29.5 90q0 25 8 65l68 321h144l-72 -340q-4 -15 -4 -32q0 -20 9.5 -28.5t31.5 -8.5q29 0 54 24.5t36 63.5h42q-37 -108 -95 -146.5t-115 -38.5 q-48 0 -77.5 30z" glyph-name="uni0456" horiz-adv-x="267" unicode="і"/>
<glyph d="M33.5 590.5q-17.5 17.5 -17.5 43.5q0 25 17.5 43t43.5 18q25 0 43 -18t18 -43q0 -26 -18 -43.5t-43 -17.5q-26 0 -43.5 17.5zM213.5 590.5q-17.5 17.5 -17.5 43.5q0 25 17.5 43t43.5 18q25 0 43 -18t18 -43q0 -26 -18 -43.5t-43 -17.5q-26 0 -43.5 17.5zM21.5 24 q-29.5 30 -29.5 90q0 25 8 65l68 321h144l-72 -340q-4 -15 -4 -32q0 -20 9.5 -28.5t31.5 -8.5q29 0 54 24.5t36 63.5h42q-37 -108 -95 -146.5t-115 -38.5q-48 0 -77.5 30z" glyph-name="uni0457" horiz-adv-x="267" unicode="ї"/>
<glyph d="M103 578q-23 23 -23 56t23 56.5t56 23.5t56.5 -23.5t23.5 -56.5t-23.5 -56t-56.5 -23t-56 23zM-170 -225q-32 25 -32 72q0 97 164 149l107 504h144l-99 -464q48 16 77 48t49 95h42q-27 -89 -73 -130.5t-104 -56.5l-15 -72q-20 -97 -69 -133.5t-111 -36.5q-48 0 -80 25z M-80 -149q16 23 25 66l6 29q-98 -36 -98 -85q0 -13 9 -23t25 -10q17 0 33 23z" glyph-name="uni0458" horiz-adv-x="240" unicode="ј"/>
<glyph d="M-10.5 27q-27.5 33 -27.5 80q0 36 16.5 58t45.5 22q23 0 37.5 -14.5t14.5 -37.5q0 -24 -11.5 -36t-28.5 -10q2 -32 39 -32q27 0 43.5 20.5t25.5 52t20 86.5q2 9 4 18.5t4 17.5q21 101 48 155t61 73.5t83 19.5h147l-35 -162q32 13 53.5 16.5t46.5 3.5q60 0 94.5 -35 t34.5 -98q0 -48 -27.5 -101.5t-86 -91.5t-145.5 -38q-68 0 -107.5 34t-39.5 94q0 30 7 57l56 255q-35 0 -57 -19t-37.5 -59.5t-31.5 -113.5q-21 -98 -36.5 -145.5t-45 -75t-82.5 -27.5q-55 0 -82.5 33zM523.5 101q22.5 22 36.5 55t14 63t-14 47.5t-40 17.5q-11 0 -30.5 -6 t-28.5 -12l-25 -118q-3 -8 -3 -28q0 -41 43 -41q25 0 47.5 22z" glyph-name="uni0459" horiz-adv-x="745" unicode="љ"/>
<glyph d="M287.5 28q-39.5 34 -39.5 94q0 30 7 57l13 61h-111l-51 -240h-144l106 500h144l-43 -200h113l44 200h134l-35 -162q32 13 53.5 16.5t46.5 3.5q60 0 94.5 -35t34.5 -98q0 -48 -27.5 -101.5t-86 -91.5t-145.5 -38q-68 0 -107.5 34zM472.5 101q22.5 22 36.5 55t14 63 t-14 47.5t-40 17.5q-11 0 -30.5 -6t-28.5 -12l-25 -118q-3 -8 -3 -28q0 -41 43 -41q25 0 47.5 22z" glyph-name="uni045A" horiz-adv-x="694" unicode="њ"/>
<glyph d="M271.5 26.5q-28.5 32.5 -28.5 80.5q0 21 5.5 50t11.5 56q5 23 9.5 45t4.5 35q0 51 -36 51q-26 0 -48.5 -26.5t-30.5 -65.5l-53 -252h-144l106 500h-54l11 54h55l27 126l148 20l-31 -146h125l-12 -54h-125l-26 -121q50 56 118 56q51 0 81 -28t30 -85q0 -21 -4.5 -45 t-13.5 -58q-16 -62 -16 -86q0 -20 9 -31t31 -11q30 0 48 21.5t36 66.5h42q-37 -110 -85.5 -147.5t-100.5 -37.5q-61 0 -89.5 32.5z" glyph-name="uni045B" unicode="ћ"/>
<glyph d="M270.5 23.5q-30.5 29.5 -30.5 81.5q0 14 7 56q5 25 5 39q0 48 -38 48q-13 0 -24.5 -7.5t-39.5 -29.5l-44 -211h-144l107 500h144l-43 -198q68 80 108 122t73.5 63.5t65.5 21.5q62 0 62 -66q0 -30 -16.5 -47.5t-46.5 -17.5q-28 0 -42 15.5t-13 35.5q-19 -12 -34 -27 t-33 -39q-21 -28 -41 -48q20 4 42 4q52 0 73.5 -23t21.5 -70q0 -14 -6 -46q-6 -34 -6 -52q0 -37 40 -37q28 0 44.5 19t38.5 69h42q-63 -185 -182 -185q-60 0 -90.5 29.5zM345 750h105l-141 -189h-55z" glyph-name="uni045C" horiz-adv-x="501" unicode="ќ"/>
<glyph d="M21.5 24q-29.5 30 -29.5 90q0 25 8 65l68 321h144l-72 -340q-3 -15 -3 -28q0 -41 30 -41q28 0 48 23.5t32 64.5l68 321h144l-72 -340q-4 -15 -4 -32q0 -20 9.5 -28.5t31.5 -8.5q28 0 48.5 24t32.5 64h42q-37 -108 -91.5 -146.5t-109.5 -38.5q-43 0 -68.5 24t-30.5 71 q-34 -55 -71.5 -75t-76.5 -20q-48 0 -77.5 30zM173 750h105l29 -189h-55z" glyph-name="uni045D" unicode="ѝ"/>
<glyph d="M76 -225q-32 25 -32 72q0 57 46 91.5t117 57.5l12 54q-29 -32 -59 -44t-61 -12q-48 0 -77.5 30t-29.5 90q0 25 8 65l68 321h144l-72 -340q-3 -12 -3 -25q0 -44 30 -44q26 0 46 22.5t32 59.5l70 327h144l-99 -464q48 16 77 48t49 95h42q-27 -89 -73 -130.5t-104 -56.5 l-15 -72q-20 -97 -69 -133.5t-111 -36.5q-48 0 -80 25zM166 -149q16 23 25 66l6 29q-98 -36 -98 -85q0 -13 9 -23t25 -10q17 0 33 23zM157 572q-34 23 -34 63q0 33 18.5 53t48.5 20q29 0 45.5 -14t16.5 -40q0 -32 -24 -48q13 -4 40 -4q45 0 87.5 27.5t66.5 89.5h42 q-32 -93 -85 -131.5t-126 -38.5q-62 0 -96 23z" glyph-name="uni045E" horiz-adv-x="486" unicode="ў"/>
<glyph d="M21.5 24q-29.5 30 -29.5 90q0 25 8 65l68 321h144l-72 -340q-3 -15 -3 -28q0 -41 30 -41q28 0 48 23.5t32 64.5l68 321h144l-72 -340q-4 -15 -4 -32q0 -20 9.5 -28.5t31.5 -8.5q28 0 48.5 24t32.5 64h42q-37 -108 -91.5 -146.5t-109.5 -38.5q-43 0 -68.5 24t-30.5 71 q-34 -55 -71.5 -75t-76.5 -20q-48 0 -77.5 30zM190 -238q9 11 9 19q0 11 -5 19.5t-15 22.5q-14 16 -21 29.5t-7 35.5q0 59 83 112l11 -10q-8 -11 -8 -22q0 -9 5 -16.5t16 -20.5q16 -19 24.5 -35t8.5 -38q-3 -52 -84 -108z" glyph-name="uni045F" unicode="џ"/>
<glyph d="M550.5 385.5q42.5 -50.5 42.5 -134.5q0 -55 -23.5 -117.5t-71.5 -106.5t-119 -44q-49 0 -75.5 23t-26.5 60q0 22 11 49q28 -36 67 -36q50 0 74.5 53.5t24.5 121.5q0 123 -95 123q-27 0 -49 -11l-78 -366h-144l115 538h-11q-44 0 -68.5 -23t-24.5 -82q0 -37 7 -51.5 t7 -16.5q-54 0 -80.5 22.5t-26.5 74.5q0 65 53 110.5t163 51.5l26 124h143l-28 -131l37 -5q25 -4 52 -7t56 -3q64 0 116 21q-2 -65 -33 -96t-92 -31q-32 0 -64 5t-91 17h-2l-21 -100q59 18 103 18q84 0 126.5 -50.5z" glyph-name="uni0462" horiz-adv-x="659" unicode="Ѣ"/>
<glyph d="M521 359q60 0 95.5 -34.5t35.5 -99.5q0 -47 -28 -101t-87.5 -92t-148.5 -38q-69 0 -105.5 33t-36.5 95q0 27 6 57l13 54q2 8 9 38t10.5 53t3.5 38q0 51 -36 51q-26 0 -46 -25.5t-32 -66.5l-68 -321h-144l106 500h144l-11 -52q50 56 117 56q51 0 81 -28t30 -85 q0 -22 -5 -52q54 20 97 20zM470.5 101q22.5 22 36.5 55t14 63q0 33 -14.5 49.5t-39.5 16.5q-28 0 -58 -18l-8 -30q-13 -55 -16 -69q-4 -17 -4 -37q0 -52 42 -52q25 0 47.5 22z" glyph-name="uni0463" horiz-adv-x="692" unicode="ѣ"/>
<glyph d="M647 416q64 0 96.5 -23t32.5 -84q0 -29 -7 -61t-20 -77q-12 -41 -17 -63.5t-5 -41.5q0 -23 10.5 -41t28.5 -25q-61 -17 -99 -17q-78 0 -78 67q0 22 6.5 49t19.5 73q13 42 20 71.5t7 53.5q0 68 -60 68q-18 0 -36 -3l-77 -362h-144l77 364q-8 1 -23 1q-40 2 -67 -23 t-39 -69q-8 -25 -14 -59.5t-10 -66.5q-7 -45 -12 -69q-10 -44 -31.5 -69.5t-65.5 -25.5q-58 0 -108 17q42 23 59 65.5t30 116.5q12 72 27 115.5t51 75.5q43 43 141 43q31 0 46 -2l-90 269q-71 -27 -110 -83.5t-39 -138.5q0 -37 7 -51.5t7 -16.5q-54 0 -80.5 22.5t-26.5 74.5 q0 64 52.5 124.5t134.5 98t164 37.5q14 0 40 -2h353l-221 -336q50 4 70 4zM461 698l78 -244l160 244h-238z" glyph-name="uni046A" horiz-adv-x="834" unicode="Ѫ"/>
<glyph d="M627 16.5q7 -12.5 20 -16.5q-19 -5 -54 -8t-53 -3q-52 0 -52 45q0 19 7.5 47.5t9.5 34.5q7 22 12.5 45t5.5 38q0 46 -40 46q-8 0 -24 -2l-52 -243h-133l52 244q-5 1 -15 1q-27 1 -45.5 -16t-26.5 -46q-9 -33 -16 -85q-6 -37 -10 -56q-6 -27 -34 -41.5t-66 -14.5 q-41 0 -75 14q33 16 46 47t22 85q7 45 15.5 72t28.5 47q32 43 117 43q23 0 45 -3l-57 166q-44 -13 -68 -41.5t-24 -62.5q0 -26 14 -47q-24 -10 -46 -10q-26 0 -41 16t-15 44q0 42 32.5 75.5t84 52t106.5 18.5q39 0 57 -2h282l-146 -207q21 3 40 3q54 0 88 -22t34 -66 q0 -20 -4.5 -41.5t-13.5 -51.5q-15 -49 -15 -71q0 -15 7 -27.5zM451 314l101 148h-149z" glyph-name="uni046B" horiz-adv-x="750" unicode="ѫ"/>
<glyph d="M600 682q56 -68 56 -188q0 -107 -40 -223t-123.5 -196.5t-205.5 -80.5q-84 0 -131.5 48t-47.5 153q0 89 32 200t93.5 190t145.5 79q30 0 52 -8q-45 -27 -87 -113.5t-66 -189.5q40 53 90 53q17 0 49 -8t48 -8q33 0 49 29q9 56 9 110q0 62 -10.5 99.5t-38.5 56.5t-79 19 q-77 0 -143 -31.5t-105.5 -90t-39.5 -135.5q0 -27 5 -39.5t5 -14.5q-50 0 -75.5 20t-25.5 64q0 69 56.5 132t150 102t196.5 39q125 0 181 -68zM388.5 117q37.5 42 68.5 111.5t48 148.5q-29 -52 -74 -52q-21 0 -59 14q-29 11 -43 11q-18 0 -31.5 -6t-26.5 -22 q-15 -70 -15 -131q0 -54 14 -85t44 -31q37 0 74.5 42z" glyph-name="uni0472" horiz-adv-x="665" unicode="Ѳ"/>
<glyph d="M562 380q-29 -31 -75.5 -52.5t-101.5 -30.5q-8 -91 -41 -159t-85 -105t-113 -37q-74 0 -117 38t-43 120q0 68 28 151t90 143.5t156 60.5q128 0 128 -160v-1q3 -1 11 -1q33 0 76 17.5t78 42.5zM275 336q0 41 31 54q-2 33 -10 45.5t-28 12.5q-40 0 -76 -67.5t-50 -148.5 q11 22 28 36t35 14q12 0 21 -4.5t22 -12.5q17 -13 28 -13t20 8l6 34q-27 6 -27 42zM242 123.5q28 37.5 45 97.5q-17 -19 -40 -19q-18 0 -46 13q-20 10 -30 10q-17 0 -34 -20q-2 -28 -2 -38q0 -48 11 -64.5t40 -16.5q28 0 56 37.5z" glyph-name="uni0473" horiz-adv-x="439" unicode="ѳ"/>
<glyph d="M248 683q-71 -27 -110 -83.5t-39 -138.5q0 -37 7 -51.5t7 -16.5q-54 0 -80.5 22.5t-26.5 74.5q0 64 52.5 124.5t134.5 98t164 37.5q14 0 40 -2l9 -615q48 252 84.5 383.5t80 189t109.5 57.5q22 0 37.5 -7t32.5 -26q-65 -12 -153.5 -206t-188.5 -524h-144z" glyph-name="uni0474" horiz-adv-x="668" unicode="Ѵ"/>
<glyph d="M23.5 23.5q-32.5 29.5 -32.5 88.5q0 24 5 48l72 340h144l-72 -340q-5 -25 -5 -36q0 -33 34 -33q46 0 85.5 58t63.5 138t24 138q-2 -5 -13 -7.5t-19 -2.5q-17 0 -26.5 16t-9.5 35q0 24 15.5 39t46.5 15q33 0 48 -24.5t15 -62.5q0 -90 -31 -192.5t-95 -174.5t-159 -72 q-58 0 -90.5 29.5z" glyph-name="uni0475" horiz-adv-x="414" unicode="ѵ"/>
<glyph d="M235 668q-65 -2 -97.5 -47.5t-32.5 -159.5q0 -37 7 -51.5t7 -16.5q-54 0 -80.5 22.5t-26.5 74.5q0 71 34 129.5t111.5 94.5t201.5 36q24 0 76 -6q38 -5 59 -5q40 0 61 17t29.5 42t17.5 72q21 -18 32.5 -46t11.5 -58q0 -63 -37.5 -99.5t-101.5 -36.5q-46 0 -133 20 l-139 -650h-144z" glyph-name="uni0490" horiz-adv-x="431" unicode="Ґ"/>
<glyph d="M68 500h184q40 0 44 15q-16 7 -16 26q0 20 13 32.5t39 12.5q23 0 35.5 -14t12.5 -36q0 -45 -31 -76t-85 -31h-67l-91 -429h-144z" glyph-name="uni0491" horiz-adv-x="342" unicode="ґ"/>
<glyph d="M638 750q-5 -14 -8 -28q-8 -28 -16 -46.5t-26.5 -32t-49.5 -13.5q-60 0 -153 20l-65 -301h105l-12 -50h-104l-64 -299h-144l64 299h-83l14 50h80l69 319q-63 -2 -96.5 -49t-33.5 -149q0 -52 7 -63.5t7 -13.5q-59 0 -88 24t-29 82q0 67 35.5 123.5t115.5 92t206 35.5 q25 0 68 -5q77 -7 106 -7q56 0 95 12z" glyph-name="uni0492" horiz-adv-x="400" unicode="Ғ"/>
<glyph d="M409 179q-54 -86 -120.5 -135.5t-154.5 -49.5q-74 0 -114.5 28t-40.5 85q0 38 17 66t48 52h-68l14 50h130q35 23 53 45t18 51q0 22 -11.5 34.5t-34.5 12.5q-33 0 -59 -25t-49 -79h-48q33 94 84 144.5t134 50.5q58 0 96.5 -28t38.5 -85q0 -70 -55 -121h72l-12 -50h-130 q-44 -28 -65 -47.5t-21 -46.5q0 -53 71 -53q45 0 85.5 23t87.5 78h34z" glyph-name="uni0493" horiz-adv-x="375" unicode="ғ"/>
<glyph d="M569 400q47 -55 47 -158q0 -68 -29.5 -134.5t-82.5 -109t-122 -42.5q-45 -1 -71.5 20.5t-26.5 52.5q0 24 14 45q12 -13 28.5 -18t43.5 -5q34 0 59.5 29.5t38.5 74.5t13 90q0 73 -20 107.5t-69 34.5q-25 0 -66 -11l-81 -376h-144l144 668q-63 -2 -96.5 -49t-33.5 -149 q0 -52 7 -63.5t7 -13.5q-59 0 -88 24t-29 82q0 67 35.5 123.5t115.5 92t206 35.5q25 0 68 -5q77 -7 106 -7q56 0 95 12q-5 -14 -8 -28q-8 -28 -16 -46.5t-26.5 -32t-49.5 -13.5q-60 0 -153 20l-46 -215q54 20 98 20q85 0 132 -55z" glyph-name="uni0494" horiz-adv-x="665" unicode="Ҕ"/>
<glyph d="M528 179q-27 -90 -76 -131t-111 -56l-16 -72q-22 -98 -66 -134t-103 -36q-51 0 -81.5 24t-30.5 63q0 60 49 102t115 60q23 91 33 133.5t10 55.5q0 27 -12.5 41t-32.5 14q-24 0 -52 -17l-48 -226h-144l106 497q48 9 102 9q30 0 107 -7q62 -6 87 -6q48 0 82 13 q-8 -61 -31 -90.5t-78 -29.5q-42 0 -144 24l-28 -132q50 52 116 52q51 0 81 -28t30 -85q0 -20 -7.5 -53t-32.5 -128q50 17 82 49t52 94h42zM172.5 -142q14.5 30 25.5 91q-43 -16 -71 -40t-28 -54q0 -27 26 -27q33 0 47.5 30z" glyph-name="uni0495" horiz-adv-x="486" unicode="ҕ"/>
<glyph d="M805.5 732.5q21.5 -17.5 21.5 -49.5q0 -36 -19 -53t-46 -17q-43 0 -59 40q-34 -22 -58.5 -55t-41 -71t-43.5 -111h14q68 0 96 -28.5t28 -78.5q0 -29 -7 -61t-20 -77q-12 -41 -17 -63.5t-5 -41.5q0 -23 10.5 -41t28.5 -25q-40 -11 -79 -15l1 -1q-17 -16 -17 -31 q0 -11 6.5 -22t22.5 -29q21 -26 33 -47t12 -48q0 -73 -100 -129l-15 11q18 19 18 41q0 15 -7.5 29.5t-23.5 38.5q-21 30 -32 53.5t-11 50.5q0 31 16.5 53.5t45.5 31.5q-47 12 -47 63q0 22 6.5 49t19.5 73q13 42 20 71.5t7 53.5q0 68 -60 68q-18 0 -36 -3l-77 -362h-144 l77 364q-8 1 -23 1q-40 2 -67 -23t-39 -69q-8 -25 -14 -59.5t-10 -66.5q-7 -45 -12 -69q-10 -44 -31.5 -69.5t-65.5 -25.5q-58 0 -108 17q42 23 59 65.5t30 116.5q12 72 27 115.5t51 75.5q43 43 135 43h3q2 46 2 65q0 63 -10.5 105t-38.5 67q-21 -40 -67 -40q-24 0 -38.5 17 t-14.5 44q0 37 28 56.5t68 19.5q72 0 102.5 -70.5t30.5 -169.5q0 -52 -7 -98q6 0 20 -2l66 307l150 31l-72 -338q16 2 23 2q15 70 46 143t58 108q32 43 71 65t76 22q32 0 53.5 -17.5z" glyph-name="uni0496" horiz-adv-x="777" unicode="Җ"/>
<glyph d="M832.5 57q-59.5 -53 -126.5 -62q-5 -10 -5 -16q0 -9 5 -16.5t16 -19.5q16 -18 24.5 -33.5t8.5 -36.5q0 -28 -22.5 -57t-61.5 -56l-17 12q9 11 9 19q0 11 -4.5 19.5t-15.5 22.5q-14 16 -21 29.5t-7 35.5q0 51 60 96q-64 3 -100.5 45.5t-36.5 113.5q0 52 8 87h-57l-50 -240 h-134l51 240h-56q-21 -102 -76 -174t-142 -72q-62 0 -90.5 30.5t-28.5 75.5q0 40 17 62t42 22q22 0 36 -14q-13 -35 -13 -66q0 -29 11 -43t25 -14q27 0 52 45t41 112t16 126q0 105 -61 105q-28 0 -45 -18t-32 -57h-52q22 73 60.5 111t105.5 38q68 0 107 -43t39 -116 q0 -24 -3 -50h60l42 200h134l-42 -200h56q27 91 78 150t127 59q56 0 79.5 -26.5t23.5 -65.5q0 -35 -14.5 -54t-36.5 -19q-18 0 -35 12q10 33 10 59q0 19 -6 30t-17 11q-25 0 -50.5 -45.5t-41.5 -112t-16 -125.5q0 -53 20 -79t54 -26q38 0 81 28.5t75 82.5h34 q-32 -69 -91.5 -122z" glyph-name="uni0497" horiz-adv-x="882" unicode="җ"/>
<glyph d="M474 248q0 -61 -27.5 -115t-80 -92t-123.5 -51q-17 -16 -17 -31q0 -11 6.5 -22t22.5 -29q21 -25 33 -46.5t12 -48.5q0 -73 -100 -129l-15 11q18 19 18 41q0 15 -7.5 29.5t-23.5 38.5q-21 30 -32 53.5t-11 50.5q0 25 10.5 44.5t30.5 31.5q-83 1 -131.5 33t-48.5 95 q0 44 23.5 70.5t61.5 26.5q34 0 52 -26q-37 -22 -37 -72q0 -29 20.5 -48.5t58.5 -19.5q44 0 76.5 30t49 77.5t16.5 100.5q0 66 -29 95.5t-86 29.5h-42l16 74h36q43 0 74.5 25t48 61.5t16.5 68.5q0 37 -20 57.5t-58 20.5q-94 0 -153 -115l-23 10q21 84 83.5 127.5t148.5 43.5 q84 0 128 -41t44 -109q0 -65 -39.5 -111.5t-110.5 -70.5q129 -37 129 -169z" glyph-name="uni0498" horiz-adv-x="525" unicode="Ҙ"/>
<glyph d="M540 179q-27 -91 -75 -133t-108 -57q-2 -109 -50.5 -172t-128.5 -67q-8 -11 -8 -21q0 -9 5 -16.5t16 -19.5q16 -18 24.5 -33.5t8.5 -36.5q0 -28 -22.5 -57t-61.5 -56l-17 12q9 11 9 19q0 11 -5 19.5t-15 22.5q-14 16 -21 29.5t-7 35.5q0 53 69 103q-43 4 -70 28.5 t-27 67.5q0 97 157 147q-3 106 -72 106h-31l13 60h29q35 0 63 23t44 62.5t16 86.5q0 86 -61 86q-55 0 -97 -56.5t-75 -182.5h-42q28 111 55 178t78 109.5t135 42.5q73 0 115.5 -42t42.5 -117q0 -60 -28.5 -108.5t-65.5 -78t-61 -34.5q26 -9 49.5 -36t32.5 -64q57 17 89.5 49 t55.5 101h42zM185 -137q19 35 25 83q-99 -34 -99 -85q0 -15 8.5 -24t25.5 -9q21 0 40 35z" glyph-name="uni0499" horiz-adv-x="498" unicode="ҙ"/>
<glyph d="M659.5 732.5q21.5 -17.5 21.5 -49.5q0 -36 -19 -53t-46 -17q-43 0 -59 40q-51 -31 -92.5 -88t-79.5 -140q16 1 42 1q68 0 96 -28.5t28 -78.5q0 -29 -7 -61.5t-20 -80.5q-8 -31 -15 -61t-7 -50q0 -23 10.5 -41t28.5 -25q-43 -12 -74 -15q-4 -7 -4 -16q0 -11 6.5 -22 t22.5 -29q21 -26 33 -47t12 -48q0 -73 -100 -129l-15 11q18 19 18 41q0 15 -7.5 29.5t-23.5 38.5q-21 30 -32 53.5t-11 50.5q0 23 9 41.5t25 30.5q-36 14 -36 60q0 22 6.5 50.5t18.5 73.5q14 47 21 80t7 59q0 68 -60 68q-16 0 -33 -4l-80 -377h-144l145 680 q-67 -28 -103.5 -84t-36.5 -135q0 -37 7 -51.5t7 -16.5q-54 0 -80.5 22.5t-26.5 74.5q0 64 52.5 124.5t134.5 98t164 37.5q14 0 40 -2l-64 -299q20 59 55.5 120t64.5 94q71 87 147 87q32 0 53.5 -17.5z" glyph-name="uni049A" horiz-adv-x="635" unicode="Қ"/>
<glyph d="M366 -6q-4 -7 -4 -15q0 -9 5 -16.5t16 -19.5q16 -18 24.5 -33.5t8.5 -36.5q0 -28 -22.5 -57t-61.5 -56l-17 12q9 11 9 19q0 11 -4.5 19.5t-15.5 22.5q-14 16 -21 29.5t-7 35.5q0 50 62 97q-49 6 -73.5 34.5t-24.5 75.5q0 14 7 56q5 25 5 39q0 48 -38 48q-13 0 -24.5 -7.5 t-39.5 -29.5l-44 -211h-144l107 500h144l-43 -198q68 80 108 122t73.5 63.5t65.5 21.5q62 0 62 -66q0 -30 -16.5 -47.5t-46.5 -17.5q-28 0 -42 15.5t-13 35.5q-19 -12 -34 -27t-33 -39q-21 -28 -41 -48q20 4 42 4q52 0 73.5 -23t21.5 -70q0 -14 -6 -46q-6 -34 -6 -52 q0 -37 40 -37q28 0 44.5 19t38.5 69h42q-62 -181 -177 -185z" glyph-name="uni049B" horiz-adv-x="501" unicode="қ"/>
<glyph d="M745.5 732.5q21.5 -17.5 21.5 -49.5q0 -36 -19 -53t-46 -17q-43 0 -59 40q-51 -31 -92.5 -88t-79.5 -140q9 1 25 1q50 0 75.5 -23.5t25.5 -83.5q0 -29 -7 -61.5t-20 -80.5q-8 -31 -15 -61t-7 -50q0 -23 10.5 -41t28.5 -25q-61 -17 -99 -17q-78 0 -78 67q0 22 6.5 50.5 t18.5 73.5q14 47 21 80t7 59q0 31 -14 47t-46 16h-6l-19 -89h-40l19 89h-33l-80 -376h-144l145 680q-67 -28 -103.5 -84t-36.5 -135q0 -37 7 -51.5t7 -16.5q-54 0 -80.5 22.5t-26.5 74.5q0 64 52.5 124.5t134.5 98t164 37.5q14 0 40 -2l-63 -298h32l19 91h40l-19 -91h14 q19 59 54.5 120t64.5 93q71 87 147 87q32 0 53.5 -17.5z" glyph-name="uni049C" horiz-adv-x="721" unicode="Ҝ"/>
<glyph d="M593 179q-61 -190 -182 -190q-60 0 -90.5 30t-30.5 86q0 16 6 48q6 30 6 47q0 26 -10 39t-27 13t-40 -12l-26 -122h-50l15 69q-18 -22 -25 -33l-33 -154h-144l107 500h144l-60 -280l25 30l35 163h50l-21 -98q64 95 123.5 142.5t108.5 47.5q31 0 48 -18t17 -46 q0 -29 -16 -46t-44 -17q-27 0 -43 16t-15 51q-42 -27 -77.5 -59.5t-71.5 -77.5q47 14 78 14q90 0 90 -96q0 -14 -6 -46q-6 -34 -6 -52q0 -37 40 -37q25 0 44.5 19t38.5 69h42z" glyph-name="uni049D" horiz-adv-x="551" unicode="ҝ"/>
<glyph d="M420 50q0 22 6.5 50.5t18.5 73.5q14 47 21 80t7 59q0 68 -60 68q-15 0 -32 -4l-80 -377h-145l143 662h-12q-89 0 -138.5 -44.5t-49.5 -157.5q0 -37 7 -51.5t7 -16.5q-54 0 -80.5 22.5t-26.5 74.5q0 71 35 129.5t111.5 94.5t194.5 36q62 0 112 -8l-60 -279q21 57 55 113.5 t61 87.5q71 87 147 87q32 0 53.5 -17.5t21.5 -49.5q0 -36 -19 -53t-46 -17q-43 0 -59 40q-51 -31 -92.5 -88t-79.5 -140q16 1 42 1q68 0 96 -28.5t28 -78.5q0 -29 -7 -61.5t-20 -80.5q-8 -31 -15 -61t-7 -50q0 -23 10.5 -41t28.5 -25q-61 -17 -99 -17q-78 0 -78 67z" glyph-name="uni04A0" horiz-adv-x="691" unicode="Ҡ"/>
<glyph d="M718 179q-63 -185 -182 -185q-60 0 -90.5 29.5t-30.5 81.5q0 14 7 56q5 25 5 39q0 48 -38 48q-13 0 -24.5 -7.5t-39.5 -29.5l-44 -211h-144l96 450h-10q-61 0 -95 -30t-34 -107q0 -27 4.5 -44t4.5 -22q-16 -2 -23 -2q-40 0 -64 23t-24 64q0 91 73.5 137.5t187.5 46.5 q63 0 135 -16l-43 -198q68 80 108 122t73.5 63.5t65.5 21.5q62 0 62 -66q0 -30 -16.5 -47.5t-46.5 -17.5q-28 0 -42 15.5t-13 35.5q-19 -12 -34 -27t-33 -39q-21 -28 -41 -48q20 4 42 4q52 0 73.5 -23t21.5 -70q0 -14 -6 -46q-6 -34 -6 -52q0 -37 40 -37q28 0 44.5 19 t38.5 69h42z" glyph-name="uni04A1" horiz-adv-x="676" unicode="ҡ"/>
<glyph d="M597 -7q18 -13 32.5 -20t33.5 -7q21 0 50 10q-7 -72 -36.5 -108t-78.5 -36q-34 0 -52.5 22t-37.5 64q-15 36 -30 54.5t-40 18.5q-27 0 -48 -6l5 25l76 366h-147l-80 -376h-144l145 680q-67 -28 -103.5 -84t-36.5 -135q0 -37 7 -51.5t7 -16.5q-54 0 -80.5 22.5t-26.5 74.5 q0 64 52.5 124.5t134.5 98t164 37.5q14 0 40 -2l-64 -298h147l64 298h144l-154 -726q26 -8 57 -29z" glyph-name="uni04A2" horiz-adv-x="665" unicode="Ң"/>
<glyph d="M371 -6q-4 -7 -4 -15q0 -9 5 -16.5t16 -19.5q16 -18 24.5 -33.5t8.5 -36.5q0 -28 -22.5 -57t-61.5 -56l-17 12q9 11 9 19q0 11 -4.5 19.5t-15.5 22.5q-14 16 -21 29.5t-7 35.5q0 50 62 97q-48 6 -73 35.5t-25 69.5q0 29 23 140h-111l-51 -240h-144l106 500h144l-43 -200 h112l45 200h134l-53 -248q-10 -43 -17 -75t-7 -44q0 -42 40 -42q28 0 45 19t39 69h42q-62 -179 -178 -185z" glyph-name="uni04A3" horiz-adv-x="507" unicode="ң"/>
<glyph d="M749 744q58 -6 89 -6q49 0 89 12q-8 -58 -28.5 -89t-71.5 -31t-153 24l-139 -654h-144l80 376h-147l-80 -376h-144l145 680q-67 -28 -103.5 -84t-36.5 -135q0 -37 7 -51.5t7 -16.5q-54 0 -80.5 22.5t-26.5 74.5q0 64 52.5 124.5t134.5 98t164 37.5q14 0 40 -2l-64 -298 h147l58 271l4 20q49 9 110 9q31 0 91 -6z" glyph-name="uni04A4" horiz-adv-x="689" unicode="Ҥ"/>
<glyph d="M526 500q58 -6 89 -6q49 0 89 12q-8 -58 -28.5 -89t-71.5 -31q-57 0 -163 26l-34 -160q-10 -43 -17 -75t-7 -44q0 -42 40 -42q28 0 45 19t39 69h42q-63 -185 -186 -185q-57 0 -87.5 30.5t-30.5 75.5q0 29 23 140h-111l-51 -240h-144l106 500h144l-43 -200h112l33 147 l11 50q50 9 110 9q31 0 91 -6z" glyph-name="uni04A5" horiz-adv-x="681" unicode="ҥ"/>
<glyph d="M414 106q50 26 86 74l23 -10q-33 -82 -104 -128.5t-148 -55.5q-5 -8 -5 -17q0 -11 7 -22t21 -28q22 -27 34 -47.5t12 -48.5q0 -73 -100 -129l-15 11q18 19 18 41q0 15 -7.5 29.5t-23.5 38.5q-21 30 -32 53.5t-11 50.5q0 44 29 68q-92 8 -135.5 65.5t-43.5 178.5 q0 105 35.5 226t114 207.5t199.5 86.5q75 0 121 -33t46 -101q0 -43 -17 -67.5t-53 -24.5t-57 26q18 9 32 36t14 56q0 27 -14.5 44t-46.5 17q-53 0 -101 -72.5t-77.5 -182.5t-29.5 -212q0 -76 26 -116t94 -40q59 0 109 26z" glyph-name="uni04AA" horiz-adv-x="497" unicode="Ҫ"/>
<glyph d="M311.5 53.5q-61.5 -50.5 -142.5 -58.5q-5 -10 -5 -16q0 -9 5 -16.5t16 -20.5q16 -18 24.5 -33.5t8.5 -36.5q0 -28 -22.5 -56.5t-61.5 -55.5l-17 12q9 11 9 19q0 11 -4.5 19.5t-15.5 22.5q-14 16 -21 29.5t-7 35.5q0 51 60 96q-151 3 -151 159q0 69 27.5 152t88 143.5 t153.5 60.5q60 0 85.5 -26t25.5 -66q0 -35 -15 -54t-38 -19q-17 0 -35 12q12 33 12 59q0 19 -7 30t-21 11q-30 0 -60 -49t-49 -119t-19 -126q0 -49 17 -66.5t55 -17.5q54 0 92.5 25t84.5 76h34q-45 -75 -106.5 -125.5z" glyph-name="uni04AB" horiz-adv-x="384" unicode="ҫ"/>
<glyph d="M344 308l-96 375q-71 -27 -110 -83.5t-39 -138.5q0 -37 7 -51.5t7 -16.5q-54 0 -80.5 22.5t-26.5 74.5q0 64 52.5 124.5t134.5 98t164 37.5q14 0 40 -2l87 -358l148 355h66l-194 -437l-66 -308h-160z" glyph-name="uni04AE" horiz-adv-x="620" unicode="Ү"/>
<glyph d="M438.5 491.5q17.5 -24.5 15.5 -62.5q-5 -89 -54.5 -186.5t-154.5 -242.5l-46 -214l-151 -36l53 250l-48 500h144l40 -438q65 95 99.5 154.5t49.5 107.5t15 99q-9 -12 -31 -12q-18 0 -31.5 13.5t-13.5 34.5q0 26 16.5 41.5t46.5 15.5q33 0 50.5 -24.5z" glyph-name="uni04AF" horiz-adv-x="480" unicode="ү"/>
<glyph d="M344 308l-96 375q-71 -27 -110 -83.5t-39 -138.5q0 -37 7 -51.5t7 -16.5q-54 0 -80.5 22.5t-26.5 74.5q0 64 52.5 124.5t134.5 98t164 37.5q14 0 40 -2l87 -358l148 355h66l-194 -437l-66 -308h-160zM257 306h329l-12 -50h-331z" glyph-name="uni04B0" horiz-adv-x="620" unicode="Ұ"/>
<glyph d="M438.5 491.5q17.5 -24.5 15.5 -62.5q-5 -89 -54.5 -186.5t-154.5 -242.5l-46 -214l-151 -36l53 250l-48 500h144l40 -438q65 95 99.5 154.5t49.5 107.5t15 99q-9 -12 -31 -12q-18 0 -31.5 13.5t-13.5 34.5q0 26 16.5 41.5t46.5 15.5q33 0 50.5 -24.5zM17 19h329l-12 -50 h-331z" glyph-name="uni04B1" horiz-adv-x="480" unicode="ұ"/>
<glyph d="M624 -7q20 -14 34 -20.5t33 -6.5q21 0 50 10q-7 -72 -36.5 -108t-78.5 -36q-34 0 -52.5 22t-37.5 64q-15 36 -30 54.5t-40 18.5q-27 0 -48 -6l5 25l69 323q-38 -23 -74 -31t-74 -8q-63 0 -102 35.5t-39 107.5q0 54 11 104l31 139q-67 -28 -103.5 -84t-36.5 -135 q0 -37 7 -51.5t7 -16.5q-54 0 -80.5 22.5t-26.5 74.5q0 64 52.5 124.5t134.5 98t164 37.5q14 0 40 -2l-45 -207q-14 -68 -14 -96q0 -39 21.5 -56t53.5 -17q49 0 88 32l73 344h144l-154 -726q26 -8 54 -29z" glyph-name="uni04B6" horiz-adv-x="695" unicode="Ҷ"/>
<glyph d="M466 42q-48 -41 -99 -47q-5 -10 -5 -16q0 -9 5 -16.5t16 -20.5q16 -18 24.5 -33.5t8.5 -36.5q0 -28 -22.5 -56.5t-61.5 -55.5l-17 12q9 11 9 19q0 11 -4.5 19.5t-15.5 22.5q-14 16 -21 29.5t-7 35.5q0 51 60 96q-44 3 -70.5 33t-26.5 87q0 25 8 65l5 25q-29 -32 -59 -44 t-61 -12q-48 0 -77.5 30t-29.5 90q0 25 8 65l35 167h144l-39 -186q-3 -15 -3 -28q0 -41 30 -41q29 0 50.5 24.5t29.5 63.5l35 167h144l-72 -340q-4 -15 -4 -32q0 -20 9.5 -28.5t31.5 -8.5q28 0 48.5 24t32.5 64h42q-33 -96 -81 -137z" glyph-name="uni04B7" unicode="ҷ"/>
<glyph d="M744 748l-159 -748h-144l71 333q-36 -17 -81 -29l-20 -97h-40l19 90q-22 -2 -32 -2q-70 0 -112.5 36.5t-42.5 105.5q0 54 11 104l31 139q-67 -28 -103.5 -84t-36.5 -135q0 -37 7 -51.5t7 -16.5q-54 0 -80.5 22.5t-26.5 74.5q0 64 52.5 124.5t134.5 98t164 37.5 q14 0 40 -2l-45 -207q-14 -68 -14 -96q0 -65 62 -70l18 86h40l-17 -83q35 6 80 26l73 344h144z" glyph-name="uni04B8" horiz-adv-x="715" unicode="Ҹ"/>
<glyph d="M587 179q-37 -108 -91.5 -146.5t-109.5 -38.5q-48 0 -77.5 30t-29.5 90q0 25 8 65l5 25q-25 -23 -54 -38l-21 -98h-50l18 82q-24 -2 -33 -2q-57 0 -92 30t-35 90q0 25 8 65l35 167h144l-39 -186q-3 -15 -3 -28q0 -35 36 -40l25 117h50l-24 -110q22 10 38.5 31t24.5 49 l35 167h144l-72 -340q-4 -15 -4 -32q0 -20 9.5 -28.5t31.5 -8.5q28 0 48.5 24t32.5 64h42z" glyph-name="uni04B9" horiz-adv-x="545" unicode="ҹ"/>
<glyph d="M582 418.5q39 -35.5 39 -107.5q0 -54 -11 -104l-46 -207h-143l45 207q14 68 14 96q0 39 -21.5 56t-53.5 17q-49 0 -88 -32l-73 -344h-144l144 680q-67 -29 -103 -84.5t-36 -134.5q0 -37 7 -51.5t7 -16.5q-54 0 -80.5 22.5t-26.5 74.5q0 64 52.5 124.5t134.5 98t164 37.5 q14 0 40 -2l-71 -333q38 23 74 31t74 8q63 0 102 -35.5z" glyph-name="uni04BA" horiz-adv-x="679" unicode="Һ"/>
<glyph d="M271.5 26.5q-28.5 32.5 -28.5 80.5q0 21 5 47.5t10.5 51.5t7.5 32q8 35 15 69t7 55q0 51 -36 51q-26 0 -46 -25.5t-32 -66.5l-68 -321h-144l145 680l148 20l-54 -252q50 56 117 56q51 0 81 -28t30 -85q0 -29 -7 -64.5t-20 -86.5q-8 -31 -14.5 -60.5t-6.5 -46.5 q0 -20 9 -31t31 -11q30 0 48 21.5t36 66.5h42q-37 -110 -85.5 -147.5t-100.5 -37.5q-61 0 -89.5 32.5z" glyph-name="uni04BB" unicode="һ"/>
<glyph d="M239 679q-67 -27 -103.5 -82.5t-36.5 -135.5q0 -37 7 -51.5t7 -16.5q-54 0 -80.5 22.5t-26.5 74.5q0 64 52.5 124.5t134.5 98t164 37.5q14 0 40 -2l-159 -748h-144z" glyph-name="uni04C0" horiz-adv-x="375" unicode="Ӏ"/>
<glyph d="M-46 0q42 23 59 65.5t30 116.5q12 72 27 115.5t51 75.5q43 43 135 43h3q2 46 2 65q0 63 -10.5 105t-38.5 67q-21 -40 -67 -40q-24 0 -38.5 17t-14.5 44q0 37 28 56.5t68 19.5q72 0 102.5 -70.5t30.5 -169.5q0 -52 -7 -98q6 0 20 -2l66 307l150 31l-72 -338q16 2 23 2 q15 70 46 143t58 108q32 43 71 65t76 22q32 0 53.5 -17.5t21.5 -49.5q0 -36 -19 -53t-46 -17q-43 0 -59 40q-34 -22 -58.5 -55t-41 -71t-43.5 -111h14q68 0 96 -28.5t28 -78.5q0 -29 -7 -61t-20 -77q-12 -41 -17 -63.5t-5 -41.5q0 -23 10.5 -41t28.5 -25q-57 -16 -99 -16 q-78 0 -78 66q0 22 6.5 49t19.5 73q13 42 20 71.5t7 53.5q0 68 -60 68q-18 0 -36 -3l-77 -362h-144l77 364q-8 1 -23 1q-40 2 -67 -23t-39 -69q-8 -25 -14 -59.5t-10 -66.5q-7 -45 -12 -69q-10 -44 -31.5 -69.5t-65.5 -25.5q-58 0 -108 17zM368 823q-34 23 -34 63 q0 33 18.5 53t48.5 20q29 0 45.5 -14t16.5 -40q0 -32 -24 -48q13 -4 40 -4q45 0 87.5 27.5t66.5 89.5h42q-32 -93 -85 -131.5t-126 -38.5q-62 0 -96 23z" glyph-name="uni04C1" horiz-adv-x="777" unicode="Ӂ"/>
<glyph d="M-8.5 24.5q-28.5 30.5 -28.5 75.5q0 40 17 62t42 22q22 0 36 -14q-13 -35 -13 -66q0 -29 11 -43t25 -14q27 0 52 45t41 112t16 126q0 105 -61 105q-28 0 -45 -18t-32 -57h-52q22 73 60.5 111t105.5 38q68 0 107 -43t39 -116q0 -24 -3 -50h60l42 200h134l-42 -200h56 q27 91 78 150t127 59q56 0 79.5 -26.5t23.5 -65.5q0 -35 -14.5 -54t-36.5 -19q-18 0 -35 12q10 33 10 59q0 19 -6 30t-17 11q-25 0 -50.5 -45.5t-41.5 -112t-16 -125.5q0 -53 20 -79t54 -26q38 0 81 28.5t75 82.5h34q-34 -75 -100 -130t-140 -55q-68 0 -107 43t-39 116 q0 52 8 87h-57l-50 -240h-134l51 240h-56q-21 -102 -76 -174t-142 -72q-62 0 -90.5 30.5zM366 572q-34 23 -34 63q0 33 18.5 53t48.5 20q29 0 45.5 -14t16.5 -40q0 -32 -24 -48q13 -4 40 -4q45 0 87.5 27.5t66.5 89.5h42q-32 -93 -85 -131.5t-126 -38.5q-62 0 -96 23z" glyph-name="uni04C2" horiz-adv-x="882" unicode="ӂ"/>
<glyph d="M566 4l-4 -18q-26 7 -57 7q-33 0 -57 -14t-55 -42q-32 -28 -55.5 -41.5t-56.5 -13.5q-41 0 -68.5 26t-27.5 75q0 22 6 47q45 -22 85 -22q25 0 46.5 6.5t49.5 19.5q40 18 61 22l59 277q-38 -23 -74 -31t-74 -8q-63 0 -102 35.5t-39 107.5q0 54 11 104l31 139 q-67 -28 -103.5 -84t-36.5 -135q0 -37 7 -51.5t7 -16.5q-54 0 -80.5 22.5t-26.5 74.5q0 64 52.5 124.5t134.5 98t164 37.5q14 0 40 -2l-45 -207q-14 -68 -14 -96q0 -39 21.5 -56t53.5 -17q49 0 88 32l73 344h144z" glyph-name="uni04CB" horiz-adv-x="695" unicode="Ӌ"/>
<glyph d="M475.5 40.5q-48.5 -40.5 -99.5 -45.5q-25 -112 -72.5 -147.5t-104.5 -35.5h-29h-30q-26 0 -39 -3t-20.5 -13t-11.5 -32h-44q16 78 35 116t49.5 52t84.5 14h38q30 0 46 2.5t29 13t22 35.5q-36 8 -57.5 37t-21.5 80q0 25 8 65l5 25q-29 -32 -59 -44t-61 -12q-48 0 -77.5 30 t-29.5 90q0 25 8 65l35 167h144l-39 -186q-3 -15 -3 -28q0 -41 30 -41q29 0 50.5 24.5t29.5 63.5l35 167h144l-72 -340q-4 -15 -4 -32q0 -20 9.5 -28.5t31.5 -8.5q28 0 48.5 24t32.5 64h42q-34 -98 -82.5 -138.5z" glyph-name="uni04CC" horiz-adv-x="516" unicode="ӌ"/>
<glyph d="M21.5 24q-29.5 30 -29.5 90q0 25 8 65l107 501l148 20l-115 -540q-4 -15 -4 -32q0 -20 9.5 -28.5t31.5 -8.5q29 0 54 24.5t36 63.5h42q-37 -108 -95 -146.5t-115 -38.5q-48 0 -77.5 30z" glyph-name="uni04CF" horiz-adv-x="267" unicode="ӏ"/>
<glyph d="M153 -108q-28 6 -48.5 29t-20.5 71q0 67 40.5 180t106.5 227q-50 -3 -79 -15t-38 -37q4 0 8.5 -10t4.5 -21q0 -18 -16 -28.5t-40 -10.5q-28 0 -45 15t-17 43q0 34 26.5 62t73.5 44.5t104 16.5q21 0 52 -3q82 130 173.5 212.5t174.5 82.5q48 0 79 -14l-157 -736h-144 l77 363q-37 17 -68 25t-66 11q-57 -123 -93.5 -251.5t-36.5 -205.5q0 -38 14 -56q-37 0 -65 6zM535 679q-43 -23 -89.5 -85.5t-90.5 -151.5q72 -14 122 -35zM506 825q-34 23 -34 63q0 33 18.5 53t48.5 20q29 0 45.5 -14t16.5 -40q0 -32 -24 -48q13 -4 40 -4q45 0 87.5 27.5 t66.5 89.5h42q-32 -93 -85 -131.5t-126 -38.5q-62 0 -96 23z" glyph-name="uni04D0" horiz-adv-x="668" unicode="Ӑ"/>
<glyph d="M25 33q-38 39 -38 122q0 74 29.5 155.5t88 138t139.5 56.5q41 0 61 -14t20 -37v-7l11 53h144l-72 -340q-4 -15 -4 -32q0 -43 41 -43q28 0 48.5 26t32.5 68h42q-37 -108 -91.5 -146.5t-109.5 -38.5q-42 0 -67.5 23.5t-30.5 68.5q-29 -41 -64.5 -66.5t-84.5 -25.5 q-57 0 -95 39zM234.5 114.5q24.5 23.5 33.5 64.5l48 226q0 13 -10 25.5t-31 12.5q-40 0 -72 -46.5t-50 -112t-18 -115.5t14.5 -64t35.5 -14q25 0 49.5 23.5zM208 572q-34 23 -34 63q0 33 18.5 53t48.5 20q29 0 45.5 -14t16.5 -40q0 -32 -24 -48q13 -4 40 -4q45 0 87.5 27.5 t66.5 89.5h42q-32 -93 -85 -131.5t-126 -38.5q-62 0 -96 23z" glyph-name="uni04D1" horiz-adv-x="526" unicode="ӑ"/>
<glyph d="M153 -108q-28 6 -48.5 29t-20.5 71q0 67 40.5 180t106.5 227q-50 -3 -79 -15t-38 -37q4 0 8.5 -10t4.5 -21q0 -18 -16 -28.5t-40 -10.5q-28 0 -45 15t-17 43q0 34 26.5 62t73.5 44.5t104 16.5q21 0 52 -3q82 130 173.5 212.5t174.5 82.5q48 0 79 -14l-157 -736h-144 l77 363q-37 17 -68 25t-66 11q-57 -123 -93.5 -251.5t-36.5 -205.5q0 -38 14 -56q-37 0 -65 6zM535 679q-43 -23 -89.5 -85.5t-90.5 -151.5q72 -14 122 -35zM507.5 840.5q-17.5 17.5 -17.5 43.5q0 25 17.5 43t43.5 18q25 0 43 -18t18 -43q0 -26 -18 -43.5t-43 -17.5 q-26 0 -43.5 17.5zM687.5 840.5q-17.5 17.5 -17.5 43.5q0 25 17.5 43t43.5 18q25 0 43 -18t18 -43q0 -26 -18 -43.5t-43 -17.5q-26 0 -43.5 17.5z" glyph-name="uni04D2" horiz-adv-x="668" unicode="Ӓ"/>
<glyph d="M25 33q-38 39 -38 122q0 74 29.5 155.5t88 138t139.5 56.5q41 0 61 -14t20 -37v-7l11 53h144l-72 -340q-4 -15 -4 -32q0 -43 41 -43q28 0 48.5 26t32.5 68h42q-37 -108 -91.5 -146.5t-109.5 -38.5q-42 0 -67.5 23.5t-30.5 68.5q-29 -41 -64.5 -66.5t-84.5 -25.5 q-57 0 -95 39zM234.5 114.5q24.5 23.5 33.5 64.5l48 226q0 13 -10 25.5t-31 12.5q-40 0 -72 -46.5t-50 -112t-18 -115.5t14.5 -64t35.5 -14q25 0 49.5 23.5zM210.5 590.5q-17.5 17.5 -17.5 43.5q0 25 17.5 43t43.5 18q25 0 43 -18t18 -43q0 -26 -18 -43.5t-43 -17.5 q-26 0 -43.5 17.5zM390.5 590.5q-17.5 17.5 -17.5 43.5q0 25 17.5 43t43.5 18q25 0 43 -18t18 -43q0 -26 -18 -43.5t-43 -17.5q-26 0 -43.5 17.5z" glyph-name="uni04D3" horiz-adv-x="526" unicode="ӓ"/>
<glyph d="M146.5 -104.5q-26.5 6.5 -44.5 30t-18 73.5q0 64 40.5 175.5t106.5 224.5q-49 -3 -77.5 -14.5t-39.5 -37.5q4 0 8.5 -10t4.5 -21q0 -17 -15 -28t-46 -11q-24 0 -40.5 15.5t-16.5 47.5q0 30 27 56.5t72 42.5t96 16q26 0 59 -3q82 132 174 215.5t175 83.5q30 0 79 -9 q24 -4 50.5 -7.5t50.5 -3.5q61 0 117 19q-2 -6 -11.5 -39t-33.5 -52t-62 -19q-29 0 -52 6.5t-43.5 14.5t-28.5 11l-54 -253h155l-20 -74h-151l-51 -239h224l-21 -106h-369l77 363q-70 31 -135 36q-56 -123 -92.5 -250.5t-36.5 -205.5q0 -37 7 -45.5t7 -10.5q-45 2 -71.5 8.5 zM535 679q-44 -24 -91 -86.5t-91 -151.5q69 -13 124 -34z" glyph-name="uni04D4" horiz-adv-x="764" unicode="Ӕ"/>
<glyph d="M28.5 23q-36.5 29 -36.5 101q0 88 60 127t162 39q36 0 52 -4q21 45 21 88q0 32 -15 51.5t-46 19.5q-42 0 -69 -12t-52 -35l-28 29q35 35 65.5 52t56 21.5t60.5 4.5q80 0 130 -40q59 44 135 44q62 0 85.5 -26.5t23.5 -72.5q0 -54 -32 -100.5t-85 -75t-113 -32.5 q-2 -22 -2 -32q0 -53 15 -72.5t45 -19.5q46 0 77.5 12t53.5 31t58 58h34q-112 -183 -276 -183q-121 0 -147 94q-24 -45 -56 -70.5t-86 -25.5t-90.5 29zM481.5 276q33.5 24 54 60.5t20.5 75.5q0 22 -5 33t-19 11q-37 0 -70.5 -62.5t-51.5 -143.5q38 2 71.5 26zM225 120.5 q19 29.5 34 107.5q-7 1 -17 1q-49 0 -79 -24t-30 -64q0 -29 15 -39.5t31 -10.5q27 0 46 29.5z" glyph-name="uni04D5" horiz-adv-x="650" unicode="ӕ"/>
<glyph d="M53.5 32q-46.5 50 -46.5 126q0 54 22.5 108.5t64.5 95.5t98 55q-31 22 -46 53.5t-15 66.5q0 52 28.5 102t79 81.5t111.5 31.5q63 0 103 -33t40 -92q0 -44 -22 -74t-52 -30q-27 0 -47 27q18 6 31 33t13 54q0 29 -16 42.5t-39 13.5q-29 0 -52.5 -20.5t-36.5 -53t-13 -67.5 q0 -48 25 -84.5t76 -49.5q-51 -11 -92 -50t-64 -90.5t-23 -98.5q0 -45 23.5 -73t71.5 -28q50 0 104.5 27.5t80.5 74.5l23 -10q-39 -86 -120 -137t-173 -51q-91 0 -137.5 50zM249 823q-34 23 -34 63q0 33 18.5 53t48.5 20q29 0 45.5 -14t16.5 -40q0 -32 -24 -48q13 -4 40 -4 q45 0 87.5 27.5t66.5 89.5h42q-32 -93 -85 -131.5t-126 -38.5q-62 0 -96 23z" glyph-name="uni04D6" horiz-adv-x="459" unicode="Ӗ"/>
<glyph d="M28 32.5q-41 38.5 -41 120.5q0 69 27 152t88 143.5t155 60.5q110 0 110 -96q0 -56 -32 -103t-85 -75.5t-113 -32.5q-2 -30 -2 -40q0 -49 17 -66.5t55 -17.5q54 0 92.5 25t84.5 76h34q-111 -185 -275 -185q-74 0 -115 38.5zM215.5 276q33.5 24 54 61t20.5 78t-25 41 q-36 0 -70.5 -63t-49.5 -143q37 2 70.5 26zM137 572q-34 23 -34 63q0 33 18.5 53t48.5 20q29 0 45.5 -14t16.5 -40q0 -32 -24 -48q13 -4 40 -4q45 0 87.5 27.5t66.5 89.5h42q-32 -93 -85 -131.5t-126 -38.5q-62 0 -96 23z" glyph-name="uni04D7" horiz-adv-x="384" unicode="ӗ"/>
<glyph d="M63 35q-43 41 -43 106q0 70 51 136t132.5 107t167.5 41q5 25 5 81q0 71 -27 105t-84 34q-46 0 -82 -21.5t-56 -62.5q-15 12 -23.5 30t-8.5 39q0 37 27.5 67.5t75 48t105.5 17.5q113 0 174.5 -70.5t61.5 -200.5q0 -124 -52 -239.5t-136 -187t-175 -71.5q-70 0 -113 41z M251 107.5q34 39.5 63 110t47 159.5q-56 -3 -106.5 -39t-80.5 -91.5t-30 -115.5q0 -63 40 -63q33 0 67 39.5z" glyph-name="uni04D8" horiz-adv-x="544" unicode="Ә"/>
<glyph d="M28 19.5q-28 25.5 -28 72.5q0 52 32 97.5t86 74.5t117 33q2 16 2 42q0 40 -19 61t-55 21q-30 0 -54 -14.5t-38 -41.5q-21 18 -21 46q0 26 21.5 48t58.5 34.5t82 12.5q85 0 129 -45.5t44 -133.5q0 -86 -38.5 -163t-102.5 -123.5t-136 -46.5q-52 0 -80 25.5zM176 103.5 q33 56.5 51 145.5q-37 -2 -70.5 -25.5t-54 -59t-20.5 -74.5q0 -43 27 -43q34 0 67 56.5z" glyph-name="uni04D9" horiz-adv-x="404" unicode="ә"/>
<glyph d="M-46 0q42 23 59 65.5t30 116.5q12 72 27 115.5t51 75.5q43 43 135 43h3q2 46 2 65q0 63 -10.5 105t-38.5 67q-21 -40 -67 -40q-24 0 -38.5 17t-14.5 44q0 37 28 56.5t68 19.5q72 0 102.5 -70.5t30.5 -169.5q0 -52 -7 -98q6 0 20 -2l66 307l150 31l-72 -338q16 2 23 2 q15 70 46 143t58 108q32 43 71 65t76 22q32 0 53.5 -17.5t21.5 -49.5q0 -36 -19 -53t-46 -17q-43 0 -59 40q-34 -22 -58.5 -55t-41 -71t-43.5 -111h14q68 0 96 -28.5t28 -78.5q0 -29 -7 -61t-20 -77q-12 -41 -17 -63.5t-5 -41.5q0 -23 10.5 -41t28.5 -25q-57 -16 -99 -16 q-78 0 -78 66q0 22 6.5 49t19.5 73q13 42 20 71.5t7 53.5q0 68 -60 68q-18 0 -36 -3l-77 -362h-144l77 364q-8 1 -23 1q-40 2 -67 -23t-39 -69q-8 -25 -14 -59.5t-10 -66.5q-7 -45 -12 -69q-10 -44 -31.5 -69.5t-65.5 -25.5q-58 0 -108 17zM369.5 838.5 q-17.5 17.5 -17.5 43.5q0 25 17.5 43t43.5 18q25 0 43 -18t18 -43q0 -26 -18 -43.5t-43 -17.5q-26 0 -43.5 17.5zM549.5 838.5q-17.5 17.5 -17.5 43.5q0 25 17.5 43t43.5 18q25 0 43 -18t18 -43q0 -26 -18 -43.5t-43 -17.5q-26 0 -43.5 17.5z" glyph-name="uni04DC" horiz-adv-x="777" unicode="Ӝ"/>
<glyph d="M-8.5 24.5q-28.5 30.5 -28.5 75.5q0 40 17 62t42 22q22 0 36 -14q-13 -35 -13 -66q0 -29 11 -43t25 -14q27 0 52 45t41 112t16 126q0 105 -61 105q-28 0 -45 -18t-32 -57h-52q22 73 60.5 111t105.5 38q68 0 107 -43t39 -116q0 -24 -3 -50h60l42 200h134l-42 -200h56 q27 91 78 150t127 59q56 0 79.5 -26.5t23.5 -65.5q0 -35 -14.5 -54t-36.5 -19q-18 0 -35 12q10 33 10 59q0 19 -6 30t-17 11q-25 0 -50.5 -45.5t-41.5 -112t-16 -125.5q0 -53 20 -79t54 -26q38 0 81 28.5t75 82.5h34q-34 -75 -100 -130t-140 -55q-68 0 -107 43t-39 116 q0 52 8 87h-57l-50 -240h-134l51 240h-56q-21 -102 -76 -174t-142 -72q-62 0 -90.5 30.5zM368.5 590.5q-17.5 17.5 -17.5 43.5q0 25 17.5 43t43.5 18q25 0 43 -18t18 -43q0 -26 -18 -43.5t-43 -17.5q-26 0 -43.5 17.5zM548.5 590.5q-17.5 17.5 -17.5 43.5q0 25 17.5 43 t43.5 18q25 0 43 -18t18 -43q0 -26 -18 -43.5t-43 -17.5q-26 0 -43.5 17.5z" glyph-name="uni04DD" horiz-adv-x="882" unicode="ӝ"/>
<glyph d="M39.5 16.5q-49.5 32.5 -49.5 95.5q0 44 23.5 70.5t61.5 26.5q34 0 52 -26q-37 -22 -37 -72q0 -29 20.5 -48.5t58.5 -19.5q44 0 76.5 30t49 77.5t16.5 100.5q0 66 -29 95.5t-86 29.5h-42l16 74h36q43 0 74.5 25t48 61.5t16.5 68.5q0 37 -20 57.5t-58 20.5q-94 0 -153 -115 l-23 10q21 84 83.5 127.5t148.5 43.5q84 0 128 -41t44 -109q0 -65 -39.5 -111.5t-110.5 -70.5q129 -37 129 -169q0 -71 -36.5 -131.5t-105 -96.5t-159.5 -36q-84 0 -133.5 32.5zM233.5 838.5q-17.5 17.5 -17.5 43.5q0 25 17.5 43t43.5 18q25 0 43 -18t18 -43 q0 -26 -18 -43.5t-43 -17.5q-26 0 -43.5 17.5zM413.5 838.5q-17.5 17.5 -17.5 43.5q0 25 17.5 43t43.5 18q25 0 43 -18t18 -43q0 -26 -18 -43.5t-43 -17.5q-26 0 -43.5 17.5z" glyph-name="uni04DE" horiz-adv-x="525" unicode="Ӟ"/>
<glyph d="M88 -225q-32 25 -32 72q0 97 157 147q-3 106 -72 106h-31l13 60h29q35 0 63 23t44 62.5t16 86.5q0 86 -61 86q-55 0 -97 -56.5t-75 -182.5h-42q28 111 55 178t78 109.5t135 42.5q73 0 115.5 -42t42.5 -117q0 -60 -28.5 -108.5t-65.5 -78t-61 -34.5q26 -9 49.5 -36 t32.5 -64q57 17 89.5 49t55.5 101h42q-27 -91 -75 -133t-108 -57q-2 -112 -53.5 -175.5t-135.5 -63.5q-48 0 -80 25zM185 -137q19 35 25 83q-99 -34 -99 -85q0 -15 8.5 -24t25.5 -9q21 0 40 35zM166.5 590.5q-17.5 17.5 -17.5 43.5q0 25 17.5 43t43.5 18q25 0 43 -18t18 -43 q0 -26 -18 -43.5t-43 -17.5q-26 0 -43.5 17.5zM346.5 590.5q-17.5 17.5 -17.5 43.5q0 25 17.5 43t43.5 18q25 0 43 -18t18 -43q0 -26 -18 -43.5t-43 -17.5q-26 0 -43.5 17.5z" glyph-name="uni04DF" horiz-adv-x="498" unicode="ӟ"/>
<glyph d="M245 680q-67 -28 -103.5 -84t-36.5 -135q0 -37 7 -51.5t7 -16.5q-54 0 -80.5 22.5t-26.5 74.5q0 64 52.5 124.5t134.5 98t164 37.5q14 0 40 -2l-113 -532l300 532h144l-159 -748h-144l109 514l-296 -514h-144zM364 913h320l-15 -74h-321z" glyph-name="uni04E2" horiz-adv-x="705" unicode="Ӣ"/>
<glyph d="M21.5 24q-29.5 30 -29.5 90q0 25 8 65l68 321h144l-72 -340q-3 -15 -3 -28q0 -41 30 -41q28 0 48 23.5t32 64.5l68 321h144l-72 -340q-4 -15 -4 -32q0 -20 9.5 -28.5t31.5 -8.5q28 0 48.5 24t32.5 64h42q-37 -108 -91.5 -146.5t-109.5 -38.5q-43 0 -68.5 24t-30.5 71 q-34 -55 -71.5 -75t-76.5 -20q-48 0 -77.5 30zM141 665h320l-15 -74h-321z" glyph-name="uni04E3" unicode="ӣ"/>
<glyph d="M245 680q-67 -28 -103.5 -84t-36.5 -135q0 -37 7 -51.5t7 -16.5q-54 0 -80.5 22.5t-26.5 74.5q0 64 52.5 124.5t134.5 98t164 37.5q14 0 40 -2l-113 -532l300 532h144l-159 -748h-144l109 514l-296 -514h-144zM383.5 838.5q-17.5 17.5 -17.5 43.5q0 25 17.5 43t43.5 18 q25 0 43 -18t18 -43q0 -26 -18 -43.5t-43 -17.5q-26 0 -43.5 17.5zM563.5 838.5q-17.5 17.5 -17.5 43.5q0 25 17.5 43t43.5 18q25 0 43 -18t18 -43q0 -26 -18 -43.5t-43 -17.5q-26 0 -43.5 17.5z" glyph-name="uni04E4" horiz-adv-x="705" unicode="Ӥ"/>
<glyph d="M21.5 24q-29.5 30 -29.5 90q0 25 8 65l68 321h144l-72 -340q-3 -15 -3 -28q0 -41 30 -41q28 0 48 23.5t32 64.5l68 321h144l-72 -340q-4 -15 -4 -32q0 -20 9.5 -28.5t31.5 -8.5q28 0 48.5 24t32.5 64h42q-37 -108 -91.5 -146.5t-109.5 -38.5q-43 0 -68.5 24t-30.5 71 q-34 -55 -71.5 -75t-76.5 -20q-48 0 -77.5 30zM160.5 590.5q-17.5 17.5 -17.5 43.5q0 25 17.5 43t43.5 18q25 0 43 -18t18 -43q0 -26 -18 -43.5t-43 -17.5q-26 0 -43.5 17.5zM340.5 590.5q-17.5 17.5 -17.5 43.5q0 25 17.5 43t43.5 18q25 0 43 -18t18 -43q0 -26 -18 -43.5 t-43 -17.5q-26 0 -43.5 17.5z" glyph-name="uni04E5" unicode="ӥ"/>
<glyph d="M155.5 42q-47.5 48 -47.5 153q0 89 32 200t93.5 190t145.5 79q30 0 52 -8q-44 -26 -84.5 -107t-65.5 -181t-25 -177q0 -54 14 -85t44 -31q49 0 97.5 70.5t80 177.5t31.5 206q0 62 -10.5 99.5t-38.5 56.5t-79 19q-77 0 -143 -31.5t-105.5 -90t-39.5 -135.5q0 -27 5 -39.5 t5 -14.5q-50 0 -75.5 20t-25.5 64q0 69 56.5 132t150 102t196.5 39q125 0 181 -68t56 -188q0 -107 -40 -223t-123.5 -196.5t-205.5 -80.5q-84 0 -131.5 48zM363.5 838.5q-17.5 17.5 -17.5 43.5q0 25 17.5 43t43.5 18q25 0 43 -18t18 -43q0 -26 -18 -43.5t-43 -17.5 q-26 0 -43.5 17.5zM543.5 838.5q-17.5 17.5 -17.5 43.5q0 25 17.5 43t43.5 18q25 0 43 -18t18 -43q0 -26 -18 -43.5t-43 -17.5q-26 0 -43.5 17.5z" glyph-name="uni04E6" horiz-adv-x="665" unicode="Ӧ"/>
<glyph d="M29 34q-43 38 -43 120q0 68 28 151t90 143.5t156 60.5q128 0 128 -160v-1q3 -1 11 -1q33 0 76 17.5t78 42.5l9 -27q-29 -31 -75.5 -52.5t-101.5 -30.5q-8 -91 -41 -159t-85 -105t-113 -37q-74 0 -117 38zM234 113.5q24 27.5 42 75t26 105.5q-27 6 -27 42q0 41 31 54 q-2 33 -10 45.5t-28 12.5q-33 0 -64 -48t-50 -115t-19 -118q0 -48 11 -64.5t40 -16.5q24 0 48 27.5zM167.5 590.5q-17.5 17.5 -17.5 43.5q0 25 17.5 43t43.5 18q25 0 43 -18t18 -43q0 -26 -18 -43.5t-43 -17.5q-26 0 -43.5 17.5zM347.5 590.5q-17.5 17.5 -17.5 43.5 q0 25 17.5 43t43.5 18q25 0 43 -18t18 -43q0 -26 -18 -43.5t-43 -17.5q-26 0 -43.5 17.5z" glyph-name="uni04E7" horiz-adv-x="439" unicode="ӧ"/>
<glyph d="M600 682q56 -68 56 -188q0 -107 -40 -223t-123.5 -196.5t-205.5 -80.5q-84 0 -131.5 48t-47.5 153q0 89 32 200t93.5 190t145.5 79q30 0 52 -8q-40 -25 -78 -95.5t-63 -161.5h220q13 72 13 130q0 62 -10.5 99.5t-38.5 56.5t-79 19q-77 0 -143 -31.5t-105.5 -90 t-39.5 -135.5q0 -27 5 -39.5t5 -14.5q-50 0 -75.5 20t-25.5 64q0 69 56.5 132t150 102t196.5 39q125 0 181 -68zM417.5 154.5q51.5 79.5 81.5 194.5h-222q-21 -90 -21 -158q0 -54 14 -85t44 -31q52 0 103.5 79.5z" glyph-name="uni04E8" horiz-adv-x="665" unicode="Ө"/>
<glyph d="M29 34q-43 38 -43 120q0 68 28 151t90 143.5t156 60.5q128 0 128 -160v-1q3 -1 11 -1q33 0 76 17.5t78 42.5l9 -27q-29 -31 -75.5 -52.5t-101.5 -30.5q-8 -91 -41 -159t-85 -105t-113 -37q-74 0 -117 38zM234 113.5q24 27.5 42 75t26 105.5q-27 6 -27 42q0 41 31 54 q-2 33 -10 45.5t-28 12.5q-33 0 -64 -48t-50 -115t-19 -118q0 -48 11 -64.5t40 -16.5q24 0 48 27.5zM62 275h329l-12 -50h-331z" glyph-name="uni04E9" horiz-adv-x="439" unicode="ө"/>
<glyph d="M228.5 15.5q-22.5 20.5 -22.5 52.5q0 33 18 52t51 19q26 0 42 -15.5t20 -43.5q32 12 60 74l-143 529q-71 -27 -110 -83.5t-39 -138.5q0 -37 7 -51.5t7 -16.5q-54 0 -80.5 22.5t-26.5 74.5q0 64 52.5 124.5t134.5 98t164 37.5q14 0 40 -2l87 -375l158 372h66l-250 -591 q-29 -67 -67.5 -113t-102.5 -46q-43 0 -65.5 20.5zM378 913h320l-15 -74h-321z" glyph-name="uni04EE" horiz-adv-x="644" unicode="Ӯ"/>
<glyph d="M76 -225q-32 25 -32 72q0 57 46 91.5t117 57.5l12 54q-29 -32 -59 -44t-61 -12q-48 0 -77.5 30t-29.5 90q0 25 8 65l68 321h144l-72 -340q-3 -12 -3 -25q0 -44 30 -44q26 0 46 22.5t32 59.5l70 327h144l-99 -464q48 16 77 48t49 95h42q-27 -89 -73 -130.5t-104 -56.5 l-15 -72q-20 -97 -69 -133.5t-111 -36.5q-48 0 -80 25zM166 -149q16 23 25 66l6 29q-98 -36 -98 -85q0 -13 9 -23t25 -10q17 0 33 23zM140 665h320l-15 -74h-321z" glyph-name="uni04EF" horiz-adv-x="486" unicode="ӯ"/>
<glyph d="M228.5 15.5q-22.5 20.5 -22.5 52.5q0 33 18 52t51 19q26 0 42 -15.5t20 -43.5q32 12 60 74l-143 529q-71 -27 -110 -83.5t-39 -138.5q0 -37 7 -51.5t7 -16.5q-54 0 -80.5 22.5t-26.5 74.5q0 64 52.5 124.5t134.5 98t164 37.5q14 0 40 -2l87 -375l158 372h66l-250 -591 q-29 -67 -67.5 -113t-102.5 -46q-43 0 -65.5 20.5zM397.5 838.5q-17.5 17.5 -17.5 43.5q0 25 17.5 43t43.5 18q25 0 43 -18t18 -43q0 -26 -18 -43.5t-43 -17.5q-26 0 -43.5 17.5zM577.5 838.5q-17.5 17.5 -17.5 43.5q0 25 17.5 43t43.5 18q25 0 43 -18t18 -43 q0 -26 -18 -43.5t-43 -17.5q-26 0 -43.5 17.5z" glyph-name="uni04F0" horiz-adv-x="644" unicode="Ӱ"/>
<glyph d="M76 -225q-32 25 -32 72q0 57 46 91.5t117 57.5l12 54q-29 -32 -59 -44t-61 -12q-48 0 -77.5 30t-29.5 90q0 25 8 65l68 321h144l-72 -340q-3 -12 -3 -25q0 -44 30 -44q26 0 46 22.5t32 59.5l70 327h144l-99 -464q48 16 77 48t49 95h42q-27 -89 -73 -130.5t-104 -56.5 l-15 -72q-20 -97 -69 -133.5t-111 -36.5q-48 0 -80 25zM166 -149q16 23 25 66l6 29q-98 -36 -98 -85q0 -13 9 -23t25 -10q17 0 33 23zM159.5 590.5q-17.5 17.5 -17.5 43.5q0 25 17.5 43t43.5 18q25 0 43 -18t18 -43q0 -26 -18 -43.5t-43 -17.5q-26 0 -43.5 17.5z M339.5 590.5q-17.5 17.5 -17.5 43.5q0 25 17.5 43t43.5 18q25 0 43 -18t18 -43q0 -26 -18 -43.5t-43 -17.5q-26 0 -43.5 17.5z" glyph-name="uni04F1" horiz-adv-x="486" unicode="ӱ"/>
<glyph d="M228.5 15.5q-22.5 20.5 -22.5 52.5q0 33 18 52t51 19q26 0 42 -15.5t20 -43.5q32 12 60 74l-143 529q-71 -27 -110 -83.5t-39 -138.5q0 -37 7 -51.5t7 -16.5q-54 0 -80.5 22.5t-26.5 74.5q0 64 52.5 124.5t134.5 98t164 37.5q14 0 40 -2l87 -375l158 372h66l-250 -591 q-29 -67 -67.5 -113t-102.5 -46q-43 0 -65.5 20.5zM478 1000h105l-141 -189h-55zM640 1000h105l-141 -189h-55z" glyph-name="uni04F2" horiz-adv-x="644" unicode="Ӳ"/>
<glyph d="M76 -225q-32 25 -32 72q0 57 46 91.5t117 57.5l12 54q-29 -32 -59 -44t-61 -12q-48 0 -77.5 30t-29.5 90q0 25 8 65l68 321h144l-72 -340q-3 -12 -3 -25q0 -44 30 -44q26 0 46 22.5t32 59.5l70 327h144l-99 -464q48 16 77 48t49 95h42q-27 -89 -73 -130.5t-104 -56.5 l-15 -72q-20 -97 -69 -133.5t-111 -36.5q-48 0 -80 25zM166 -149q16 23 25 66l6 29q-98 -36 -98 -85q0 -13 9 -23t25 -10q17 0 33 23zM240 752h105l-141 -189h-55zM402 752h105l-141 -189h-55z" glyph-name="uni04F3" horiz-adv-x="486" unicode="ӳ"/>
<glyph d="M492 333q-38 -23 -74 -31t-74 -8q-63 0 -102 35.5t-39 107.5q0 54 11 104l31 139q-67 -28 -103.5 -84t-36.5 -135q0 -37 7 -51.5t7 -16.5q-54 0 -80.5 22.5t-26.5 74.5q0 64 52.5 124.5t134.5 98t164 37.5q14 0 40 -2l-45 -207q-14 -68 -14 -96q0 -39 21.5 -56t53.5 -17 q49 0 88 32l73 344h144l-159 -748h-144zM386.5 838.5q-17.5 17.5 -17.5 43.5q0 25 17.5 43t43.5 18q25 0 43 -18t18 -43q0 -26 -18 -43.5t-43 -17.5q-26 0 -43.5 17.5zM566.5 838.5q-17.5 17.5 -17.5 43.5q0 25 17.5 43t43.5 18q25 0 43 -18t18 -43q0 -26 -18 -43.5 t-43 -17.5q-26 0 -43.5 17.5z" glyph-name="uni04F4" horiz-adv-x="695" unicode="Ӵ"/>
<glyph d="M268.5 24q-29.5 30 -29.5 90q0 25 8 65l5 25q-29 -32 -59 -44t-61 -12q-48 0 -77.5 30t-29.5 90q0 25 8 65l35 167h144l-39 -186q-3 -15 -3 -28q0 -41 30 -41q29 0 50.5 24.5t29.5 63.5l35 167h144l-72 -340q-4 -15 -4 -32q0 -20 9.5 -28.5t31.5 -8.5q28 0 48.5 24 t32.5 64h42q-37 -108 -91.5 -146.5t-109.5 -38.5q-48 0 -77.5 30zM154.5 590.5q-17.5 17.5 -17.5 43.5q0 25 17.5 43t43.5 18q25 0 43 -18t18 -43q0 -26 -18 -43.5t-43 -17.5q-26 0 -43.5 17.5zM334.5 590.5q-17.5 17.5 -17.5 43.5q0 25 17.5 43t43.5 18q25 0 43 -18t18 -43 q0 -26 -18 -43.5t-43 -17.5q-26 0 -43.5 17.5z" glyph-name="uni04F5" unicode="ӵ"/>
<glyph d="M638 750q-5 -14 -8 -28q-8 -28 -16 -46.5t-26.5 -32t-49.5 -13.5q-60 0 -153 20l-135 -627q17 -5 29 -11.5t29 -18.5q20 -14 34 -20.5t33 -6.5q21 0 50 10q-7 -72 -36.5 -108t-78.5 -36q-34 0 -52.5 22t-37.5 64q-15 36 -30 54.5t-40 18.5q-27 0 -48 -6l3 15h-4l144 668 q-63 -2 -96.5 -49t-33.5 -149q0 -52 7 -63.5t7 -13.5q-59 0 -88 24t-29 82q0 67 35.5 123.5t115.5 92t206 35.5q25 0 68 -5q77 -7 106 -7q56 0 95 12z" glyph-name="uni04F6" horiz-adv-x="442" unicode="Ӷ"/>
<glyph d="M296.5 49.5q-61.5 -48.5 -143.5 -54.5l1 -1q-8 -11 -8 -21q0 -9 5 -16.5t16 -19.5q16 -18 24.5 -33.5t8.5 -36.5q0 -28 -22.5 -57t-61.5 -56l-17 12q9 11 9 19q0 11 -4.5 19.5t-15.5 22.5q-14 16 -21 29.5t-7 35.5q0 54 68 102q-71 1 -110 29t-39 84q0 37 16.5 64.5 t39.5 46t61 42.5q48 29 71.5 52.5t23.5 58.5q0 22 -11.5 34.5t-34.5 12.5q-33 0 -59 -25t-49 -79h-48q33 94 84 144.5t134 50.5q58 0 96.5 -28t38.5 -85q0 -43 -18 -75t-44 -52.5t-65 -44.5q-44 -27 -64 -46.5t-20 -46.5q0 -53 71 -53q45 0 85.5 23t87.5 78h34 q-51 -81 -112.5 -129.5z" glyph-name="uni04F7" horiz-adv-x="375" unicode="ӷ"/>
<glyph d="M315.5 6q-26.5 23 -26.5 60q0 22 11 49q28 -36 67 -36q50 0 74.5 53.5t24.5 121.5q0 123 -95 123q-27 0 -49 -11l-78 -366h-144l145 680q-67 -28 -103.5 -84t-36.5 -135q0 -37 7 -51.5t7 -16.5q-54 0 -80.5 22.5t-26.5 74.5q0 64 52.5 124.5t134.5 98t164 37.5 q14 0 40 -2l-70 -330q58 18 103 18q84 0 126.5 -50.5t42.5 -134.5q0 -55 -23.5 -117.5t-71.5 -106.5t-119 -44q-49 0 -75.5 23zM794 748h144l-159 -748h-144zM495.5 838.5q-17.5 17.5 -17.5 43.5q0 25 17.5 43t43.5 18q25 0 43 -18t18 -43q0 -26 -18 -43.5t-43 -17.5 q-26 0 -43.5 17.5zM675.5 838.5q-17.5 17.5 -17.5 43.5q0 25 17.5 43t43.5 18q25 0 43 -18t18 -43q0 -26 -18 -43.5t-43 -17.5q-26 0 -43.5 17.5z" glyph-name="uni04F8" horiz-adv-x="909" unicode="Ӹ"/>
<glyph d="M30.8809 27.4502q-36.7627 33.3311 -36.7627 92.1523q0 29.4102 6.8623 55.8799l64.7031 314.691h135.287l-72.5449 -345.082q-2.94141 -7.84277 -2.94141 -27.4502q0 -40.1943 44.1152 -40.1943q26.4697 0 50.9785 22.0576q24.5088 22.0586 39.2139 59.3115 t14.7051 81.3682q0 24.5088 -14.7051 37.2539q-12.7441 -8.82324 -28.4297 -8.82324q-16.666 0 -29.9014 10.7832q-13.2344 10.7842 -13.2344 31.3711q0 21.5684 16.666 33.332q16.666 11.7646 38.2334 11.7646q22.5479 0 40.1943 -5.88281q62.7422 28.4307 149.993 81.3691 q70.585 42.1553 101.956 58.8213h60.7812l-51.958 -243.126q-9.80371 -42.1553 -16.666 -73.5264t-6.8623 -43.1357q0 -41.1738 39.2139 -41.1738q27.4492 0 44.1152 18.626q16.666 18.627 38.2334 67.6445h41.1748q-61.7617 -181.364 -181.364 -181.364 q-56.8604 0 -86.2705 30.8809t-29.4102 75.9766q0 35.293 53.9189 276.458q-46.0762 -29.4102 -109.799 -63.7227q23.5283 -36.2725 23.5283 -98.0342q0 -46.0771 -24.5088 -97.5449t-74.0156 -87.7412q-49.5078 -36.2725 -121.073 -36.2725q-66.6641 0 -103.427 33.332z M230.502 578.895q-17.1562 17.1562 -17.1562 42.6455q0 24.5088 17.1562 42.1553q17.1562 17.6455 42.6445 17.6455q24.5088 0 42.1553 -17.6455q17.6465 -17.6465 17.6465 -42.1553q0 -25.4893 -17.6465 -42.6455q-17.6465 -17.1553 -42.1553 -17.1553 q-25.4883 0 -42.6445 17.1553zM406.964 578.895q-17.1562 17.1562 -17.1562 42.6455q0 24.5088 17.1562 42.1553q17.1562 17.6455 42.6455 17.6455q24.5088 0 42.1553 -17.6455q17.6455 -17.6465 17.6455 -42.1553q0 -25.4893 -17.6455 -42.6455 q-17.6465 -17.1553 -42.1553 -17.1553q-25.4893 0 -42.6455 17.1553z" glyph-name="uni04F9" horiz-adv-x="642" unicode="ӹ"/>
<glyph d="M443 -96.5q-25 16.5 -37.5 41t-25.5 63.5q-45 -14 -93 -14q-84 0 -131.5 48t-47.5 153q0 89 32 200t93.5 190t145.5 79q30 0 52 -8q-44 -26 -84.5 -107t-65.5 -181t-25 -177v-18q0 -17 2 -25q36 9 62 9q45 0 80 -27q51 66 87 179.5t36 219.5q0 62 -10.5 99.5t-38.5 56.5 t-79 19q-77 0 -143 -31.5t-105.5 -90t-39.5 -135.5q0 -27 5 -39.5t5 -14.5q-50 0 -75.5 20t-25.5 64q0 69 56.5 132t150 102t196.5 39q125 0 181 -68t56 -188q0 -74 -21 -158.5t-64 -160.5t-106 -123q26 -39 54 -60t71 -21q6 0 22 2q-19 -49 -43.5 -67.5t-59.5 -18.5 q-41 0 -66 16.5zM352 86q-20 34 -57 34q-16 0 -29 -4q14 -41 48 -41q22 0 38 11z" glyph-name="uni051A" horiz-adv-x="665" unicode="Ԛ"/>
<glyph d="M239 49q-51 -55 -119 -55q-57 0 -95 39t-38 122q0 74 29.5 155.5t88 138t139.5 56.5q41 0 61 -14t20 -37v-2l10 48h144l-152 -714l-151 -36zM229.5 110q22.5 19 33.5 52l53 247q-8 34 -41 34q-40 0 -72 -46.5t-50 -112t-18 -115.5t14.5 -64t35.5 -14q22 0 44.5 19z" glyph-name="uni051B" horiz-adv-x="486" unicode="ԛ"/>
<glyph d="M248 683q-71 -27 -110 -83.5t-39 -138.5q0 -37 7 -51.5t7 -16.5q-54 0 -80.5 22.5t-26.5 74.5q0 64 52.5 124.5t134.5 98t164 37.5q14 0 40 -2l9 -615l210 612h127l9 -612l210 612h70l-278 -745h-144l-12 509l-190 -509h-144z" glyph-name="uni051C" horiz-adv-x="962" unicode="Ԝ"/>
<glyph d="M21.5 24q-29.5 30 -29.5 90q0 25 8 65l68 321h144l-72 -340q-3 -12 -3 -25q0 -44 30 -44q28 0 48 23.5t32 64.5l68 321h144l-72 -340q-5 -25 -5 -36q0 -33 34 -33q46 0 85.5 58t63.5 138t24 138q-2 -5 -13 -7.5t-19 -2.5q-17 0 -26.5 16t-9.5 35q0 24 15.5 39t46.5 15 q33 0 48 -24.5t15 -62.5q0 -90 -31 -192.5t-95 -174.5t-159 -72q-49 0 -80 21t-40 63q-56 -84 -142 -84q-48 0 -77.5 30z" glyph-name="uni051D" horiz-adv-x="661" unicode="ԝ"/>
<glyph d="M668 619l-128 -597q26 -8 54 -29q20 -14 34 -20.5t33 -6.5q21 0 50 10q-7 -72 -36.5 -108t-78.5 -36q-34 0 -52.5 22t-37.5 64q-15 36 -30 54.5t-40 18.5q-27 0 -48 -6l5 25l134 621l-78 12q-47 9 -65 11l-140 -654h-144l141 658q-64 -10 -100 -57t-36 -141 q0 -37 7 -51.5t7 -16.5q-54 0 -80.5 22.5t-26.5 74.5q0 71 35 129.5t111.5 94.5t194.5 36q47 0 92 -5t55 -6q93 -13 172 -13q64 0 116 21q-3 -126 -120 -127z" glyph-name="uni0524" horiz-adv-x="742" unicode="Ԥ"/>
<glyph d="M374 -6h1q-8 -11 -8 -21q0 -9 5 -16.5t16 -19.5q16 -18 24.5 -33.5t8.5 -36.5q0 -28 -22.5 -57t-61.5 -56l-17 12q9 11 9 19q0 11 -4.5 19.5t-15.5 22.5q-14 16 -21 29.5t-7 35.5q0 54 69 102q-56 3 -81.5 35t-25.5 78q0 21 5 47.5t10.5 51.5t7.5 32q8 35 15 69t7 55 q0 51 -36 51q-26 0 -46 -25.5t-32 -66.5l-68 -321h-144l106 500h144l-11 -52q50 56 117 56q51 0 81 -28t30 -85q0 -29 -7 -64.5t-20 -86.5q-8 -31 -14.5 -60.5t-6.5 -46.5q0 -20 9 -31t31 -11q30 0 48 21.5t36 66.5h42q-60 -176 -173 -185z" glyph-name="uni0525" unicode="ԥ"/>
<glyph d="M316 752h72l-416 -752h-72z" glyph-name="fraction" horiz-adv-x="248" unicode="⁄"/>
<glyph d="M50 489q0 75 27 138t73.5 99.5t102.5 36.5q58 0 87 -37.5t29 -111.5t-27.5 -137t-74.5 -100t-103 -37q-114 0 -114 149zM227 418q23 37 37 98t14 131q0 40 -7 57t-24 17q-25 0 -49.5 -37.5t-40 -97.5t-15.5 -122q0 -43 8.5 -63t27.5 -20q26 0 49 37z" glyph-name="uni2070" horiz-adv-x="379" unicode="⁰"/>
<glyph d="M50 143q0 75 27 138t73.5 99.5t102.5 36.5q58 0 87 -37.5t29 -111.5t-27.5 -137t-74.5 -100t-103 -37q-114 0 -114 149zM227 72q23 37 37 98t14 131q0 40 -7 57t-24 17q-25 0 -49.5 -37.5t-40 -97.5t-15.5 -122q0 -43 8.5 -63t27.5 -20q26 0 49 37z" glyph-name="uni2080" horiz-adv-x="379" unicode="₀"/>
<glyph d="M177 4q-42 11 -61 11q-28 0 -59 -16h-4q-3 14 -3 26q0 34 20 63.5t61 72.5q47 50 71 87t24 84q0 27 -9 43t-28 16t-31 -13t-12 -32q0 -15 7 -26.5t18 -16.5l1 -3q-9 -8 -20 -13t-21 -5q-19 0 -32 12t-13 33q0 23 14 44.5t41.5 35t64.5 13.5q50 0 81 -24t31 -66 q0 -41 -27.5 -74t-82.5 -79q-37 -30 -58.5 -51.5t-33.5 -44.5q13 4 34 4q16 0 56 -7q23 -5 38 -5q26 0 47 24l3 -1q7 -18 7 -35q0 -29 -21.5 -48t-51.5 -19q-15 0 -51 10z" glyph-name="uni2082" horiz-adv-x="328" unicode="₂"/>
<glyph d="M199 148h-148l-1 4q40 66 58.5 116.5t18.5 95.5q0 20 -8 52q16 3 35 3q25 0 38.5 -16t13.5 -44q0 -35 -23.5 -80t-62.5 -84l1 -3h87l45 210l89 11l-48 -221h38l-11 -44h-36l-31 -148h-87z" glyph-name="uni2084" horiz-adv-x="352" unicode="₄"/>
<glyph d="M-257 572q-34 23 -34 63q0 33 18.5 53t48.5 20q29 0 45.5 -14t16.5 -40q0 -32 -24 -48q13 -4 40 -4q45 0 87.5 27.5t66.5 89.5h42q-32 -93 -85 -131.5t-126 -38.5q-62 0 -96 23z" glyph-name="brevecombcy" horiz-adv-x="0"/>
<glyph d="M-204 823q-34 23 -34 63q0 33 18.5 53t48.5 20q29 0 45.5 -14t16.5 -40q0 -32 -24 -48q13 -4 40 -4q45 0 87.5 27.5t66.5 89.5h42q-32 -93 -85 -131.5t-126 -38.5q-62 0 -96 23z" glyph-name="brevecombcy.case" horiz-adv-x="0"/>
</font>
</defs>
</svg>
